<svg width="173" height="60" viewBox="0 0 173 60" fill="none" xmlns="http://www.w3.org/2000/svg">
<g clip-path="url(#clip0_5415_8084)">
<ellipse cx="29.4768" cy="29.9736" rx="22.1506" ry="22.125" fill="#E1F2FF"/>
<path d="M23.8434 50.3984C35.1328 36.915 30.0739 16.3619 13.8123 9.64416C2.52288 23.1276 7.58173 43.6807 23.8434 50.3984Z" fill="#E4EA80"/>
<path d="M26.7621 51.919C33.9592 35.8791 23.4999 17.472 6.02271 15.4201C-1.17435 31.4601 9.28491 49.8671 26.7621 51.919Z" fill="#E4EA80"/>
<path fill-rule="evenodd" clip-rule="evenodd" d="M33.8174 51.6901H32.7621C25.2268 51.6901 19.1182 45.6308 19.1182 38.1562C19.1182 35.6348 20.0831 33.0282 20.7408 31.2516C20.8323 31.0044 20.9178 30.7733 20.994 30.5607C21.2745 29.7778 20.9422 28.9977 20.2711 28.5056L17.9399 26.7962L21.9656 25.7174L24.0275 24.7367C25.893 24.0502 26.9331 23.854 28.5434 23.854C31.1188 23.854 33.4628 25.3283 34.5612 27.639L43.5023 47.0699C40.7526 49.364 37.4442 50.986 33.8174 51.6901Z" fill="#F7EEE0"/>
<path fill-rule="evenodd" clip-rule="evenodd" d="M33.8703 51.6434H32.8148C25.2795 51.6434 19.1709 45.5841 19.1709 38.1095C19.1709 36.6007 19.5165 35.0613 19.9349 33.6875C29.1274 34.537 36.5872 41.3569 38.3913 50.2287C36.9573 50.8597 35.4438 51.3379 33.8703 51.6434Z" fill="#F8BA88"/>
<path fill-rule="evenodd" clip-rule="evenodd" d="M28.4572 9.10231C25.3056 9.25319 22.3387 10.1001 19.7052 11.4923C23.5638 14.2257 26.5178 17.8373 28.4572 21.89L28.4572 9.10231ZM29.4764 6.61963C25.0397 6.61963 20.8884 7.85512 17.3526 10.0008C16.3764 9.4495 15.3525 8.9501 14.2825 8.50806L13.4477 8.16322L12.8682 8.85537C11.3295 10.6931 10.0794 12.6588 9.1075 14.704C8.15027 14.4864 7.16923 14.3171 6.16622 14.1993L5.26906 14.094L4.8996 14.9174C-2.50242 31.4141 7.92972 50.3018 25.6428 53.0081L25.6416 53.0152C26.8901 53.221 28.1712 53.328 29.4764 53.328C30.9723 53.328 32.4354 53.1876 33.8532 52.9195H33.9355L34.0518 52.8969C36.0493 52.5091 37.9545 51.8583 39.7318 50.9819L39.7942 50.9544L39.7936 50.9513C40.4974 50.6016 41.181 50.2164 41.8422 49.7981C48.4568 45.673 52.8576 38.3367 52.8576 29.9738C52.8576 17.0756 42.3895 6.61963 29.4764 6.61963ZM39.2307 48.4639C39.6881 48.2227 40.1354 47.9651 40.5719 47.6918C41.0555 47.384 41.5258 47.0562 41.9817 46.7095L33.446 28.1598C32.5517 26.2848 30.6443 25.0834 28.543 25.0834C27.117 25.0834 26.2251 25.2413 24.5048 25.871L22.3927 26.8756L20.7335 27.3203L20.999 27.515C22.0076 28.2546 22.6553 29.5713 22.1522 30.9751C22.0739 31.1937 21.9865 31.4298 21.8961 31.674L21.8946 31.6781C21.7802 31.987 21.6599 32.313 21.539 32.6526C30.0642 34.03 36.9489 40.2878 39.2307 48.4639ZM50.3964 29.9738C50.3964 35.9107 47.9177 41.2693 43.9375 45.0734L41.5393 39.8616L50.3867 29.3303C50.3932 29.544 50.3964 29.7585 50.3964 29.9738ZM50.0098 25.9545L40.4023 37.3906L38.1179 32.4262L44.3618 15.2914C47.1967 18.1587 49.2074 21.8409 50.0098 25.9545ZM42.3849 13.5291L36.6563 29.2498L35.6757 27.1189L35.6725 27.112C34.7192 25.1066 32.9772 23.6348 30.9183 22.9886L30.9183 9.12682C35.2302 9.42001 39.1833 11.0182 42.3849 13.5291ZM15.6805 11.887C20.4382 14.4439 23.9946 18.3297 26.1766 22.8256C25.4312 22.9681 24.6646 23.1965 23.7167 23.5414C21.8636 21.3707 19.662 19.4779 17.1695 17.963L15.6805 11.887ZM8.70954 17.1352C13.7939 18.3235 18.1255 21.0085 21.3753 24.603L15.1457 26.2724L19.5425 29.4966C19.7092 29.6188 19.7975 29.7503 19.8356 29.8526C19.8697 29.9444 19.8744 30.0367 19.835 30.1467C19.7614 30.352 19.6782 30.5768 19.5862 30.8255L19.5617 30.8916C19.2254 31.7998 18.7859 32.9868 18.4415 34.3027L8.70954 17.1352ZM24.2057 50.2339C20.8595 47.8948 18.5276 44.2201 18.0004 39.9871H9.25297C12.6371 44.9823 17.839 48.781 24.2057 50.2339ZM14.26 16.4299C13.3749 16.0306 12.4608 15.6759 11.5199 15.3693C12.0253 14.3524 12.608 13.3571 13.2701 12.3908L14.26 16.4299ZM17.442 37.5287H7.7847C6.25255 34.5956 5.29889 31.3569 5.03161 28.0026L12.0418 28.0026L17.442 37.5287ZM10.6482 25.5443L6.33982 17.9443C5.45856 20.4642 5.01323 23.0234 4.95981 25.5443L10.6482 25.5443ZM28.4 29.5391C28.4 30.3876 27.7113 31.0755 26.8617 31.0755C26.0122 31.0755 25.3235 30.3876 25.3235 29.5391C25.3235 28.6905 26.0122 28.0026 26.8617 28.0026C27.7113 28.0026 28.4 28.6905 28.4 29.5391ZM20.4011 38.1095C20.4011 37.1022 20.5765 36.0538 20.8356 35.0319C28.6743 36.1702 35.0109 41.9492 36.9578 49.4884C35.925 49.8821 34.8531 50.1933 33.7497 50.4143H32.8144C25.9507 50.4143 20.4011 44.8972 20.4011 38.1095Z" fill="#243B4A"/>
</g>
<path fill-rule="evenodd" clip-rule="evenodd" d="M116.861 30.1613V27.0333H111.408L110.93 26.062L117.009 18.6372H117.685V26.2102H119.694V27.0333H117.685V30.1613H116.861ZM116.861 20.0074V26.2102H111.784L116.861 20.0074ZM142.937 30.1613V23.3763H141.216V21.5035H142.937V19.3021H144.972V21.5035H146.874V23.3763H144.972V30.1613H142.937ZM135.019 30.2721C134.3 30.2721 133.648 30.0755 133.062 29.6824C132.475 29.2893 132.005 28.7543 131.652 28.0773C131.298 27.4003 131.121 26.6305 131.121 25.7679C131.121 24.9053 131.298 24.1355 131.652 23.4586C132.005 22.7816 132.487 22.252 133.095 21.8698C133.703 21.4877 134.389 21.2966 135.152 21.2966C135.594 21.2966 135.998 21.3621 136.363 21.4931C136.728 21.6132 137.048 21.7879 137.325 22.0172C137.568 22.2188 137.773 22.4457 137.939 22.6979V21.4767H139.996V30.1083H137.922V28.8969C137.731 29.1436 137.493 29.3672 137.209 29.5678C136.91 29.7752 136.573 29.9445 136.197 30.0755C135.832 30.2065 135.439 30.2721 135.019 30.2721ZM135.583 28.4868C136.059 28.4868 136.479 28.3721 136.844 28.1428C137.209 27.9135 137.491 27.5969 137.69 27.1929C137.9 26.778 138.005 26.303 138.005 25.7679C138.005 25.2438 137.9 24.7798 137.69 24.3758C137.491 23.9717 137.209 23.6551 136.844 23.4258C136.479 23.1965 136.059 23.0818 135.583 23.0818C135.108 23.0818 134.687 23.1965 134.322 23.4258C133.968 23.6551 133.692 23.9717 133.493 24.3758C133.294 24.7798 133.194 25.2438 133.194 25.7679C133.194 26.303 133.294 26.778 133.493 27.1929C133.692 27.5969 133.968 27.9135 134.322 28.1428C134.687 28.3721 135.108 28.4868 135.583 28.4868ZM122.024 21.4778V30.1612H122.486H123.046H124.052V24.9215C124.052 24.6579 124.101 24.4162 124.2 24.1965C124.31 23.9768 124.453 23.7846 124.629 23.6198C124.816 23.4441 125.03 23.3123 125.272 23.2244C125.525 23.1255 125.8 23.0761 126.096 23.0761C126.459 23.0651 126.767 23.131 127.02 23.2738C127.273 23.4056 127.459 23.6198 127.58 23.9164C127.701 24.202 127.762 24.5645 127.762 25.0039V30.1612H129.79V24.8556C129.79 24.0647 129.674 23.4056 129.443 22.8784C129.224 22.3511 128.888 21.9557 128.438 21.692C127.998 21.4284 127.448 21.2966 126.789 21.2966C126.327 21.2966 125.877 21.3954 125.437 21.5932C124.997 21.7909 124.618 22.0545 124.299 22.3841C124.197 22.4861 124.106 22.592 124.025 22.7019L124.003 21.4778H122.024ZM102.269 29.6999C102.973 30.0814 103.782 30.2721 104.695 30.2721C105.102 30.2721 105.514 30.2176 105.932 30.1086C106.35 29.9996 106.746 29.8525 107.12 29.6672C107.505 29.471 107.846 29.2367 108.143 28.9642L107.136 27.5745C106.74 27.9124 106.372 28.1468 106.031 28.2775C105.69 28.4083 105.316 28.4737 104.909 28.4737C104.326 28.4737 103.815 28.3647 103.375 28.1468C102.946 27.9179 102.61 27.5963 102.368 27.1822C102.213 26.9036 102.11 26.593 102.059 26.2503H108.473L108.489 25.5473C108.5 24.9369 108.407 24.3756 108.209 23.8634C108.022 23.3402 107.747 22.8933 107.384 22.5228C107.021 22.1413 106.592 21.8416 106.097 21.6236C105.602 21.4056 105.069 21.2966 104.497 21.2966C103.848 21.2966 103.248 21.4111 102.698 21.6399C102.159 21.8579 101.692 22.174 101.296 22.5882C100.911 22.9914 100.609 23.471 100.389 24.0269C100.169 24.5827 100.059 25.1985 100.059 25.8743C100.059 26.7244 100.251 27.4819 100.636 28.1468C101.032 28.8007 101.577 29.3184 102.269 29.6999ZM102.104 24.877C102.15 24.6601 102.216 24.4639 102.302 24.2884C102.489 23.8961 102.764 23.5963 103.127 23.3893C103.501 23.1822 103.958 23.0786 104.497 23.0786C104.849 23.0786 105.168 23.1549 105.453 23.3075C105.75 23.4492 105.992 23.6508 106.179 23.9124C106.366 24.1631 106.476 24.4574 106.509 24.7953V24.877H102.104ZM94.4007 30.1613V21.4779H96.4201L96.438 22.9608C96.5402 22.7752 96.6622 22.5995 96.804 22.4335C97.1044 22.082 97.4493 21.8074 97.8387 21.6097C98.2393 21.401 98.6565 21.2966 99.0905 21.2966C99.2796 21.2966 99.4576 21.3131 99.6245 21.346C99.8026 21.379 99.9472 21.4174 100.058 21.4614L99.5077 23.6858C99.3853 23.6199 99.2351 23.565 99.0571 23.521C98.8791 23.4771 98.701 23.4551 98.523 23.4551C98.2449 23.4551 97.9778 23.51 97.7219 23.6199C97.4771 23.7187 97.2602 23.8615 97.071 24.0483C96.8819 24.235 96.7317 24.4547 96.6204 24.7074C96.5203 24.949 96.4702 25.2237 96.4702 25.5312V30.1613H94.4007ZM86.1701 29.6988C86.8478 30.081 87.6185 30.2721 88.4821 30.2721C89.3348 30.2721 90.1 30.081 90.7778 29.6988C91.4555 29.3058 91.9857 28.7707 92.3683 28.0937C92.7619 27.4168 92.9587 26.647 92.9587 25.7844C92.9587 24.9217 92.7619 24.152 92.3683 23.475C91.9857 22.798 91.4555 22.2684 90.7778 21.8862C90.1 21.4932 89.3348 21.2966 88.4821 21.2966C87.6185 21.2966 86.8478 21.4932 86.1701 21.8862C85.4923 22.2684 84.9566 22.798 84.5631 23.475C84.1696 24.152 83.9728 24.9217 83.9728 25.7844C83.9728 26.647 84.1696 27.4168 84.5631 28.0937C84.9566 28.7707 85.4923 29.3058 86.1701 29.6988ZM89.7283 28.1265C89.3676 28.3667 88.9522 28.4868 88.4821 28.4868C88.0121 28.4868 87.5857 28.3667 87.2031 28.1265C86.8314 27.8863 86.5417 27.5642 86.334 27.1602C86.1263 26.7562 86.0225 26.2976 86.0225 25.7844C86.0225 25.2712 86.1263 24.8126 86.334 24.4086C86.5417 23.9936 86.8314 23.6715 87.2031 23.4422C87.5857 23.202 88.0121 23.0819 88.4821 23.0819C88.9522 23.0819 89.3676 23.202 89.7283 23.4422C90.1 23.6715 90.3897 23.9882 90.5974 24.3922C90.816 24.7962 90.9199 25.2602 90.909 25.7844C90.9199 26.2976 90.816 26.7562 90.5974 27.1602C90.3897 27.5642 90.1 27.8863 89.7283 28.1265ZM69.3291 30.1613V21.4455H71.3233L71.347 22.7022C71.3861 22.6461 71.4276 22.591 71.4717 22.537C71.6694 22.2834 71.9057 22.0684 72.1804 21.892C72.455 21.7046 72.7462 21.5612 73.0539 21.462C73.3615 21.3517 73.6747 21.2966 73.9933 21.2966C74.4658 21.2966 74.8833 21.3738 75.2459 21.5282C75.6194 21.6715 75.9271 21.903 76.1688 22.2228C76.3435 22.4438 76.4867 22.707 76.5984 23.0124C76.7146 22.7891 76.8681 22.5865 77.0588 22.4047C77.2786 22.1842 77.5258 21.9912 77.8005 21.8259C78.0751 21.6494 78.3608 21.5171 78.6575 21.4289C78.9651 21.3407 79.2673 21.2966 79.564 21.2966C80.2232 21.2966 80.7726 21.4289 81.2121 21.6935C81.6516 21.9582 81.9812 22.3606 82.201 22.9009C82.4207 23.4411 82.5306 24.1082 82.5306 24.902V30.1613H80.4869V25.0343C80.4869 24.5933 80.4265 24.2295 80.3056 23.9428C80.1957 23.6561 80.0199 23.4466 79.7782 23.3143C79.5475 23.171 79.2563 23.0993 78.9047 23.0993C78.63 23.0993 78.3663 23.1489 78.1136 23.2482C77.8719 23.3364 77.6631 23.4687 77.4873 23.6451C77.3115 23.8105 77.1742 24.0034 77.0753 24.2239C76.9764 24.4445 76.927 24.687 76.927 24.9516V30.1613H74.8833V25.0178C74.8833 24.5988 74.8228 24.2515 74.702 23.9759C74.5811 23.6892 74.4053 23.4742 74.1746 23.3309C73.9438 23.1765 73.6637 23.0993 73.334 23.0993C73.0594 23.0993 72.8011 23.1489 72.5594 23.2482C72.3177 23.3364 72.1089 23.4632 71.9331 23.6286C71.7573 23.7939 71.62 23.9869 71.5211 24.2074C71.4222 24.4279 71.3728 24.6705 71.3728 24.9351V30.1613H69.3291ZM165.836 29.6998C166.54 30.0813 167.348 30.2721 168.261 30.2721C168.668 30.2721 169.081 30.2176 169.499 30.1086C169.916 29.9996 170.312 29.8524 170.686 29.6671C171.071 29.471 171.412 29.2366 171.709 28.9642L170.703 27.5745C170.307 27.9124 169.938 28.1467 169.598 28.2775C169.257 28.4083 168.883 28.4737 168.476 28.4737C167.893 28.4737 167.381 28.3647 166.941 28.1467C166.512 27.9178 166.177 27.5963 165.935 27.1821C165.78 26.9036 165.677 26.5929 165.626 26.2503H172.039L172.056 25.5473C172.067 24.9369 171.973 24.3756 171.775 23.8633C171.588 23.3402 171.313 22.8933 170.95 22.5227C170.587 22.1413 170.158 21.8415 169.664 21.6235C169.169 21.4056 168.635 21.2966 168.063 21.2966C167.414 21.2966 166.815 21.411 166.265 21.6399C165.726 21.8579 165.259 22.174 164.863 22.5881C164.478 22.9914 164.175 23.471 163.955 24.0268C163.735 24.5827 163.625 25.1985 163.625 25.8742C163.625 26.7244 163.818 27.4819 164.203 28.1467C164.599 28.8007 165.143 29.3184 165.836 29.6998ZM165.67 24.877C165.717 24.66 165.783 24.4638 165.869 24.2884C166.056 23.896 166.331 23.5963 166.694 23.3892C167.068 23.1821 167.524 23.0786 168.063 23.0786C168.415 23.0786 168.734 23.1549 169.02 23.3075C169.317 23.4492 169.559 23.6508 169.746 23.9124C169.933 24.1631 170.043 24.4573 170.076 24.7952V24.877H165.67ZM157.857 30.1612V21.4778H159.876L159.894 22.9608C159.996 22.7752 160.118 22.5995 160.26 22.4335C160.56 22.082 160.905 21.8074 161.295 21.6096C161.695 21.4009 162.112 21.2966 162.546 21.2966C162.736 21.2966 162.914 21.3131 163.08 21.346C163.258 21.379 163.403 21.4174 163.514 21.4613L162.964 23.6858C162.841 23.6198 162.691 23.5649 162.513 23.521C162.335 23.477 162.157 23.4551 161.979 23.4551C161.701 23.4551 161.434 23.51 161.178 23.6198C160.933 23.7187 160.716 23.8615 160.527 24.0482C160.338 24.235 160.188 24.4547 160.076 24.7073C159.976 24.949 159.926 25.2236 159.926 25.5312V30.1612H157.857ZM149.406 29.8646C149.87 30.1363 150.416 30.2721 151.044 30.2721C151.53 30.2721 151.988 30.1797 152.418 29.995C152.848 29.7994 153.218 29.544 153.526 29.2288C153.648 29.1049 153.756 28.9748 153.851 28.8384L153.874 30.1091H155.86V21.5182H153.824V26.6695C153.824 26.9412 153.775 27.1966 153.675 27.4357C153.576 27.6639 153.438 27.8649 153.262 28.0388C153.085 28.2018 152.876 28.3322 152.633 28.43C152.401 28.517 152.142 28.5604 151.855 28.5604C151.469 28.5604 151.138 28.4735 150.862 28.2996C150.587 28.1257 150.377 27.8812 150.234 27.5661C150.09 27.24 150.018 26.8488 150.018 26.3924V21.5182H147.983V26.8162C147.983 27.5335 148.104 28.1529 148.347 28.6746C148.59 29.1853 148.943 29.582 149.406 29.8646Z" fill="#243B4A"/>
<path fill-rule="evenodd" clip-rule="evenodd" d="M77.9827 40.5919C77.9827 40.6603 77.9941 40.7144 78.0169 40.7543C78.0455 40.7885 78.0797 40.8056 78.1197 40.8056C78.1824 40.8056 78.2452 40.7885 78.308 40.7543C78.3765 40.7144 78.4592 40.6489 78.5562 40.5577L78.6675 40.78C78.5819 40.8997 78.4507 41.0251 78.2737 41.1562C78.0968 41.2873 77.8885 41.3529 77.6488 41.3529C77.4491 41.3529 77.295 41.3073 77.1865 41.2161C77.0838 41.1249 77.041 40.9909 77.0581 40.8142C77.0867 40.5634 77.1609 40.0247 77.2807 39.1981C77.4405 38.0922 77.5375 37.3996 77.5718 37.1203L77.041 36.9151L77.1009 36.6158L78.3679 36.4191L78.5648 36.5132L77.9912 40.5064L77.9827 40.5919ZM78.2224 35.5127C78.0911 35.5127 77.977 35.4643 77.88 35.3674C77.7886 35.2705 77.743 35.1536 77.743 35.0168C77.743 34.8401 77.8029 34.689 77.9228 34.5636C78.0483 34.4382 78.1938 34.3755 78.3594 34.3755C78.5134 34.3755 78.6333 34.4239 78.7189 34.5209C78.8045 34.6121 78.8473 34.7261 78.8473 34.8629C78.8416 35.0453 78.7817 35.1992 78.6675 35.3246C78.5534 35.45 78.405 35.5127 78.2224 35.5127ZM83.9995 37.5649C84.2278 37.2286 84.4989 36.9521 84.8128 36.7355C85.1324 36.5189 85.4577 36.4106 85.7887 36.4106C86.114 36.4106 86.3623 36.5075 86.5335 36.7013C86.7104 36.8951 86.7989 37.2143 86.7989 37.659C86.7989 37.8642 86.7646 38.1521 86.6961 38.5226C86.6276 38.8874 86.5877 39.0983 86.5763 39.1553C86.5649 39.2466 86.5506 39.3292 86.5335 39.4033C86.5221 39.4717 86.5106 39.5316 86.4992 39.5829C86.4707 39.7596 86.4422 39.9392 86.4136 40.1216C86.3851 40.304 86.3708 40.4522 86.3708 40.5662C86.3708 40.7315 86.4136 40.8142 86.4992 40.8142C86.562 40.8142 86.6219 40.7971 86.679 40.7629C86.7418 40.7287 86.8245 40.666 86.9273 40.5748L87.0386 40.8056C86.9587 40.9196 86.8274 41.0394 86.6448 41.1648C86.4678 41.2902 86.2595 41.3529 86.0198 41.3529C85.803 41.3529 85.6489 41.3073 85.5576 41.2161C85.4663 41.1249 85.4206 40.9909 85.4206 40.8142C85.4206 40.6489 85.4663 40.3268 85.5576 39.848L85.6432 39.3862L85.6774 39.181C85.803 38.514 85.8657 38.0323 85.8657 37.7359C85.86 37.4737 85.8201 37.2941 85.7459 37.1972C85.6717 37.1003 85.549 37.0519 85.3778 37.0519C85.1495 37.0519 84.8955 37.1659 84.6159 37.3939C84.342 37.6219 84.108 37.8984 83.9139 38.2233L83.5201 41.2674H82.6298L83.4345 34.9911L82.938 34.8372L82.9979 34.5294L84.2135 34.3755L84.4019 34.4866L83.9995 37.5649ZM94.8699 40.5919C94.8699 40.6603 94.8813 40.7144 94.9041 40.7543C94.9326 40.7885 94.9669 40.8056 95.0068 40.8056C95.0696 40.8056 95.1324 40.7885 95.1952 40.7543C95.2636 40.7144 95.3464 40.6489 95.4434 40.5577L95.5547 40.78C95.4691 40.8997 95.3378 41.0251 95.1609 41.1562C94.984 41.2873 94.7757 41.3529 94.536 41.3529C94.3362 41.3529 94.1821 41.3073 94.0737 41.2161C93.971 41.1249 93.9282 40.9909 93.9453 40.8142C93.9738 40.5634 94.048 40.0247 94.1679 39.1981C94.3277 38.0922 94.4247 37.3996 94.4589 37.1203L93.9282 36.9151L93.9881 36.6158L95.2551 36.4191L95.452 36.5132L94.8784 40.5064L94.8699 40.5919ZM95.1095 35.5127C94.9783 35.5127 94.8641 35.4643 94.7671 35.3674C94.6758 35.2705 94.6302 35.1536 94.6302 35.0168C94.6302 34.8401 94.6901 34.689 94.8099 34.5636C94.9355 34.4382 95.081 34.3755 95.2465 34.3755C95.4006 34.3755 95.5205 34.4239 95.6061 34.5209C95.6917 34.6121 95.7345 34.7261 95.7345 34.8629C95.7288 35.0453 95.6688 35.1992 95.5547 35.3246C95.4406 35.45 95.2922 35.5127 95.1095 35.5127ZM100.63 40.5919C100.63 40.6603 100.641 40.7144 100.664 40.7543C100.693 40.7885 100.727 40.8056 100.767 40.8056C100.83 40.8056 100.892 40.7885 100.955 40.7543C101.024 40.7144 101.106 40.6489 101.203 40.5577L101.315 40.78C101.229 40.8997 101.098 41.0251 100.921 41.1562C100.744 41.2873 100.536 41.3529 100.296 41.3529C100.096 41.3529 99.9422 41.3073 99.8337 41.2161C99.731 41.1249 99.6882 40.9909 99.7053 40.8142C99.7339 40.5634 99.8081 40.0247 99.9279 39.1981C100.088 38.0922 100.185 37.3996 100.219 37.1203L99.6882 36.9151L99.7481 36.6158L101.015 36.4191L101.212 36.5132L100.638 40.5064L100.63 40.5919ZM100.87 35.5127C100.738 35.5127 100.624 35.4643 100.527 35.3674C100.436 35.2705 100.39 35.1536 100.39 35.0168C100.39 34.8401 100.45 34.689 100.57 34.5636C100.696 34.4382 100.841 34.3755 101.007 34.3755C101.161 34.3755 101.28 34.4239 101.366 34.5209C101.452 34.6121 101.495 34.7261 101.495 34.8629C101.489 35.0453 101.429 35.1992 101.315 35.3246C101.201 35.45 101.052 35.5127 100.87 35.5127ZM126.889 40.5919C126.889 40.6603 126.9 40.7144 126.923 40.7543C126.951 40.7885 126.986 40.8056 127.026 40.8056C127.088 40.8056 127.151 40.7885 127.214 40.7543C127.282 40.7144 127.365 40.6489 127.462 40.5577L127.573 40.78C127.488 40.8997 127.357 41.0251 127.18 41.1562C127.003 41.2873 126.794 41.3529 126.555 41.3529C126.355 41.3529 126.201 41.3073 126.092 41.2161C125.99 41.1249 125.947 40.9909 125.964 40.8142C125.993 40.5634 126.067 40.0247 126.187 39.1981C126.346 38.0922 126.443 37.3996 126.478 37.1203L125.947 36.9151L126.007 36.6158L127.274 36.4191L127.471 36.5132L126.897 40.5064L126.889 40.5919ZM127.128 35.5127C126.997 35.5127 126.883 35.4643 126.786 35.3674C126.695 35.2705 126.649 35.1536 126.649 35.0168C126.649 34.8401 126.709 34.689 126.829 34.5636C126.954 34.4382 127.1 34.3755 127.265 34.3755C127.419 34.3755 127.539 34.4239 127.625 34.5209C127.71 34.6121 127.753 34.7261 127.753 34.8629C127.748 35.0453 127.688 35.1992 127.573 35.3246C127.459 35.45 127.311 35.5127 127.128 35.5127ZM131.198 41.0707C131.529 40.8769 131.769 40.6688 131.917 40.4465L131.72 40.113C131.52 40.324 131.298 40.4921 131.052 40.6175C130.813 40.7373 130.564 40.7971 130.308 40.7971C129.965 40.7971 129.714 40.6546 129.554 40.3696C129.4 40.0845 129.335 39.7397 129.357 39.3349C129.711 39.3292 130.108 39.258 130.547 39.1212C130.987 38.9844 131.366 38.7791 131.686 38.5055C132.005 38.2262 132.165 37.8813 132.165 37.4709C132.165 37.1516 132.06 36.8951 131.849 36.7013C131.643 36.5075 131.335 36.4106 130.924 36.4106C130.456 36.4106 130.028 36.5502 129.64 36.8296C129.252 37.1089 128.946 37.488 128.724 37.9668C128.501 38.44 128.39 38.953 128.39 39.5059C128.39 39.8309 128.45 40.1359 128.57 40.4209C128.69 40.7002 128.878 40.9282 129.135 41.1049C129.392 41.2759 129.714 41.3615 130.102 41.3615C130.507 41.3615 130.873 41.2645 131.198 41.0707ZM130.034 37.1887C130.233 36.9778 130.462 36.8723 130.719 36.8723C130.895 36.8723 131.032 36.9293 131.129 37.0433C131.226 37.1573 131.275 37.3227 131.275 37.5393C131.275 37.8072 131.175 38.0466 130.975 38.2575C130.776 38.4628 130.524 38.6224 130.222 38.7364C129.925 38.8447 129.64 38.9045 129.366 38.9159C129.389 38.6081 129.457 38.2974 129.571 37.9839C129.686 37.6647 129.84 37.3996 130.034 37.1887ZM134.353 37.5136C134.587 37.1887 134.858 36.9236 135.167 36.7184C135.475 36.5132 135.791 36.4106 136.117 36.4106C136.442 36.4106 136.69 36.5075 136.862 36.7013C137.038 36.8951 137.127 37.2115 137.127 37.6504C137.127 37.8614 137.073 38.2604 136.964 38.8475L136.913 39.1554L136.87 39.4033C136.767 39.8993 136.713 40.2755 136.707 40.532V40.5833C136.707 40.7316 136.745 40.8057 136.819 40.8057C136.933 40.8057 137.067 40.7373 137.221 40.6004L137.332 40.8313C137.264 40.9282 137.138 41.0394 136.956 41.1648C136.773 41.2902 136.565 41.3529 136.331 41.3529C135.948 41.3529 135.757 41.1733 135.757 40.8142C135.757 40.6375 135.811 40.267 135.92 39.7026L135.98 39.3862L136.014 39.181C136.14 38.5141 136.202 38.0324 136.202 37.7359C136.197 37.4737 136.157 37.2942 136.082 37.1973C136.008 37.1003 135.88 37.0519 135.697 37.0519C135.48 37.0519 135.235 37.163 134.961 37.3854C134.693 37.602 134.462 37.8699 134.268 38.1891L133.857 41.2674H132.975L133.523 37.1459L133.095 36.9322L133.163 36.6073L134.276 36.4106L134.456 36.5046L134.353 37.5136ZM140.423 36.9664C140.611 36.9664 140.868 37.1288 141.194 37.4538L141.365 37.4965L141.604 36.5987C141.485 36.5417 141.333 36.4961 141.151 36.4619C140.968 36.4277 140.794 36.4106 140.629 36.4106C140.104 36.4106 139.647 36.5645 139.259 36.8723C138.877 37.1745 138.585 37.5592 138.386 38.0267C138.192 38.4884 138.095 38.953 138.095 39.4204C138.095 40.0304 138.232 40.5064 138.506 40.8484C138.779 41.1847 139.159 41.3529 139.644 41.3529C140.026 41.3529 140.36 41.2702 140.646 41.1049C140.931 40.9396 141.145 40.7601 141.288 40.5662L141.108 40.2413C140.914 40.418 140.731 40.5491 140.56 40.6346C140.389 40.7202 140.183 40.7629 139.944 40.7629C139.339 40.7629 139.036 40.2784 139.036 39.3093C139.036 38.8532 139.096 38.4485 139.216 38.0951C139.336 37.7416 139.501 37.4652 139.713 37.2657C139.924 37.0661 140.161 36.9664 140.423 36.9664ZM144.783 41.0707C145.114 40.8769 145.354 40.6688 145.502 40.4465L145.305 40.113C145.105 40.324 144.883 40.4921 144.637 40.6175C144.398 40.7373 144.149 40.7971 143.893 40.7971C143.55 40.7971 143.299 40.6546 143.139 40.3696C142.985 40.0845 142.92 39.7397 142.942 39.3349C143.296 39.3292 143.693 39.258 144.132 39.1212C144.572 38.9844 144.951 38.7791 145.271 38.5055C145.59 38.2262 145.75 37.8813 145.75 37.4709C145.75 37.1516 145.645 36.8951 145.434 36.7013C145.228 36.5075 144.92 36.4106 144.509 36.4106C144.041 36.4106 143.613 36.5502 143.225 36.8296C142.837 37.1089 142.531 37.488 142.309 37.9668C142.086 38.44 141.975 38.953 141.975 39.5059C141.975 39.8309 142.035 40.1359 142.155 40.4209C142.275 40.7002 142.463 40.9282 142.72 41.1049C142.977 41.2759 143.299 41.3615 143.687 41.3615C144.092 41.3615 144.458 41.2645 144.783 41.0707ZM143.619 37.1887C143.818 36.9778 144.047 36.8723 144.303 36.8723C144.48 36.8723 144.617 36.9293 144.714 37.0433C144.811 37.1573 144.86 37.3227 144.86 37.5393C144.86 37.8072 144.76 38.0466 144.56 38.2575C144.361 38.4628 144.109 38.6224 143.807 38.7364C143.51 38.8447 143.225 38.9045 142.951 38.9159C142.974 38.6081 143.042 38.2974 143.156 37.9839C143.271 37.6647 143.425 37.3996 143.619 37.1887ZM124.13 36.9664C124.318 36.9664 124.575 37.1288 124.9 37.4538L125.071 37.4965L125.311 36.5987C125.191 36.5417 125.04 36.4961 124.857 36.4619C124.675 36.4277 124.5 36.4106 124.335 36.4106C123.81 36.4106 123.353 36.5645 122.965 36.8723C122.583 37.1745 122.292 37.5592 122.092 38.0267C121.898 38.4884 121.801 38.953 121.801 39.4204C121.801 40.0304 121.938 40.5064 122.212 40.8484C122.486 41.1847 122.865 41.3529 123.351 41.3529C123.733 41.3529 124.067 41.2702 124.352 41.1049C124.637 40.9396 124.851 40.7601 124.994 40.5662L124.814 40.2413C124.62 40.418 124.438 40.5491 124.266 40.6346C124.095 40.7202 123.89 40.7629 123.65 40.7629C123.045 40.7629 122.743 40.2784 122.743 39.3093C122.743 38.8532 122.803 38.4485 122.922 38.0951C123.042 37.7416 123.208 37.4652 123.419 37.2657C123.63 37.0661 123.867 36.9664 124.13 36.9664ZM121.11 37.2486C121.058 37.1802 120.944 37.106 120.767 37.0262C120.596 36.9464 120.399 36.9065 120.177 36.9065C119.92 36.9065 119.714 36.9635 119.56 37.0775C119.406 37.1859 119.329 37.3455 119.329 37.5564C119.329 37.7388 119.392 37.907 119.517 38.0609C119.643 38.2091 119.828 38.3716 120.074 38.5483C120.274 38.6965 120.436 38.8304 120.562 38.9502C120.687 39.0642 120.796 39.2095 120.887 39.3862C120.978 39.5573 121.024 39.7511 121.024 39.9677C121.024 40.2641 120.944 40.5178 120.784 40.7287C120.625 40.9339 120.408 41.0907 120.134 41.199C119.866 41.3016 119.572 41.3529 119.252 41.3529C118.995 41.3529 118.738 41.3244 118.482 41.2674C118.225 41.2104 118.056 41.1477 117.977 41.0793L118.122 40.4551C118.236 40.5463 118.399 40.6318 118.61 40.7116C118.821 40.7914 119.041 40.8313 119.269 40.8313C119.509 40.8313 119.714 40.78 119.886 40.6774C120.057 40.5748 120.142 40.4066 120.142 40.1729C120.142 39.9734 120.074 39.8024 119.937 39.6599C119.8 39.5173 119.597 39.352 119.329 39.1639C118.747 38.7592 118.456 38.2917 118.456 37.7616C118.456 37.4937 118.53 37.2571 118.678 37.0519C118.833 36.8467 119.041 36.6899 119.303 36.5816C119.566 36.4676 119.857 36.4106 120.177 36.4106C120.382 36.4106 120.59 36.4305 120.802 36.4704C121.018 36.5046 121.17 36.5388 121.255 36.573L121.11 37.2486ZM113.196 36.7184C112.888 36.9236 112.617 37.1887 112.383 37.5136L112.486 36.5046L112.306 36.4106L111.193 36.6073L111.125 36.9322L111.553 37.1459L111.005 41.2674H111.887L112.298 38.1891C112.492 37.8699 112.723 37.602 112.991 37.3854C113.265 37.163 113.51 37.0519 113.727 37.0519C113.91 37.0519 114.038 37.1003 114.112 37.1973C114.187 37.2942 114.227 37.4737 114.232 37.7359C114.232 38.0324 114.17 38.5141 114.044 39.181L114.01 39.3862L113.95 39.7026C113.841 40.267 113.787 40.6375 113.787 40.8142C113.787 41.1733 113.978 41.3529 114.361 41.3529C114.595 41.3529 114.803 41.2902 114.986 41.1648C115.168 41.0394 115.294 40.9282 115.362 40.8313L115.251 40.6004C115.097 40.7373 114.963 40.8057 114.849 40.8057C114.774 40.8057 114.737 40.7316 114.737 40.5833V40.532C114.743 40.2755 114.797 39.8993 114.9 39.4033L114.943 39.1554L114.994 38.8475C115.103 38.2604 115.157 37.8614 115.157 37.6504C115.157 37.2115 115.068 36.8951 114.891 36.7013C114.72 36.5075 114.472 36.4106 114.147 36.4106C113.821 36.4106 113.505 36.5132 113.196 36.7184ZM109.947 40.4465C109.799 40.6688 109.559 40.8769 109.228 41.0707C108.903 41.2645 108.537 41.3615 108.132 41.3615C107.744 41.3615 107.422 41.2759 107.165 41.1049C106.908 40.9282 106.72 40.7002 106.6 40.4209C106.48 40.1359 106.42 39.8309 106.42 39.5059C106.42 38.953 106.531 38.44 106.754 37.9668C106.976 37.488 107.282 37.1089 107.67 36.8296C108.058 36.5502 108.486 36.4106 108.954 36.4106C109.365 36.4106 109.673 36.5075 109.878 36.7013C110.09 36.8951 110.195 37.1516 110.195 37.4709C110.195 37.8813 110.035 38.2262 109.716 38.5055C109.396 38.7791 109.017 38.9844 108.577 39.1212C108.138 39.258 107.741 39.3292 107.387 39.3349C107.365 39.7397 107.43 40.0845 107.584 40.3696C107.744 40.6546 107.995 40.7971 108.338 40.7971C108.594 40.7971 108.843 40.7373 109.082 40.6175C109.328 40.4921 109.55 40.324 109.75 40.113L109.947 40.4465ZM108.748 36.8723C108.492 36.8723 108.263 36.9778 108.064 37.1887C107.87 37.3996 107.716 37.6647 107.601 37.9839C107.487 38.2974 107.419 38.6081 107.396 38.9159C107.67 38.9045 107.955 38.8447 108.252 38.7364C108.554 38.6224 108.806 38.4628 109.005 38.2575C109.205 38.0466 109.305 37.8072 109.305 37.5393C109.305 37.3227 109.256 37.1573 109.159 37.0433C109.062 36.9293 108.925 36.8723 108.748 36.8723ZM103.279 37.2229C103.364 37.2172 103.744 37.2201 104.417 37.2315L105.068 37.24L104.537 37.7616L101.772 41.1306L102.003 41.3615C102.117 41.2646 102.257 41.2161 102.422 41.2161C102.565 41.2161 102.933 41.2389 103.527 41.2845C104.274 41.3358 104.728 41.3615 104.888 41.3615C105.071 41.3615 105.213 41.333 105.316 41.276C105.442 41.1904 105.527 41.0052 105.573 40.7202C105.624 40.4351 105.653 40.1273 105.658 39.7967H105.35C105.287 40.3097 105.039 40.5662 104.605 40.5662L102.893 40.5406L103.861 39.5402L106.121 36.6415L105.924 36.4277C105.815 36.5132 105.675 36.556 105.504 36.556C105.39 36.556 105.208 36.5474 104.956 36.5303C104.711 36.5132 104.526 36.5018 104.4 36.4961C103.824 36.4448 103.387 36.4191 103.09 36.4191C102.913 36.4191 102.782 36.4505 102.696 36.5132C102.582 36.5702 102.5 36.727 102.448 36.9835C102.402 37.24 102.38 37.5079 102.38 37.7873L102.388 37.9925H102.696C102.708 37.7873 102.765 37.6105 102.868 37.4623C102.976 37.3084 103.113 37.2286 103.279 37.2229ZM97.5357 40.3866C97.5357 40.2327 97.5557 40.0247 97.5956 39.7624L97.9637 37.0604H99.0595L99.128 36.5217H98.0322L98.1777 35.3588H97.6983C97.4643 36.003 97.2846 36.3935 97.159 36.5303L96.6283 36.7098L96.5512 37.0604H97.0648L96.6796 39.9506C96.6397 40.2983 96.6197 40.5263 96.6197 40.6346C96.6197 40.8797 96.6853 41.0622 96.8166 41.1819C96.9536 41.2959 97.139 41.3529 97.373 41.3529C97.6584 41.3529 97.9352 41.2873 98.2034 41.1562C98.4716 41.0194 98.6685 40.8797 98.7941 40.7372L98.7085 40.4465C98.6172 40.5206 98.4888 40.5919 98.3233 40.6603C98.1635 40.7287 98.0236 40.7629 97.9038 40.7629C97.7668 40.7629 97.6698 40.7344 97.6127 40.6774C97.5614 40.6204 97.5357 40.5235 97.5357 40.3866ZM92.1108 36.9664C92.2991 36.9664 92.5559 37.1288 92.8812 37.4538L93.0525 37.4965L93.2922 36.5987C93.1723 36.5417 93.0211 36.4961 92.8384 36.4619C92.6558 36.4277 92.4817 36.4106 92.3162 36.4106C91.7912 36.4106 91.3346 36.5645 90.9465 36.8723C90.5642 37.1745 90.2731 37.5592 90.0734 38.0267C89.8793 38.4884 89.7823 38.953 89.7823 39.4204C89.7823 40.0304 89.9193 40.5064 90.1932 40.8484C90.4671 41.1847 90.8467 41.3529 91.3318 41.3529C91.7141 41.3529 92.048 41.2702 92.3334 41.1049C92.6187 40.9396 92.8327 40.7601 92.9754 40.5662L92.7956 40.2413C92.6016 40.418 92.419 40.5491 92.2478 40.6346C92.0765 40.7202 91.8711 40.7629 91.6314 40.7629C91.0264 40.7629 90.724 40.2784 90.724 39.3093C90.724 38.8532 90.7839 38.4485 90.9037 38.0951C91.0236 37.7416 91.1891 37.4652 91.4003 37.2657C91.6114 37.0661 91.8483 36.9664 92.1108 36.9664ZM80.6485 40.3866C80.6485 40.2327 80.6685 40.0247 80.7084 39.7624L81.0765 37.0604H82.1723L82.2408 36.5217H81.145L81.2906 35.3588H80.8112C80.5772 36.003 80.3974 36.3935 80.2718 36.5303L79.7411 36.7098L79.664 37.0604H80.1777L79.7925 39.9506C79.7525 40.2983 79.7325 40.5263 79.7325 40.6346C79.7325 40.8797 79.7982 41.0622 79.9294 41.1819C80.0664 41.2959 80.2519 41.3529 80.4859 41.3529C80.7712 41.3529 81.048 41.2873 81.3162 41.1562C81.5845 41.0194 81.7814 40.8797 81.9069 40.7372L81.8213 40.4465C81.73 40.5206 81.6016 40.5919 81.4361 40.6603C81.2763 40.7287 81.1365 40.7629 81.0166 40.7629C80.8797 40.7629 80.7826 40.7344 80.7256 40.6774C80.6742 40.6204 80.6485 40.5235 80.6485 40.3866ZM69.8427 37.0604C69.8713 37.1004 69.897 37.1688 69.9198 37.2657L70.3906 39.8736L70.6646 41.3529L71.4179 41.2931L72.0514 39.8736L72.8218 38.1891L73.0016 37.5991L73.0444 38.1806L73.2242 39.8736L73.4125 41.3444L74.1316 41.3016L74.8593 40.2242C75.2188 39.734 75.5441 39.2095 75.8352 38.6509C76.1319 38.0865 76.2803 37.6248 76.2803 37.2657C76.2689 36.7013 76.0863 36.4191 75.7324 36.4191C75.6012 36.4191 75.4927 36.4619 75.4071 36.5474C75.3272 36.6272 75.2873 36.7327 75.2873 36.8638C75.2873 36.9436 75.3073 37.049 75.3472 37.1802C75.3986 37.3569 75.4243 37.4937 75.4243 37.5906C75.4128 37.9725 75.3158 38.3801 75.1332 38.8133C74.9506 39.2466 74.7508 39.6257 74.534 39.9506L74.0974 40.5919L74.0289 39.8309L73.6779 36.4533H72.8646L71.5805 39.7197L71.2467 40.6004L71.1611 39.7796L70.8272 36.992C70.7987 36.7982 70.7388 36.6557 70.6474 36.5645C70.5618 36.4676 70.4163 36.4191 70.2108 36.4191C70.0168 36.4191 69.8342 36.4761 69.663 36.5902C69.4918 36.6985 69.3805 36.7925 69.3291 36.8723L69.4404 37.1289C69.5032 37.0833 69.5517 37.049 69.5859 37.0262C69.6259 37.0034 69.6715 36.992 69.7229 36.992C69.7743 36.992 69.8142 37.0148 69.8427 37.0604Z" fill="#243B4A"/>
<defs>
<clipPath id="clip0_5415_8084">
<rect width="59.0683" height="59" fill="white" transform="translate(0 0.5)"/>
</clipPath>
</defs>
</svg>
