<svg width="231" height="64" viewBox="0 0 231 64" fill="none" xmlns="http://www.w3.org/2000/svg">
<path fill-rule="evenodd" clip-rule="evenodd" d="M84.0113 46.8178C84.0113 46.9245 84.0291 47.009 84.0647 47.0712C84.1091 47.1245 84.1625 47.1512 84.2247 47.1512C84.3225 47.1512 84.4202 47.1245 84.518 47.0712C84.6247 47.009 84.7536 46.9067 84.9047 46.7645L85.078 47.1112C84.9447 47.2978 84.7402 47.4934 84.4647 47.6978C84.1891 47.9023 83.8647 48.0045 83.4913 48.0045C83.1802 48.0045 82.9402 47.9334 82.7713 47.7912C82.6113 47.649 82.5447 47.4401 82.5713 47.1645C82.6158 46.7734 82.7313 45.9334 82.918 44.6445C83.1669 42.9201 83.318 41.8401 83.3713 41.4045L82.5447 41.0845L82.638 40.6178L84.6113 40.3112L84.918 40.4578L84.0247 46.6845L84.0113 46.8178ZM84.3847 38.8978C84.1802 38.8978 84.0025 38.8223 83.8513 38.6712C83.7091 38.5201 83.638 38.3378 83.638 38.1245C83.638 37.849 83.7313 37.6134 83.918 37.4178C84.1136 37.2223 84.3402 37.1245 84.598 37.1245C84.838 37.1245 85.0247 37.2001 85.158 37.3512C85.2913 37.4934 85.358 37.6712 85.358 37.8845C85.3491 38.169 85.2558 38.409 85.078 38.6045C84.9002 38.8001 84.6691 38.8978 84.3847 38.8978ZM93.3826 42.0978C93.7382 41.5734 94.1604 41.1423 94.6493 40.8045C95.147 40.4667 95.6537 40.2978 96.1693 40.2978C96.6759 40.2978 97.0626 40.449 97.3293 40.7512C97.6048 41.0534 97.7426 41.5512 97.7426 42.2445C97.7426 42.5645 97.6893 43.0134 97.5826 43.5912C97.4759 44.1601 97.4137 44.489 97.3959 44.5778C97.3782 44.7201 97.3559 44.849 97.3293 44.9645C97.3115 45.0712 97.2937 45.1645 97.2759 45.2445C97.2315 45.5201 97.187 45.8001 97.1426 46.0845C97.0982 46.369 97.0759 46.6001 97.0759 46.7778C97.0759 47.0356 97.1426 47.1645 97.2759 47.1645C97.3737 47.1645 97.467 47.1378 97.5559 47.0845C97.6537 47.0312 97.7826 46.9334 97.9426 46.7912L98.1159 47.1512C97.9915 47.329 97.787 47.5156 97.5026 47.7112C97.227 47.9067 96.9026 48.0045 96.5293 48.0045C96.1915 48.0045 95.9515 47.9334 95.8093 47.7912C95.667 47.649 95.5959 47.4401 95.5959 47.1645C95.5959 46.9067 95.667 46.4045 95.8093 45.6578L95.9426 44.9378L95.9959 44.6178C96.1915 43.5778 96.2893 42.8267 96.2893 42.3645C96.2804 41.9556 96.2182 41.6756 96.1026 41.5245C95.987 41.3734 95.7959 41.2978 95.5293 41.2978C95.1737 41.2978 94.7782 41.4756 94.3426 41.8312C93.9159 42.1867 93.5515 42.6178 93.2493 43.1245L92.6359 47.8712H91.2493L92.5026 38.0845L91.7293 37.8445L91.8226 37.3645L93.7159 37.1245L94.0093 37.2978L93.3826 42.0978ZM110.313 46.8178C110.313 46.9245 110.331 47.009 110.367 47.0712C110.411 47.1245 110.464 47.1512 110.527 47.1512C110.624 47.1512 110.722 47.1245 110.82 47.0712C110.927 47.009 111.056 46.9067 111.207 46.7645L111.38 47.1112C111.247 47.2978 111.042 47.4934 110.767 47.6978C110.491 47.9023 110.167 48.0045 109.793 48.0045C109.482 48.0045 109.242 47.9334 109.073 47.7912C108.913 47.649 108.847 47.4401 108.873 47.1645C108.918 46.7734 109.033 45.9334 109.22 44.6445C109.469 42.9201 109.62 41.8401 109.673 41.4045L108.847 41.0845L108.94 40.6178L110.913 40.3112L111.22 40.4578L110.327 46.6845L110.313 46.8178ZM110.687 38.8978C110.482 38.8978 110.304 38.8223 110.153 38.6712C110.011 38.5201 109.94 38.3378 109.94 38.1245C109.94 37.849 110.033 37.6134 110.22 37.4178C110.416 37.2223 110.642 37.1245 110.9 37.1245C111.14 37.1245 111.327 37.2001 111.46 37.3512C111.593 37.4934 111.66 37.6712 111.66 37.8845C111.651 38.169 111.558 38.409 111.38 38.6045C111.202 38.8001 110.971 38.8978 110.687 38.8978ZM119.285 46.8178C119.285 46.9245 119.303 47.009 119.338 47.0712C119.383 47.1245 119.436 47.1512 119.498 47.1512C119.596 47.1512 119.694 47.1245 119.791 47.0712C119.898 47.009 120.027 46.9067 120.178 46.7645L120.351 47.1112C120.218 47.2978 120.014 47.4934 119.738 47.6978C119.463 47.9023 119.138 48.0045 118.765 48.0045C118.454 48.0045 118.214 47.9334 118.045 47.7912C117.885 47.649 117.818 47.4401 117.845 47.1645C117.889 46.7734 118.005 45.9334 118.191 44.6445C118.44 42.9201 118.591 41.8401 118.645 41.4045L117.818 41.0845L117.911 40.6178L119.885 40.3112L120.191 40.4578L119.298 46.6845L119.285 46.8178ZM119.658 38.8978C119.454 38.8978 119.276 38.8223 119.125 38.6712C118.983 38.5201 118.911 38.3378 118.911 38.1245C118.911 37.849 119.005 37.6134 119.191 37.4178C119.387 37.2223 119.614 37.1245 119.871 37.1245C120.111 37.1245 120.298 37.2001 120.431 37.3512C120.565 37.4934 120.631 37.6712 120.631 37.8845C120.623 38.169 120.529 38.409 120.351 38.6045C120.174 38.8001 119.943 38.8978 119.658 38.8978ZM160.183 46.8178C160.183 46.9245 160.201 47.009 160.237 47.0712C160.281 47.1245 160.334 47.1512 160.397 47.1512C160.494 47.1512 160.592 47.1245 160.69 47.0712C160.797 47.009 160.925 46.9067 161.077 46.7645L161.25 47.1112C161.117 47.2978 160.912 47.4934 160.637 47.6978C160.361 47.9023 160.037 48.0045 159.663 48.0045C159.352 48.0045 159.112 47.9334 158.943 47.7912C158.783 47.649 158.717 47.4401 158.743 47.1645C158.788 46.7734 158.903 45.9334 159.09 44.6445C159.339 42.9201 159.49 41.8401 159.543 41.4045L158.717 41.0845L158.81 40.6178L160.783 40.3112L161.09 40.4578L160.197 46.6845L160.183 46.8178ZM160.557 38.8978C160.352 38.8978 160.174 38.8223 160.023 38.6712C159.881 38.5201 159.81 38.3378 159.81 38.1245C159.81 37.849 159.903 37.6134 160.09 37.4178C160.285 37.2223 160.512 37.1245 160.77 37.1245C161.01 37.1245 161.197 37.2001 161.33 37.3512C161.463 37.4934 161.53 37.6712 161.53 37.8845C161.521 38.169 161.428 38.409 161.25 38.6045C161.072 38.8001 160.841 38.8978 160.557 38.8978ZM166.895 47.5645C167.411 47.2623 167.784 46.9379 168.015 46.5912L167.709 46.0712C167.398 46.4001 167.051 46.6623 166.669 46.8579C166.295 47.0445 165.909 47.1379 165.509 47.1379C164.975 47.1379 164.584 46.9156 164.335 46.4712C164.095 46.0267 163.993 45.489 164.029 44.8579C164.58 44.849 165.198 44.7379 165.882 44.5245C166.566 44.3112 167.158 43.9912 167.655 43.5645C168.153 43.129 168.402 42.5912 168.402 41.9512C168.402 41.4534 168.238 41.0534 167.909 40.7512C167.589 40.449 167.109 40.2979 166.469 40.2979C165.74 40.2979 165.073 40.5156 164.469 40.9512C163.864 41.3867 163.389 41.9779 163.042 42.7245C162.695 43.4623 162.522 44.2623 162.522 45.1245C162.522 45.6312 162.615 46.1067 162.802 46.5512C162.989 46.9867 163.282 47.3423 163.682 47.6179C164.082 47.8845 164.584 48.0179 165.189 48.0179C165.82 48.0179 166.389 47.8667 166.895 47.5645ZM165.082 41.5112C165.393 41.1823 165.749 41.0179 166.149 41.0179C166.424 41.0179 166.638 41.1067 166.789 41.2845C166.94 41.4623 167.015 41.7201 167.015 42.0579C167.015 42.4756 166.86 42.849 166.549 43.1779C166.238 43.4979 165.846 43.7467 165.375 43.9245C164.913 44.0934 164.469 44.1867 164.042 44.2045C164.078 43.7245 164.184 43.2401 164.362 42.7512C164.54 42.2534 164.78 41.8401 165.082 41.5112ZM171.81 42.0179C172.174 41.5112 172.596 41.0979 173.076 40.7779C173.556 40.4579 174.05 40.2979 174.556 40.2979C175.063 40.2979 175.45 40.449 175.716 40.7512C175.992 41.0534 176.13 41.5467 176.13 42.2312C176.13 42.5601 176.045 43.1823 175.876 44.0979L175.796 44.5779L175.73 44.9645C175.57 45.7379 175.485 46.3245 175.476 46.7245V46.8045C175.476 47.0356 175.534 47.1512 175.65 47.1512C175.827 47.1512 176.036 47.0445 176.276 46.8312L176.45 47.1912C176.343 47.3423 176.147 47.5156 175.863 47.7112C175.578 47.9067 175.254 48.0045 174.89 48.0045C174.294 48.0045 173.996 47.7245 173.996 47.1645C173.996 46.889 174.081 46.3112 174.25 45.4312L174.343 44.9379L174.396 44.6179C174.592 43.5779 174.69 42.8267 174.69 42.3645C174.681 41.9556 174.618 41.6756 174.503 41.5245C174.387 41.3734 174.187 41.2979 173.903 41.2979C173.565 41.2979 173.183 41.4712 172.756 41.8179C172.338 42.1556 171.978 42.5734 171.676 43.0712L171.036 47.8712H169.663L170.516 41.4445L169.85 41.1112L169.956 40.6045L171.69 40.2979L171.97 40.4445L171.81 42.0179ZM181.264 41.1645C181.557 41.1645 181.957 41.4179 182.464 41.9245L182.731 41.9912L183.104 40.5912C182.917 40.5023 182.682 40.4312 182.397 40.3779C182.113 40.3245 181.842 40.2979 181.584 40.2979C180.766 40.2979 180.055 40.5379 179.451 41.0179C178.855 41.489 178.402 42.089 178.091 42.8179C177.788 43.5379 177.637 44.2623 177.637 44.9912C177.637 45.9423 177.851 46.6845 178.277 47.2179C178.704 47.7423 179.295 48.0045 180.051 48.0045C180.646 48.0045 181.166 47.8756 181.611 47.6179C182.055 47.3601 182.388 47.0801 182.611 46.7779L182.331 46.2712C182.028 46.5467 181.744 46.7512 181.477 46.8845C181.211 47.0179 180.891 47.0845 180.517 47.0845C179.575 47.0845 179.104 46.329 179.104 44.8179C179.104 44.1067 179.197 43.4756 179.384 42.9245C179.571 42.3734 179.828 41.9423 180.157 41.6312C180.486 41.3201 180.855 41.1645 181.264 41.1645ZM188.054 47.5645C188.57 47.2623 188.943 46.9379 189.174 46.5912L188.867 46.0712C188.556 46.4001 188.21 46.6623 187.827 46.8579C187.454 47.0445 187.067 47.1379 186.667 47.1379C186.134 47.1379 185.743 46.9156 185.494 46.4712C185.254 46.0267 185.152 45.489 185.187 44.8579C185.738 44.849 186.356 44.7379 187.041 44.5245C187.725 44.3112 188.316 43.9912 188.814 43.5645C189.312 43.129 189.561 42.5912 189.561 41.9512C189.561 41.4534 189.396 41.0534 189.067 40.7512C188.747 40.449 188.267 40.2979 187.627 40.2979C186.898 40.2979 186.232 40.5156 185.627 40.9512C185.023 41.3867 184.547 41.9779 184.201 42.7245C183.854 43.4623 183.681 44.2623 183.681 45.1245C183.681 45.6312 183.774 46.1067 183.961 46.5512C184.147 46.9867 184.441 47.3423 184.841 47.6179C185.241 47.8845 185.743 48.0179 186.347 48.0179C186.978 48.0179 187.547 47.8667 188.054 47.5645ZM186.241 41.5112C186.552 41.1823 186.907 41.0179 187.307 41.0179C187.583 41.0179 187.796 41.1067 187.947 41.2845C188.098 41.4623 188.174 41.7201 188.174 42.0579C188.174 42.4756 188.018 42.849 187.707 43.1779C187.396 43.4979 187.005 43.7467 186.534 43.9245C186.072 44.0934 185.627 44.1867 185.201 44.2045C185.236 43.7245 185.343 43.2401 185.521 42.7512C185.698 42.2534 185.938 41.8401 186.241 41.5112ZM155.886 41.1645C156.18 41.1645 156.58 41.4179 157.086 41.9245L157.353 41.9912L157.726 40.5912C157.54 40.5023 157.304 40.4312 157.02 40.3779C156.735 40.3245 156.464 40.2979 156.206 40.2979C155.388 40.2979 154.677 40.5379 154.073 41.0179C153.477 41.489 153.024 42.089 152.713 42.8179C152.411 43.5379 152.26 44.2623 152.26 44.9912C152.26 45.9423 152.473 46.6845 152.9 47.2179C153.326 47.7423 153.917 48.0045 154.673 48.0045C155.268 48.0045 155.788 47.8756 156.233 47.6179C156.677 47.3601 157.011 47.0801 157.233 46.7779L156.953 46.2712C156.651 46.5467 156.366 46.7512 156.1 46.8845C155.833 47.0179 155.513 47.0845 155.14 47.0845C154.197 47.0845 153.726 46.329 153.726 44.8179C153.726 44.1067 153.82 43.4756 154.006 42.9245C154.193 42.3734 154.451 41.9423 154.78 41.6312C155.108 41.3201 155.477 41.1645 155.886 41.1645ZM151.182 41.6045C151.102 41.4979 150.925 41.3823 150.649 41.2579C150.382 41.1334 150.076 41.0712 149.729 41.0712C149.329 41.0712 149.009 41.1601 148.769 41.3379C148.529 41.5067 148.409 41.7556 148.409 42.0845C148.409 42.369 148.507 42.6312 148.702 42.8712C148.898 43.1023 149.187 43.3556 149.569 43.6312C149.88 43.8623 150.134 44.0712 150.329 44.2579C150.525 44.4356 150.694 44.6623 150.836 44.9379C150.978 45.2045 151.049 45.5067 151.049 45.8445C151.049 46.3067 150.925 46.7023 150.676 47.0312C150.427 47.3512 150.089 47.5956 149.662 47.7645C149.245 47.9245 148.787 48.0045 148.289 48.0045C147.889 48.0045 147.489 47.9601 147.089 47.8712C146.689 47.7823 146.427 47.6845 146.302 47.5779L146.529 46.6045C146.707 46.7467 146.96 46.8801 147.289 47.0045C147.618 47.129 147.96 47.1912 148.316 47.1912C148.689 47.1912 149.009 47.1112 149.276 46.9512C149.542 46.7912 149.676 46.529 149.676 46.1645C149.676 45.8534 149.569 45.5867 149.356 45.3645C149.142 45.1423 148.827 44.8845 148.409 44.5912C147.502 43.9601 147.049 43.2312 147.049 42.4045C147.049 41.9867 147.165 41.6179 147.396 41.2979C147.636 40.9779 147.96 40.7334 148.369 40.5645C148.778 40.3867 149.231 40.2979 149.729 40.2979C150.049 40.2979 150.374 40.329 150.702 40.3912C151.04 40.4445 151.276 40.4979 151.409 40.5512L151.182 41.6045ZM138.857 40.7779C138.377 41.0979 137.955 41.5112 137.591 42.0179L137.751 40.4445L137.471 40.2979L135.737 40.6045L135.631 41.1112L136.297 41.4445L135.444 47.8712H136.817L137.457 43.0712C137.76 42.5734 138.12 42.1556 138.537 41.8179C138.964 41.4712 139.346 41.2979 139.684 41.2979C139.969 41.2979 140.169 41.3734 140.284 41.5245C140.4 41.6756 140.462 41.9556 140.471 42.3645C140.471 42.8267 140.373 43.5779 140.177 44.6179L140.124 44.9379L140.031 45.4312C139.862 46.3112 139.777 46.889 139.777 47.1645C139.777 47.7245 140.075 48.0045 140.671 48.0045C141.035 48.0045 141.36 47.9067 141.644 47.7112C141.929 47.5156 142.124 47.3423 142.231 47.1912L142.057 46.8312C141.817 47.0445 141.609 47.1512 141.431 47.1512C141.315 47.1512 141.257 47.0356 141.257 46.8045V46.7245C141.266 46.3245 141.351 45.7379 141.511 44.9645L141.577 44.5779L141.657 44.0979C141.826 43.1823 141.911 42.5601 141.911 42.2312C141.911 41.5467 141.773 41.0534 141.497 40.7512C141.231 40.449 140.844 40.2979 140.337 40.2979C139.831 40.2979 139.337 40.4579 138.857 40.7779ZM133.797 46.5912C133.565 46.9379 133.192 47.2623 132.677 47.5645C132.17 47.8667 131.601 48.0179 130.97 48.0179C130.365 48.0179 129.863 47.8845 129.463 47.6179C129.063 47.3423 128.77 46.9867 128.583 46.5512C128.397 46.1067 128.303 45.6312 128.303 45.1245C128.303 44.2623 128.477 43.4623 128.823 42.7245C129.17 41.9779 129.645 41.3867 130.25 40.9512C130.854 40.5156 131.521 40.2979 132.25 40.2979C132.89 40.2979 133.37 40.449 133.69 40.7512C134.019 41.0534 134.183 41.4534 134.183 41.9512C134.183 42.5912 133.934 43.129 133.437 43.5645C132.939 43.9912 132.348 44.3112 131.663 44.5245C130.979 44.7379 130.361 44.849 129.81 44.8579C129.774 45.489 129.877 46.0267 130.117 46.4712C130.365 46.9156 130.757 47.1379 131.29 47.1379C131.69 47.1379 132.077 47.0445 132.45 46.8579C132.832 46.6623 133.179 46.4001 133.49 46.0712L133.797 46.5912ZM131.93 41.0179C131.53 41.0179 131.174 41.1823 130.863 41.5112C130.561 41.8401 130.321 42.2534 130.143 42.7512C129.965 43.2401 129.859 43.7245 129.823 44.2045C130.25 44.1867 130.694 44.0934 131.157 43.9245C131.628 43.7467 132.019 43.4979 132.33 43.1779C132.641 42.849 132.797 42.4756 132.797 42.0579C132.797 41.7201 132.721 41.4623 132.57 41.2845C132.419 41.1067 132.205 41.0179 131.93 41.0179ZM123.41 41.5646C123.543 41.5557 124.135 41.5602 125.183 41.5779L126.197 41.5913L125.37 42.4046L121.063 47.6579L121.423 48.0179C121.601 47.8668 121.819 47.7913 122.077 47.7913C122.299 47.7913 122.872 47.8268 123.797 47.8979C124.961 47.9779 125.668 48.0179 125.917 48.0179C126.201 48.0179 126.423 47.9735 126.583 47.8846C126.779 47.7513 126.912 47.4624 126.983 47.0179C127.063 46.5735 127.108 46.0935 127.117 45.5779H126.637C126.539 46.3779 126.152 46.7779 125.477 46.7779L122.81 46.7379L124.317 45.1779L127.837 40.6579L127.53 40.3246C127.361 40.4579 127.143 40.5246 126.877 40.5246C126.699 40.5246 126.415 40.5113 126.023 40.4846C125.641 40.4579 125.352 40.4402 125.157 40.4313C124.259 40.3513 123.579 40.3113 123.117 40.3113C122.841 40.3113 122.637 40.3602 122.503 40.4579C122.326 40.5468 122.197 40.7913 122.117 41.1913C122.046 41.5913 122.01 42.0091 122.01 42.4446L122.023 42.7646H122.503C122.521 42.4446 122.61 42.1691 122.77 41.9379C122.939 41.6979 123.152 41.5735 123.41 41.5646ZM114.465 46.498C114.465 46.258 114.497 45.9335 114.559 45.5246L115.132 41.3113H116.839L116.945 40.4713H115.239L115.465 38.658H114.719C114.354 39.6624 114.074 40.2713 113.879 40.4846L113.052 40.7646L112.932 41.3113H113.732L113.132 45.818C113.07 46.3602 113.039 46.7157 113.039 46.8846C113.039 47.2668 113.141 47.5513 113.345 47.738C113.559 47.9157 113.848 48.0046 114.212 48.0046C114.657 48.0046 115.088 47.9024 115.505 47.698C115.923 47.4846 116.23 47.2668 116.425 47.0446L116.292 46.5913C116.15 46.7068 115.95 46.818 115.692 46.9246C115.443 47.0313 115.225 47.0846 115.039 47.0846C114.825 47.0846 114.674 47.0402 114.585 46.9513C114.505 46.8624 114.465 46.7113 114.465 46.498ZM106.017 41.1645C106.31 41.1645 106.71 41.4179 107.217 41.9245L107.483 41.9912L107.857 40.5912C107.67 40.5023 107.434 40.4312 107.15 40.3779C106.865 40.3245 106.594 40.2979 106.337 40.2979C105.519 40.2979 104.808 40.5379 104.203 41.0179C103.608 41.489 103.154 42.089 102.843 42.8179C102.541 43.5379 102.39 44.2623 102.39 44.9912C102.39 45.9423 102.603 46.6845 103.03 47.2179C103.457 47.7423 104.048 48.0045 104.803 48.0045C105.399 48.0045 105.919 47.8756 106.363 47.6179C106.808 47.3601 107.141 47.0801 107.363 46.7779L107.083 46.2712C106.781 46.5467 106.497 46.7512 106.23 46.8845C105.963 47.0179 105.643 47.0845 105.27 47.0845C104.328 47.0845 103.857 46.329 103.857 44.8179C103.857 44.1067 103.95 43.4756 104.137 42.9245C104.323 42.3734 104.581 41.9423 104.91 41.6312C105.239 41.3201 105.608 41.1645 106.017 41.1645ZM88.1632 46.498C88.1632 46.258 88.1943 45.9335 88.2565 45.5246L88.8299 41.3113H90.5365L90.6432 40.4713H88.9365L89.1632 38.658H88.4165C88.0521 39.6624 87.7721 40.2713 87.5765 40.4846L86.7499 40.7646L86.6299 41.3113H87.4299L86.8299 45.818C86.7677 46.3602 86.7365 46.7157 86.7365 46.8846C86.7365 47.2668 86.8388 47.5513 87.0432 47.738C87.2565 47.9157 87.5454 48.0046 87.9099 48.0046C88.3543 48.0046 88.7854 47.9024 89.2032 47.698C89.621 47.4846 89.9277 47.2668 90.1232 47.0446L89.9899 46.5913C89.8477 46.7068 89.6477 46.818 89.3899 46.9246C89.141 47.0313 88.9232 47.0846 88.7365 47.0846C88.5232 47.0846 88.3721 47.0402 88.2832 46.9513C88.2032 46.8624 88.1632 46.7113 88.1632 46.498ZM71.3334 41.3113C71.3779 41.3735 71.4179 41.4802 71.4534 41.6313L72.1868 45.6979L72.6134 48.0046L73.7868 47.9113L74.7734 45.6979L75.9734 43.0713L76.2534 42.1513L76.3201 43.0579L76.6001 45.6979L76.8934 47.9913L78.0134 47.9246L79.1468 46.2446C79.7068 45.4802 80.2134 44.6624 80.6668 43.7913C81.129 42.9113 81.3601 42.1913 81.3601 41.6313C81.3423 40.7513 81.0579 40.3113 80.5068 40.3113C80.3023 40.3113 80.1334 40.3779 80.0001 40.5113C79.8757 40.6357 79.8134 40.8002 79.8134 41.0046C79.8134 41.1291 79.8446 41.2935 79.9068 41.4979C79.9868 41.7735 80.0268 41.9868 80.0268 42.1379C80.009 42.7335 79.8579 43.3691 79.5734 44.0446C79.289 44.7202 78.9779 45.3113 78.6401 45.8179L77.9601 46.8179L77.8534 45.6313L77.3068 40.3646H76.0401L74.0401 45.4579L73.5201 46.8313L73.3868 45.5513L72.8668 41.2046C72.8223 40.9024 72.729 40.6802 72.5868 40.5379C72.4534 40.3868 72.2268 40.3113 71.9068 40.3113C71.6046 40.3113 71.3201 40.4002 71.0534 40.5779C70.7868 40.7468 70.6134 40.8935 70.5334 41.0179L70.7068 41.4179C70.8046 41.3468 70.8801 41.2935 70.9334 41.2579C70.9957 41.2224 71.0668 41.2046 71.1468 41.2046C71.2268 41.2046 71.289 41.2402 71.3334 41.3113Z" fill="white"/>
<path d="M185.045 28.7651V11.832H188.214V28.7651H185.045ZM182.365 18.1851V15.2647H191.177V18.1851H182.365Z" fill="white"/>
<path d="M172.714 28.9378C171.594 28.9378 170.578 28.6313 169.665 28.0184C168.752 27.4054 168.02 26.5711 167.469 25.5155C166.917 24.4599 166.642 23.2595 166.642 21.9144C166.642 20.5693 166.917 19.369 167.469 18.3134C168.02 17.2577 168.769 16.4319 169.716 15.836C170.664 15.2401 171.732 14.9421 172.92 14.9421C173.609 14.9421 174.238 15.0443 174.806 15.2486C175.375 15.4359 175.874 15.7083 176.305 16.0659C176.736 16.4234 177.089 16.8321 177.364 17.2918C177.657 17.7515 177.855 18.2453 177.959 18.7731L177.261 18.5943V15.2231H180.465V28.6824H177.235V25.4644L177.984 25.3367C177.864 25.7964 177.64 26.2476 177.313 26.6903C177.003 27.116 176.606 27.4991 176.124 27.8396C175.659 28.1631 175.134 28.427 174.548 28.6313C173.98 28.8356 173.368 28.9378 172.714 28.9378ZM173.592 26.154C174.333 26.154 174.987 25.9752 175.556 25.6177C176.124 25.2601 176.563 24.7663 176.873 24.1364C177.201 23.4894 177.364 22.7487 177.364 21.9144C177.364 21.0972 177.201 20.3735 176.873 19.7436C176.563 19.1136 176.124 18.6198 175.556 18.2623C174.987 17.9047 174.333 17.7259 173.592 17.7259C172.851 17.7259 172.197 17.9047 171.628 18.2623C171.077 18.6198 170.647 19.1136 170.337 19.7436C170.027 20.3735 169.871 21.0972 169.871 21.9144C169.871 22.7487 170.027 23.4894 170.337 24.1364C170.647 24.7663 171.077 25.2601 171.628 25.6177C172.197 25.9752 172.851 26.154 173.592 26.154Z" fill="white"/>
<path d="M152.473 28.765V15.2248H155.555L155.606 17.9996L155.016 18.3079C155.187 17.6913 155.521 17.1346 156.017 16.6379C156.514 16.124 157.104 15.7129 157.789 15.4046C158.474 15.0963 159.176 14.9421 159.895 14.9421C160.922 14.9421 161.778 15.1477 162.463 15.5588C163.165 15.9699 163.687 16.5865 164.029 17.4087C164.389 18.2309 164.568 19.2586 164.568 20.4918V28.765H161.41V20.7231C161.41 20.0379 161.316 19.4727 161.127 19.0273C160.939 18.5649 160.648 18.2309 160.254 18.0253C159.861 17.8026 159.381 17.6999 158.816 17.717C158.354 17.717 157.926 17.7941 157.532 17.9482C157.156 18.0853 156.822 18.2908 156.531 18.5649C156.257 18.8218 156.034 19.1215 155.863 19.4641C155.709 19.8067 155.632 20.1835 155.632 20.5946V28.765H154.066C153.757 28.765 153.466 28.765 153.192 28.765C152.936 28.765 152.696 28.765 152.473 28.765Z" fill="white"/>
<path d="M144.432 28.7652V12.156L144.919 12.3357L136.042 23.1945L135.759 22.6041H148.845V23.8877H135.939L135.195 22.3731L144.663 10.7954H145.715V28.7652H144.432Z" fill="white"/>
<path d="M125.482 28.938C124.06 28.938 122.801 28.6406 121.705 28.0458C120.626 27.451 119.778 26.6437 119.161 25.624C118.561 24.5872 118.262 23.4061 118.262 22.0804C118.262 21.0267 118.433 20.0665 118.776 19.1997C119.118 18.333 119.589 17.5852 120.189 16.9563C120.806 16.3105 121.534 15.8176 122.373 15.4777C123.23 15.1208 124.163 14.9424 125.174 14.9424C126.065 14.9424 126.895 15.1123 127.666 15.4522C128.437 15.7921 129.105 16.2595 129.671 16.8544C130.236 17.4322 130.664 18.129 130.955 18.9448C131.264 19.7436 131.409 20.6188 131.392 21.5706L131.366 22.6668H120.394L119.803 20.5254H128.72L128.309 20.9587V20.3979C128.257 19.871 128.086 19.4122 127.795 19.0213C127.504 18.6134 127.127 18.299 126.664 18.078C126.219 17.8401 125.722 17.7211 125.174 17.7211C124.334 17.7211 123.624 17.8826 123.041 18.2055C122.476 18.5284 122.048 18.9958 121.756 19.6076C121.465 20.2024 121.319 20.9502 121.319 21.851C121.319 22.7178 121.499 23.474 121.859 24.1199C122.236 24.7657 122.758 25.2671 123.427 25.624C124.112 25.9639 124.908 26.1338 125.816 26.1338C126.45 26.1338 127.032 26.0318 127.563 25.8279C128.095 25.624 128.668 25.2586 129.285 24.7317L130.853 26.8986C130.39 27.3235 129.859 27.6889 129.259 27.9948C128.677 28.2837 128.06 28.5132 127.409 28.6831C126.758 28.8531 126.116 28.938 125.482 28.938Z" fill="white"/>
<path d="M109.45 28.7653V15.225H112.595L112.647 19.5414L112.205 18.5651C112.396 17.88 112.725 17.2633 113.193 16.7152C113.661 16.1671 114.198 15.7389 114.805 15.4306C115.428 15.1051 116.078 14.9424 116.754 14.9424C117.049 14.9424 117.326 14.9681 117.586 15.0195C117.863 15.0708 118.089 15.1308 118.262 15.1993L117.404 18.6679C117.213 18.5651 116.979 18.4795 116.702 18.4109C116.425 18.3424 116.148 18.3082 115.87 18.3082C115.437 18.3082 115.021 18.3938 114.623 18.5651C114.241 18.7193 113.903 18.9419 113.609 19.2331C113.314 19.5243 113.08 19.8669 112.907 20.2608C112.751 20.6377 112.673 21.0659 112.673 21.5455V28.7653H109.45Z" fill="white"/>
<path d="M100.231 28.938C98.8861 28.938 97.6857 28.6401 96.6301 28.0442C95.5744 27.4312 94.7401 26.5969 94.1272 25.5413C93.5142 24.4857 93.2078 23.2853 93.2078 21.9402C93.2078 20.5951 93.5142 19.3948 94.1272 18.3391C94.7401 17.2835 95.5744 16.4577 96.6301 15.8618C97.6857 15.2489 98.8861 14.9424 100.231 14.9424C101.559 14.9424 102.751 15.2489 103.807 15.8618C104.862 16.4577 105.688 17.2835 106.284 18.3391C106.897 19.3948 107.203 20.5951 107.203 21.9402C107.203 23.2853 106.897 24.4857 106.284 25.5413C105.688 26.5969 104.862 27.4312 103.807 28.0442C102.751 28.6401 101.559 28.938 100.231 28.938ZM100.231 26.1542C100.963 26.1542 101.61 25.9669 102.172 25.5924C102.751 25.2178 103.202 24.7155 103.526 24.0855C103.866 23.4556 104.028 22.7405 104.011 21.9402C104.028 21.123 103.866 20.3993 103.526 19.7694C103.202 19.1394 102.751 18.6456 102.172 18.2881C101.61 17.9135 100.963 17.7262 100.231 17.7262C99.499 17.7262 98.835 17.9135 98.2391 18.2881C97.6602 18.6456 97.209 19.1479 96.8855 19.7949C96.562 20.4249 96.4002 21.14 96.4002 21.9402C96.4002 22.7405 96.562 23.4556 96.8855 24.0855C97.209 24.7155 97.6602 25.2178 98.2391 25.5924C98.835 25.9669 99.499 26.1542 100.231 26.1542Z" fill="white"/>
<path d="M70.3999 28.7653V15.1745H73.506L73.5573 17.9081L73.0439 18.1144C73.1979 17.6674 73.4289 17.2548 73.737 16.8766C74.045 16.4811 74.413 16.1459 74.8408 15.8708C75.2686 15.5785 75.7221 15.355 76.2013 15.2003C76.6805 15.0283 77.1682 14.9424 77.6645 14.9424C78.4003 14.9424 79.0506 15.0627 79.6154 15.3034C80.1972 15.5269 80.6764 15.888 81.0529 16.3866C81.4465 16.8851 81.7374 17.5213 81.9257 18.2949L81.4379 18.1918L81.6433 17.7792C81.8315 17.3665 82.0968 16.9969 82.4391 16.6702C82.7813 16.3264 83.1664 16.0255 83.5942 15.7676C84.022 15.4925 84.467 15.2862 84.929 15.1487C85.4082 15.0112 85.8788 14.9424 86.3409 14.9424C87.3677 14.9424 88.2233 15.1487 88.9079 15.5613C89.5924 15.9739 90.1058 16.6015 90.4481 17.4439C90.7903 18.2863 90.9615 19.3265 90.9615 20.5644V28.7653H87.7784V20.7707C87.7784 20.083 87.6843 19.5156 87.496 19.0686C87.3249 18.6216 87.0511 18.2949 86.6746 18.0886C86.3152 17.8651 85.8617 17.7534 85.3141 17.7534C84.8863 17.7534 84.4755 17.8307 84.0819 17.9855C83.7054 18.123 83.3803 18.3293 83.1065 18.6044C82.8327 18.8623 82.6188 19.1632 82.4647 19.507C82.3107 19.8509 82.2337 20.2291 82.2337 20.6417V28.7653H79.0506V20.7449C79.0506 20.0916 78.9565 19.55 78.7683 19.1202C78.58 18.6732 78.3062 18.3379 77.9468 18.1144C77.5875 17.8737 77.1511 17.7534 76.6377 17.7534C76.2098 17.7534 75.8077 17.8307 75.4312 17.9855C75.0547 18.123 74.7296 18.3207 74.4557 18.5786C74.1819 18.8365 73.968 19.1374 73.814 19.4812C73.66 19.8251 73.583 20.2033 73.583 20.616V28.7653H70.3999Z" fill="white"/>
<path d="M224.489 28.9378C223.067 28.9378 221.808 28.6404 220.711 28.0455C219.632 27.4507 218.784 26.6434 218.167 25.6237C217.568 24.587 217.268 23.4058 217.268 22.0802C217.268 21.0265 217.439 20.0662 217.782 19.1995C218.125 18.3327 218.596 17.5849 219.195 16.9561C219.812 16.3103 220.54 15.8174 221.379 15.4775C222.236 15.1206 223.169 14.9421 224.18 14.9421C225.071 14.9421 225.902 15.1121 226.673 15.452C227.443 15.7919 228.112 16.2593 228.677 16.8541C229.242 17.432 229.67 18.1288 229.962 18.9445C230.27 19.7433 230.416 20.6186 230.398 21.5703L230.373 22.6665H219.401L218.81 20.5251H227.726L227.315 20.9585V20.3976C227.264 19.8708 227.092 19.4119 226.801 19.021C226.51 18.6131 226.133 18.2987 225.671 18.0778C225.225 17.8398 224.728 17.7209 224.18 17.7209C223.341 17.7209 222.63 17.8823 222.047 18.2052C221.482 18.5282 221.054 18.9955 220.763 19.6074C220.471 20.2022 220.326 20.95 220.326 21.8507C220.326 22.7175 220.506 23.4738 220.865 24.1196C221.242 24.7654 221.765 25.2668 222.433 25.6237C223.118 25.9636 223.915 26.1336 224.823 26.1336C225.456 26.1336 226.039 26.0316 226.57 25.8277C227.101 25.6237 227.675 25.2583 228.291 24.7315L229.859 26.8984C229.396 27.3232 228.865 27.6886 228.266 27.9946C227.683 28.2835 227.067 28.5129 226.416 28.6829C225.765 28.8528 225.122 28.9378 224.489 28.9378Z" fill="white"/>
<path d="M208.283 28.765V15.2248H211.429L211.481 19.5412L211.039 18.5649C211.229 17.8797 211.559 17.2631 212.026 16.715C212.494 16.1668 213.032 15.7386 213.638 15.4303C214.262 15.1049 214.912 14.9421 215.588 14.9421C215.882 14.9421 216.16 14.9678 216.419 15.0192C216.697 15.0706 216.922 15.1306 217.095 15.1991L216.237 18.6676C216.047 18.5649 215.813 18.4792 215.536 18.4107C215.258 18.3422 214.981 18.3079 214.704 18.3079C214.271 18.3079 213.855 18.3936 213.456 18.5649C213.075 18.719 212.737 18.9417 212.442 19.2329C212.148 19.5241 211.914 19.8666 211.74 20.2606C211.584 20.6374 211.507 21.0657 211.507 21.5453V28.765H208.283Z" fill="white"/>
<path d="M197.673 28.9379C196.694 28.9379 195.843 28.7261 195.122 28.3025C194.4 27.8619 193.85 27.2433 193.472 26.4469C193.094 25.6334 192.905 24.6675 192.905 23.5491V15.2878H196.075V22.8882C196.075 23.5999 196.187 24.21 196.41 24.7184C196.634 25.2098 196.96 25.5911 197.39 25.8622C197.819 26.1334 198.335 26.2689 198.936 26.2689C199.383 26.2689 199.787 26.2011 200.147 26.0656C200.525 25.9131 200.852 25.7097 201.127 25.4555C201.402 25.1844 201.616 24.8709 201.771 24.515C201.926 24.1422 202.003 23.744 202.003 23.3203V15.2878H205.173V28.6837H202.08L202.029 25.8876L202.596 25.5826C202.39 26.2266 202.037 26.8027 201.539 27.3111C201.058 27.8025 200.482 28.2008 199.812 28.5058C199.142 28.7939 198.429 28.9379 197.673 28.9379Z" fill="white"/>
<path fill-rule="evenodd" clip-rule="evenodd" d="M30.8334 9.33126C27.4187 9.49493 24.2041 10.4136 21.3506 11.9238C25.5315 14.8888 28.732 18.8065 30.8334 23.2027L30.8334 9.33126ZM31.9377 6.63818C27.1305 6.63818 22.6327 7.97838 18.8017 10.3059C17.7439 9.70787 16.6346 9.16616 15.4752 8.68665L14.5708 8.31258L13.9428 9.06339C12.2757 11.0569 10.9212 13.1892 9.86816 15.4076C8.83101 15.1716 7.76805 14.988 6.68131 14.8603L5.70923 14.746L5.30894 15.6392C-2.71109 33.5339 8.59205 54.0223 27.784 56.9579L27.7828 56.9656C29.1355 57.1888 30.5235 57.3048 31.9377 57.3048C33.5585 57.3048 35.1438 57.1526 36.68 56.8617H36.7691L36.8951 56.8372C39.0593 56.4165 41.1237 55.7107 43.0493 54.76L43.117 54.7302L43.1163 54.7268C43.8789 54.3474 44.6196 53.9296 45.336 53.4759C52.5028 49.0011 57.271 41.0431 57.271 31.9715C57.271 17.9803 45.9289 6.63818 31.9377 6.63818ZM42.5064 52.0286C43.0019 51.7669 43.4866 51.4875 43.9596 51.191C44.4835 50.8572 44.9931 50.5016 45.487 50.1255L36.2388 30.0038C35.2697 27.9699 33.2031 26.6666 30.9264 26.6666C29.3813 26.6666 28.4149 26.838 26.5511 27.521L24.2626 28.6108L22.4648 29.0931L22.7525 29.3043C23.8453 30.1066 24.5471 31.5349 24.002 33.0577C23.9171 33.2948 23.8224 33.5509 23.7245 33.8158L23.7229 33.8202C23.599 34.1553 23.4686 34.509 23.3376 34.8774C32.5746 36.3714 40.0341 43.1596 42.5064 52.0286ZM54.6044 31.9715C54.6044 38.4115 51.9186 44.2242 47.6062 48.3507L45.0077 42.6973L54.5938 31.2735C54.6008 31.5053 54.6044 31.738 54.6044 31.9715ZM54.1854 27.6116L43.7758 40.0169L41.3007 34.6318L48.0659 16.0449C51.1375 19.1551 53.316 23.1494 54.1854 27.6116ZM45.924 14.1332L39.717 31.1862L38.6546 28.8747L38.6511 28.8672C37.6182 26.6918 35.7308 25.0954 33.5 24.3943L33.5 9.35785C38.1718 9.67589 42.455 11.4095 45.924 14.1332ZM16.99 12.3519C22.1449 15.1255 25.9982 19.3406 28.3624 24.2175C27.5547 24.3721 26.7242 24.6198 25.6971 24.994C23.6893 22.6394 21.3039 20.5861 18.6033 18.9429L16.99 12.3519ZM9.43697 18.045C14.9458 19.3339 19.6391 22.2464 23.1602 26.1456L16.4104 27.9565L21.1744 31.4539C21.355 31.5865 21.4507 31.7291 21.4919 31.8401C21.5289 31.9396 21.534 32.0397 21.4913 32.159C21.4116 32.3818 21.3214 32.6256 21.2217 32.8954L21.1952 32.9671C20.8308 33.9523 20.3546 35.2398 19.9815 36.6673L9.43697 18.045ZM26.2269 53.9486C22.6014 51.4112 20.0748 47.4252 19.5035 42.8334H10.0258C13.6925 48.2519 19.3287 52.3725 26.2269 53.9486ZM15.4508 17.2798C14.4918 16.8467 13.5015 16.4619 12.482 16.1294C13.0296 15.0263 13.661 13.9467 14.3783 12.8984L15.4508 17.2798ZM18.8985 40.1667H8.43491C6.77485 36.9849 5.74156 33.4718 5.45197 29.8333L13.0474 29.8333L18.8985 40.1667ZM11.5375 27.1666L6.8694 18.9225C5.91456 21.656 5.43204 24.4321 5.37417 27.1666L11.5375 27.1666ZM30.7714 31.5C30.7714 32.4204 30.0252 33.1666 29.1047 33.1666C28.1842 33.1666 27.438 32.4204 27.438 31.5C27.438 30.5795 28.1842 29.8333 29.1047 29.8333C30.0252 29.8333 30.7714 30.5795 30.7714 31.5ZM22.1047 40.7967C22.1047 39.704 22.2947 38.5667 22.5755 37.4582C31.0687 38.693 37.9343 44.9618 40.0437 53.1399C38.9247 53.567 37.7633 53.9046 36.5677 54.1442H35.5544C28.1176 54.1442 22.1047 48.1596 22.1047 40.7967Z" fill="white"/>
</svg>
