<svg width="333" height="234" viewBox="0 0 333 234" fill="none" xmlns="http://www.w3.org/2000/svg">
<path fill-rule="evenodd" clip-rule="evenodd" d="M70.688 230.716C70.688 230.938 70.725 231.113 70.799 231.242C70.8915 231.353 71.0025 231.408 71.132 231.408C71.3355 231.408 71.539 231.353 71.7425 231.242C71.9645 231.113 72.2328 230.901 72.5473 230.606L72.908 231.325C72.6305 231.713 72.205 232.119 71.6315 232.543C71.058 232.968 70.3828 233.18 69.6058 233.18C68.9583 233.18 68.4588 233.032 68.1073 232.737C67.7743 232.442 67.6355 232.008 67.691 231.436C67.7835 230.624 68.024 228.88 68.4125 226.205C68.9305 222.625 69.245 220.383 69.356 219.478L67.6355 218.814L67.8298 217.845L71.9368 217.209L72.575 217.513L70.7158 230.44L70.688 230.716ZM71.465 214.275C71.0395 214.275 70.6695 214.118 70.355 213.804C70.059 213.49 69.911 213.112 69.911 212.669C69.911 212.097 70.1053 211.608 70.4938 211.202C70.9008 210.796 71.3725 210.593 71.909 210.593C72.4085 210.593 72.797 210.75 73.0745 211.064C73.352 211.359 73.4908 211.728 73.4908 212.171C73.4723 212.761 73.278 213.26 72.908 213.666C72.538 214.072 72.057 214.275 71.465 214.275ZM90.1922 220.918C90.9321 219.829 91.8109 218.934 92.8284 218.233C93.8644 217.532 94.9189 217.181 95.9919 217.181C97.0464 217.181 97.8512 217.495 98.4062 218.122C98.9796 218.749 99.2664 219.783 99.2664 221.222C99.2664 221.886 99.1554 222.818 98.9334 224.018C98.7114 225.199 98.5819 225.882 98.5449 226.066C98.5079 226.361 98.4617 226.629 98.4062 226.869C98.3691 227.09 98.3321 227.284 98.2952 227.45C98.2027 228.022 98.1101 228.603 98.0177 229.194C97.9252 229.784 97.8789 230.264 97.8789 230.633C97.8789 231.168 98.0177 231.436 98.2952 231.436C98.4986 231.436 98.6929 231.381 98.8779 231.27C99.0814 231.159 99.3497 230.956 99.6827 230.661L100.043 231.408C99.7844 231.777 99.3589 232.165 98.7669 232.571C98.1934 232.977 97.5182 233.18 96.7411 233.18C96.0381 233.18 95.5387 233.032 95.2426 232.737C94.9467 232.442 94.7986 232.008 94.7986 231.436C94.7986 230.901 94.9467 229.858 95.2426 228.308L95.5201 226.814L95.6311 226.149C96.0381 223.99 96.2417 222.431 96.2417 221.471C96.2232 220.622 96.0937 220.041 95.8531 219.727C95.6126 219.414 95.2149 219.257 94.6599 219.257C93.9199 219.257 93.0966 219.626 92.1901 220.364C91.3021 221.102 90.5436 221.997 89.9146 223.049L88.6381 232.903H85.7521L88.3606 212.586L86.7511 212.088L86.9454 211.091L90.8859 210.593L91.4964 210.953L90.1922 220.918ZM125.429 230.716C125.429 230.938 125.466 231.113 125.54 231.242C125.633 231.353 125.744 231.408 125.873 231.408C126.077 231.408 126.28 231.353 126.484 231.242C126.706 231.113 126.974 230.901 127.288 230.606L127.649 231.325C127.372 231.713 126.946 232.119 126.373 232.543C125.799 232.968 125.124 233.18 124.347 233.18C123.699 233.18 123.2 233.032 122.848 232.737C122.515 232.442 122.377 232.008 122.432 231.436C122.525 230.624 122.765 228.88 123.154 226.205C123.672 222.625 123.986 220.383 124.097 219.478L122.377 218.814L122.571 217.845L126.678 217.209L127.316 217.513L125.457 230.44L125.429 230.716ZM126.206 214.275C125.781 214.275 125.411 214.118 125.096 213.804C124.8 213.49 124.652 213.112 124.652 212.669C124.652 212.097 124.846 211.608 125.235 211.202C125.642 210.796 126.114 210.593 126.65 210.593C127.15 210.593 127.538 210.75 127.816 211.064C128.093 211.359 128.232 211.728 128.232 212.171C128.213 212.761 128.019 213.26 127.649 213.666C127.279 214.072 126.798 214.275 126.206 214.275ZM144.101 230.716C144.101 230.938 144.138 231.113 144.212 231.242C144.304 231.353 144.415 231.408 144.545 231.408C144.748 231.408 144.952 231.353 145.155 231.242C145.377 231.113 145.646 230.901 145.96 230.606L146.321 231.325C146.043 231.713 145.618 232.119 145.044 232.543C144.471 232.968 143.796 233.18 143.019 233.18C142.371 233.18 141.872 233.032 141.52 232.737C141.187 232.442 141.048 232.008 141.104 231.436C141.196 230.624 141.437 228.88 141.825 226.205C142.343 222.625 142.658 220.383 142.769 219.478L141.048 218.814L141.243 217.845L145.35 217.209L145.988 217.513L144.129 230.44L144.101 230.716ZM144.878 214.275C144.452 214.275 144.082 214.118 143.768 213.804C143.472 213.49 143.324 213.112 143.324 212.669C143.324 212.097 143.518 211.608 143.907 211.202C144.314 210.796 144.785 210.593 145.322 210.593C145.821 210.593 146.21 210.75 146.487 211.064C146.765 211.359 146.904 211.728 146.904 212.171C146.885 212.761 146.691 213.26 146.321 213.666C145.951 214.072 145.47 214.275 144.878 214.275ZM229.221 230.716C229.221 230.938 229.258 231.113 229.332 231.242C229.424 231.353 229.535 231.408 229.665 231.408C229.868 231.408 230.072 231.353 230.275 231.242C230.497 231.113 230.766 230.901 231.08 230.606L231.441 231.325C231.163 231.713 230.738 232.119 230.164 232.543C229.591 232.968 228.916 233.18 228.139 233.18C227.491 233.18 226.992 233.032 226.64 232.737C226.307 232.442 226.168 232.008 226.224 231.436C226.316 230.624 226.557 228.88 226.945 226.205C227.463 222.625 227.778 220.383 227.889 219.478L226.168 218.814L226.363 217.845L230.47 217.209L231.108 217.513L229.249 230.44L229.221 230.716ZM229.998 214.275C229.572 214.275 229.202 214.118 228.888 213.804C228.592 213.49 228.444 213.112 228.444 212.669C228.444 212.097 228.638 211.608 229.027 211.202C229.434 210.796 229.905 210.593 230.442 210.593C230.941 210.593 231.33 210.75 231.607 211.064C231.885 211.359 232.024 211.728 232.024 212.171C232.005 212.761 231.811 213.26 231.441 213.666C231.071 214.072 230.59 214.275 229.998 214.275ZM243.19 232.266C244.263 231.639 245.04 230.965 245.521 230.246L244.883 229.166C244.236 229.849 243.514 230.393 242.719 230.799C241.942 231.187 241.137 231.381 240.304 231.381C239.194 231.381 238.38 230.919 237.862 229.997C237.363 229.074 237.15 227.958 237.224 226.647C238.371 226.629 239.657 226.398 241.081 225.955C242.506 225.513 243.736 224.848 244.772 223.962C245.808 223.058 246.326 221.942 246.326 220.613C246.326 219.58 245.984 218.749 245.299 218.122C244.633 217.495 243.634 217.181 242.302 217.181C240.785 217.181 239.398 217.633 238.14 218.537C236.882 219.441 235.892 220.669 235.171 222.219C234.449 223.75 234.088 225.411 234.088 227.201C234.088 228.253 234.283 229.24 234.671 230.163C235.06 231.067 235.67 231.805 236.503 232.377C237.335 232.931 238.38 233.208 239.638 233.208C240.952 233.208 242.136 232.894 243.19 232.266ZM239.416 219.7C240.064 219.017 240.804 218.676 241.636 218.676C242.21 218.676 242.654 218.86 242.968 219.229C243.283 219.598 243.44 220.133 243.44 220.835C243.44 221.702 243.116 222.477 242.469 223.16C241.821 223.824 241.007 224.341 240.027 224.71C239.065 225.06 238.14 225.254 237.252 225.291C237.326 224.295 237.548 223.289 237.918 222.274C238.288 221.241 238.787 220.383 239.416 219.7ZM253.418 220.752C254.177 219.7 255.056 218.842 256.055 218.177C257.054 217.513 258.08 217.181 259.135 217.181C260.189 217.181 260.994 217.495 261.549 218.122C262.123 218.749 262.409 219.774 262.409 221.195C262.409 221.877 262.234 223.169 261.882 225.07L261.716 226.066L261.577 226.869C261.244 228.474 261.068 229.692 261.05 230.523V230.689C261.05 231.168 261.17 231.408 261.41 231.408C261.78 231.408 262.215 231.187 262.715 230.744L263.075 231.491C262.853 231.805 262.446 232.165 261.854 232.571C261.262 232.977 260.587 233.18 259.829 233.18C258.589 233.18 257.969 232.599 257.969 231.436C257.969 230.864 258.145 229.665 258.497 227.838L258.691 226.814L258.802 226.149C259.209 223.99 259.412 222.431 259.412 221.471C259.394 220.622 259.264 220.041 259.024 219.727C258.783 219.414 258.367 219.257 257.775 219.257C257.072 219.257 256.277 219.617 255.389 220.336C254.519 221.038 253.77 221.905 253.141 222.938L251.809 232.903H248.951L250.727 219.561L249.339 218.869L249.561 217.818L253.169 217.181L253.751 217.485L253.418 220.752ZM273.095 218.98C273.706 218.98 274.538 219.506 275.593 220.558L276.148 220.696L276.925 217.79C276.536 217.605 276.046 217.458 275.454 217.347C274.862 217.236 274.298 217.181 273.761 217.181C272.059 217.181 270.579 217.679 269.321 218.676C268.082 219.654 267.138 220.899 266.491 222.412C265.862 223.907 265.547 225.411 265.547 226.924C265.547 228.899 265.991 230.44 266.879 231.547C267.767 232.635 268.998 233.18 270.57 233.18C271.81 233.18 272.892 232.912 273.817 232.377C274.742 231.842 275.436 231.261 275.898 230.633L275.315 229.581C274.686 230.154 274.094 230.578 273.539 230.855C272.984 231.132 272.318 231.27 271.541 231.27C269.58 231.27 268.6 229.701 268.6 226.564C268.6 225.088 268.794 223.778 269.183 222.634C269.571 221.49 270.108 220.595 270.792 219.949C271.477 219.303 272.244 218.98 273.095 218.98ZM287.227 232.266C288.3 231.639 289.077 230.965 289.558 230.246L288.92 229.166C288.273 229.849 287.551 230.393 286.756 230.799C285.979 231.187 285.174 231.381 284.341 231.381C283.231 231.381 282.417 230.919 281.899 229.997C281.4 229.074 281.187 227.958 281.261 226.647C282.408 226.629 283.694 226.398 285.118 225.955C286.543 225.513 287.773 224.848 288.809 223.962C289.845 223.058 290.363 221.942 290.363 220.613C290.363 219.58 290.021 218.749 289.336 218.122C288.67 217.495 287.671 217.181 286.339 217.181C284.822 217.181 283.435 217.633 282.177 218.537C280.919 219.441 279.929 220.669 279.208 222.219C278.486 223.75 278.125 225.411 278.125 227.201C278.125 228.253 278.32 229.24 278.708 230.163C279.097 231.067 279.707 231.805 280.54 232.377C281.372 232.931 282.417 233.208 283.675 233.208C284.989 233.208 286.173 232.894 287.227 232.266ZM283.453 219.7C284.101 219.017 284.841 218.676 285.673 218.676C286.247 218.676 286.691 218.86 287.005 219.229C287.32 219.598 287.477 220.133 287.477 220.835C287.477 221.702 287.153 222.477 286.506 223.16C285.858 223.824 285.044 224.341 284.064 224.71C283.102 225.06 282.177 225.254 281.289 225.291C281.363 224.295 281.585 223.289 281.955 222.274C282.325 221.241 282.824 220.383 283.453 219.7ZM220.278 218.98C220.889 218.98 221.721 219.506 222.776 220.558L223.331 220.696L224.108 217.79C223.719 217.605 223.229 217.458 222.637 217.347C222.045 217.236 221.481 217.181 220.944 217.181C219.242 217.181 217.762 217.679 216.504 218.676C215.265 219.654 214.321 220.899 213.674 222.412C213.045 223.907 212.73 225.411 212.73 226.924C212.73 228.899 213.174 230.44 214.062 231.547C214.95 232.635 216.18 233.18 217.753 233.18C218.992 233.18 220.075 232.912 221 232.377C221.925 231.842 222.618 231.261 223.081 230.633L222.498 229.581C221.869 230.154 221.277 230.578 220.722 230.855C220.167 231.132 219.501 231.27 218.724 231.27C216.763 231.27 215.783 229.701 215.783 226.564C215.783 225.088 215.977 223.778 216.365 222.634C216.754 221.49 217.29 220.595 217.975 219.949C218.659 219.303 219.427 218.98 220.278 218.98ZM210.488 219.894C210.322 219.672 209.952 219.432 209.378 219.174C208.823 218.916 208.185 218.786 207.464 218.786C206.631 218.786 205.965 218.971 205.466 219.34C204.966 219.691 204.716 220.207 204.716 220.89C204.716 221.481 204.92 222.025 205.327 222.523C205.734 223.003 206.335 223.529 207.131 224.101C207.778 224.581 208.305 225.014 208.712 225.402C209.119 225.771 209.471 226.241 209.767 226.814C210.063 227.367 210.211 227.995 210.211 228.696C210.211 229.655 209.952 230.476 209.434 231.159C208.916 231.824 208.213 232.331 207.325 232.682C206.455 233.014 205.503 233.18 204.467 233.18C203.634 233.18 202.802 233.088 201.969 232.903C201.137 232.719 200.591 232.516 200.332 232.294L200.804 230.273C201.174 230.569 201.701 230.846 202.385 231.104C203.07 231.362 203.782 231.491 204.522 231.491C205.299 231.491 205.965 231.325 206.52 230.993C207.075 230.661 207.353 230.117 207.353 229.36C207.353 228.714 207.131 228.161 206.687 227.699C206.243 227.238 205.586 226.703 204.716 226.094C202.829 224.784 201.886 223.27 201.886 221.554C201.886 220.687 202.126 219.921 202.607 219.257C203.107 218.593 203.782 218.085 204.633 217.735C205.484 217.365 206.428 217.181 207.464 217.181C208.13 217.181 208.805 217.246 209.489 217.375C210.192 217.485 210.683 217.596 210.96 217.707L210.488 219.894ZM184.837 218.177C183.838 218.842 182.959 219.7 182.201 220.752L182.534 217.485L181.951 217.181L178.343 217.818L178.121 218.869L179.509 219.561L177.733 232.903H180.591L181.923 222.938C182.552 221.905 183.301 221.038 184.171 220.336C185.059 219.617 185.854 219.257 186.557 219.257C187.149 219.257 187.566 219.414 187.806 219.727C188.047 220.041 188.176 220.622 188.195 221.471C188.195 222.431 187.991 223.99 187.584 226.149L187.473 226.814L187.279 227.838C186.927 229.665 186.752 230.864 186.752 231.436C186.752 232.599 187.371 233.18 188.611 233.18C189.369 233.18 190.045 232.977 190.637 232.571C191.229 232.165 191.636 231.805 191.858 231.491L191.497 230.744C190.997 231.187 190.563 231.408 190.193 231.408C189.952 231.408 189.832 231.168 189.832 230.689V230.523C189.85 229.692 190.026 228.474 190.359 226.869L190.498 226.066L190.664 225.07C191.016 223.169 191.192 221.877 191.192 221.195C191.192 219.774 190.905 218.749 190.331 218.122C189.776 217.495 188.972 217.181 187.917 217.181C186.863 217.181 185.836 217.513 184.837 218.177ZM174.304 230.246C173.823 230.965 173.046 231.639 171.973 232.266C170.918 232.894 169.734 233.208 168.421 233.208C167.163 233.208 166.117 232.931 165.285 232.377C164.452 231.805 163.842 231.067 163.453 230.163C163.065 229.24 162.871 228.253 162.871 227.201C162.871 225.411 163.231 223.75 163.953 222.219C164.674 220.669 165.664 219.441 166.922 218.537C168.18 217.633 169.568 217.181 171.085 217.181C172.417 217.181 173.416 217.495 174.082 218.122C174.766 218.749 175.108 219.58 175.108 220.613C175.108 221.942 174.59 223.058 173.554 223.962C172.518 224.848 171.288 225.513 169.864 225.955C168.439 226.398 167.153 226.629 166.006 226.647C165.932 227.958 166.145 229.074 166.645 229.997C167.163 230.919 167.977 231.381 169.087 231.381C169.919 231.381 170.724 231.187 171.501 230.799C172.296 230.393 173.018 229.849 173.665 229.166L174.304 230.246ZM170.419 218.676C169.586 218.676 168.846 219.017 168.199 219.7C167.57 220.383 167.07 221.241 166.7 222.274C166.33 223.289 166.108 224.295 166.034 225.291C166.922 225.254 167.847 225.06 168.809 224.71C169.79 224.341 170.604 223.824 171.251 223.16C171.899 222.477 172.222 221.702 172.222 220.835C172.222 220.133 172.065 219.598 171.751 219.229C171.436 218.86 170.992 218.676 170.419 218.676ZM152.687 219.811C152.964 219.792 154.195 219.801 156.378 219.838L158.487 219.866L156.766 221.554L147.803 232.46L148.552 233.208C148.922 232.894 149.375 232.737 149.912 232.737C150.374 232.737 151.568 232.811 153.492 232.958C155.915 233.125 157.386 233.208 157.904 233.208C158.496 233.208 158.958 233.115 159.291 232.931C159.698 232.654 159.976 232.054 160.124 231.132C160.29 230.209 160.383 229.212 160.401 228.142H159.402C159.199 229.803 158.394 230.633 156.988 230.633L151.438 230.55L154.574 227.312L161.9 217.928L161.262 217.236C160.91 217.513 160.457 217.652 159.902 217.652C159.532 217.652 158.94 217.624 158.126 217.568C157.33 217.513 156.729 217.476 156.322 217.458C154.454 217.292 153.038 217.209 152.076 217.209C151.503 217.209 151.077 217.31 150.8 217.513C150.43 217.698 150.162 218.205 149.995 219.036C149.847 219.866 149.773 220.733 149.773 221.637L149.801 222.302H150.8C150.837 221.637 151.022 221.065 151.355 220.586C151.706 220.087 152.15 219.829 152.687 219.811ZM134.071 230.052C134.071 229.554 134.136 228.88 134.265 228.031L135.458 219.285H139.01L139.232 217.541H135.68L136.152 213.776H134.598C133.84 215.862 133.257 217.126 132.85 217.568L131.129 218.15L130.88 219.285H132.545L131.296 228.64C131.166 229.766 131.102 230.504 131.102 230.855C131.102 231.648 131.314 232.239 131.74 232.626C132.184 232.995 132.785 233.18 133.544 233.18C134.469 233.18 135.366 232.968 136.235 232.543C137.105 232.1 137.743 231.648 138.15 231.187L137.873 230.246C137.577 230.486 137.16 230.716 136.624 230.938C136.106 231.159 135.653 231.27 135.264 231.27C134.82 231.27 134.506 231.178 134.321 230.993C134.154 230.809 134.071 230.495 134.071 230.052ZM116.487 218.98C117.097 218.98 117.93 219.506 118.984 220.558L119.539 220.696L120.316 217.79C119.928 217.605 119.437 217.458 118.845 217.347C118.253 217.236 117.689 217.181 117.153 217.181C115.451 217.181 113.971 217.679 112.713 218.676C111.473 219.654 110.53 220.899 109.882 222.412C109.253 223.907 108.939 225.411 108.939 226.924C108.939 228.899 109.383 230.44 110.271 231.547C111.159 232.635 112.389 233.18 113.961 233.18C115.201 233.18 116.283 232.912 117.208 232.377C118.133 231.842 118.827 231.261 119.289 230.633L118.707 229.581C118.078 230.154 117.486 230.578 116.931 230.855C116.376 231.132 115.71 231.27 114.933 231.27C112.972 231.27 111.991 229.701 111.991 226.564C111.991 225.088 112.185 223.778 112.574 222.634C112.962 221.49 113.499 220.595 114.183 219.949C114.868 219.303 115.636 218.98 116.487 218.98ZM79.3295 230.052C79.3295 229.554 79.3943 228.88 79.5238 228.031L80.717 219.285H84.269L84.491 217.541H80.939L81.4108 213.776H79.8568C79.0983 215.862 78.5155 217.126 78.1085 217.568L76.388 218.15L76.1383 219.285H77.8033L76.5545 228.64C76.425 229.766 76.3603 230.504 76.3603 230.855C76.3603 231.648 76.573 232.239 76.9985 232.626C77.4425 232.995 78.0438 233.18 78.8023 233.18C79.7273 233.18 80.6245 232.968 81.494 232.543C82.3635 232.1 83.0018 231.648 83.4088 231.187L83.1313 230.246C82.8353 230.486 82.419 230.716 81.8825 230.938C81.3645 231.159 80.9113 231.27 80.5228 231.27C80.0788 231.27 79.7643 231.178 79.5793 230.993C79.4128 230.809 79.3295 230.495 79.3295 230.052ZM44.3022 219.285C44.3947 219.414 44.478 219.635 44.552 219.949L46.0782 228.391L46.9662 233.18L49.4082 232.986L51.4617 228.391L53.9592 222.938L54.542 221.028L54.6807 222.911L55.2635 228.391L55.874 233.152L58.205 233.014L60.5637 229.526C61.7292 227.939 62.7837 226.241 63.7272 224.433C64.6892 222.606 65.1702 221.112 65.1702 219.949C65.1332 218.122 64.5412 217.209 63.3942 217.209C62.9687 217.209 62.6172 217.347 62.3397 217.624C62.0807 217.882 61.9512 218.224 61.9512 218.648C61.9512 218.906 62.016 219.248 62.1455 219.672C62.312 220.244 62.3952 220.687 62.3952 221.001C62.3582 222.237 62.0437 223.557 61.4517 224.959C60.8597 226.361 60.2122 227.589 59.5092 228.64L58.094 230.716L57.872 228.253L56.7342 217.319H54.098L49.9355 227.893L48.8532 230.744L48.5757 228.087L47.4935 219.063C47.401 218.436 47.2067 217.974 46.9107 217.679C46.6332 217.366 46.1615 217.209 45.4955 217.209C44.8665 217.209 44.2745 217.393 43.7195 217.762C43.1645 218.113 42.8037 218.417 42.6372 218.676L42.998 219.506C43.2015 219.358 43.3587 219.248 43.4697 219.174C43.5992 219.1 43.7472 219.063 43.9137 219.063C44.0802 219.063 44.2097 219.137 44.3022 219.285Z" fill="white"/>
<path fill-rule="evenodd" clip-rule="evenodd" d="M154.079 190.305V180.179H136.403L134.854 177.035L154.559 153H156.749V177.515H163.264V180.179H156.749V190.305H154.079ZM154.079 157.435V177.515H137.621L154.079 157.435ZM238.605 190.305V168.341H233.028V162.278H238.605V155.152H245.201V162.278H251.368V168.341H245.201V190.305H238.605ZM212.94 190.664C210.61 190.664 208.495 190.027 206.595 188.755C204.695 187.482 203.171 185.75 202.024 183.559C200.877 181.367 200.304 178.876 200.304 176.083C200.304 173.291 200.877 170.799 202.024 168.607C203.171 166.416 204.731 164.702 206.703 163.464C208.674 162.227 210.897 161.609 213.371 161.609C214.805 161.609 216.113 161.821 217.296 162.245C218.479 162.634 219.519 163.199 220.415 163.942C221.203 164.594 221.866 165.329 222.404 166.145V162.192H229.072V190.133H222.351V186.212C221.731 187.011 220.96 187.734 220.038 188.384C219.071 189.055 217.977 189.603 216.758 190.027C215.575 190.451 214.303 190.664 212.94 190.664ZM214.769 184.884C216.31 184.884 217.672 184.513 218.855 183.771C220.038 183.029 220.953 182.004 221.598 180.696C222.279 179.353 222.62 177.815 222.62 176.083C222.62 174.387 222.279 172.884 221.598 171.576C220.953 170.269 220.038 169.244 218.855 168.501C217.672 167.759 216.31 167.388 214.769 167.388C213.227 167.388 211.865 167.759 210.682 168.501C209.535 169.244 208.638 170.269 207.993 171.576C207.348 172.884 207.025 174.387 207.025 176.083C207.025 177.815 207.348 179.353 207.993 180.696C208.638 182.004 209.535 183.029 210.682 183.771C211.865 184.513 213.227 184.884 214.769 184.884ZM170.815 162.195V190.305H172.312H174.129H177.389V173.343C177.389 172.49 177.549 171.708 177.87 170.996C178.226 170.285 178.69 169.663 179.26 169.129C179.865 168.561 180.56 168.134 181.344 167.849C182.164 167.529 183.054 167.369 184.016 167.369C185.192 167.334 186.19 167.547 187.009 168.009C187.829 168.436 188.435 169.129 188.826 170.09C189.218 171.014 189.414 172.188 189.414 173.61V190.305H195.988V173.13C195.988 170.57 195.614 168.436 194.866 166.729C194.153 165.022 193.066 163.742 191.606 162.889C190.18 162.035 188.399 161.609 186.261 161.609C184.765 161.609 183.304 161.929 181.879 162.569C180.453 163.209 179.224 164.062 178.191 165.129C177.86 165.459 177.564 165.802 177.302 166.158L177.229 162.195H170.815ZM106.779 188.811C109.06 190.046 111.681 190.664 114.64 190.664C115.959 190.664 117.296 190.487 118.651 190.134C120.006 189.782 121.289 189.305 122.501 188.705C123.749 188.07 124.854 187.312 125.817 186.43L122.555 181.931C121.271 183.025 120.077 183.784 118.972 184.207C117.867 184.63 116.654 184.842 115.335 184.842C113.446 184.842 111.788 184.489 110.362 183.784C108.971 183.043 107.884 182.002 107.1 180.661C106.596 179.759 106.262 178.754 106.097 177.645H126.887L126.94 175.369C126.976 173.393 126.673 171.576 126.031 169.918C125.425 168.224 124.534 166.778 123.357 165.578C122.181 164.343 120.79 163.373 119.186 162.667C117.581 161.962 115.852 161.609 113.998 161.609C111.895 161.609 109.952 161.979 108.169 162.72C106.422 163.426 104.907 164.449 103.623 165.79C102.376 167.095 101.395 168.648 100.682 170.447C99.969 172.246 99.6125 174.24 99.6125 176.427C99.6125 179.179 100.236 181.631 101.484 183.784C102.768 185.901 104.533 187.576 106.779 188.811ZM106.242 173.199C106.392 172.497 106.607 171.862 106.886 171.294C107.492 170.024 108.383 169.053 109.56 168.383C110.772 167.713 112.251 167.377 113.998 167.377C115.139 167.377 116.173 167.624 117.1 168.118C118.063 168.577 118.847 169.23 119.453 170.077C120.059 170.888 120.416 171.841 120.523 172.934V173.199H106.242ZM81.2723 190.305V162.196H87.8185L87.8765 166.996C88.2076 166.395 88.603 165.826 89.0628 165.289C90.0366 164.151 91.1547 163.262 92.4171 162.622C93.7155 161.947 95.068 161.609 96.4746 161.609C97.0878 161.609 97.6648 161.662 98.2058 161.769C98.7829 161.876 99.2518 162 99.6125 162.142L97.8271 169.343C97.4304 169.13 96.9435 168.952 96.3664 168.81C95.7894 168.667 95.2123 168.596 94.6352 168.596C93.7335 168.596 92.8679 168.774 92.0384 169.13C91.2449 169.45 90.5416 169.912 89.9284 170.516C89.3153 171.121 88.8284 171.832 88.4677 172.65C88.1431 173.432 87.9808 174.321 87.9808 175.317V190.305H81.2723ZM54.5917 188.808C56.7887 190.045 59.287 190.664 62.0864 190.664C64.8505 190.664 67.331 190.045 69.528 188.808C71.7251 187.535 73.4437 185.803 74.684 183.612C75.9597 181.421 76.5975 178.929 76.5975 176.136C76.5975 173.344 75.9597 170.852 74.684 168.66C73.4437 166.469 71.7251 164.755 69.528 163.518C67.331 162.245 64.8505 161.609 62.0864 161.609C59.287 161.609 56.7887 162.245 54.5917 163.518C52.3947 164.755 50.6583 166.469 49.3826 168.66C48.1069 170.852 47.469 173.344 47.469 176.136C47.469 178.929 48.1069 181.421 49.3826 183.612C50.6583 185.803 52.3947 187.535 54.5917 188.808ZM66.1262 183.718C64.9568 184.496 63.6102 184.884 62.0864 184.884C60.5627 184.884 59.1807 184.496 57.9404 183.718C56.7356 182.94 55.7965 181.898 55.1232 180.59C54.45 179.282 54.1133 177.798 54.1133 176.136C54.1133 174.475 54.45 172.99 55.1232 171.683C55.7965 170.339 56.7356 169.297 57.9404 168.554C59.1807 167.777 60.5627 167.388 62.0864 167.388C63.6102 167.388 64.9568 167.777 66.1262 168.554C67.331 169.297 68.2701 170.322 68.9433 171.63C69.6521 172.937 69.9887 174.44 69.9533 176.136C69.9887 177.798 69.6521 179.282 68.9433 180.59C68.2701 181.898 67.331 182.94 66.1262 183.718ZM0 190.305V162.091H6.46447L6.54107 166.159C6.66788 165.977 6.80262 165.799 6.9453 165.624C7.58641 164.803 8.35217 164.107 9.24259 163.536C10.133 162.929 11.0769 162.465 12.0741 162.144C13.0714 161.787 14.0865 161.609 15.1194 161.609C16.6509 161.609 18.0044 161.859 19.1797 162.358C20.3907 162.822 21.388 163.572 22.1715 164.607C22.7379 165.322 23.202 166.175 23.5641 167.163C23.9409 166.44 24.4383 165.784 25.0565 165.196C25.7688 164.482 26.5702 163.857 27.4607 163.322C28.3511 162.751 29.2771 162.323 30.2388 162.037C31.236 161.752 32.2155 161.609 33.1772 161.609C35.3142 161.609 37.095 162.037 38.5197 162.894C39.9444 163.75 41.0129 165.053 41.7252 166.802C42.4376 168.551 42.7937 170.71 42.7937 173.28V190.305H36.169V173.708C36.169 172.281 35.9731 171.103 35.5813 170.175C35.2251 169.247 34.6553 168.569 33.8717 168.14C33.1237 167.676 32.1799 167.444 31.0402 167.444C30.1497 167.444 29.2949 167.605 28.4757 167.926C27.6922 168.212 27.0154 168.64 26.4456 169.211C25.8757 169.747 25.4305 170.371 25.1099 171.085C24.7894 171.799 24.6291 172.584 24.6291 173.441V190.305H18.0044V173.655C18.0044 172.299 17.8085 171.174 17.4167 170.282C17.0249 169.354 16.455 168.658 15.7071 168.194C14.9591 167.694 14.0509 167.444 12.9824 167.444C12.0919 167.444 11.2549 167.605 10.4714 167.926C9.6878 168.212 9.01108 168.622 8.44121 169.158C7.87134 169.693 7.42613 170.318 7.10558 171.031C6.78503 171.745 6.62475 172.531 6.62475 173.387V190.305H0ZM312.836 188.811C315.117 190.046 317.738 190.664 320.697 190.664C322.016 190.664 323.353 190.487 324.708 190.134C326.063 189.782 327.346 189.305 328.558 188.705C329.806 188.07 330.912 187.312 331.874 186.43L328.612 181.931C327.328 183.025 326.134 183.784 325.029 184.207C323.924 184.63 322.711 184.842 321.392 184.842C319.503 184.842 317.845 184.489 316.419 183.784C315.028 183.043 313.941 182.002 313.157 180.661C312.653 179.759 312.319 178.754 312.154 177.644H332.944L332.997 175.369C333.033 173.393 332.73 171.576 332.088 169.918C331.482 168.224 330.591 166.778 329.414 165.578C328.238 164.343 326.847 163.373 325.243 162.667C323.638 161.962 321.909 161.609 320.055 161.609C317.952 161.609 316.009 161.979 314.226 162.72C312.479 163.426 310.964 164.449 309.68 165.79C308.433 167.095 307.452 168.648 306.739 170.447C306.026 172.246 305.67 174.24 305.67 176.427C305.67 179.179 306.293 181.631 307.541 183.784C308.825 185.9 310.59 187.576 312.836 188.811ZM312.299 173.199C312.449 172.497 312.664 171.862 312.943 171.294C313.549 170.024 314.44 169.053 315.617 168.383C316.829 167.713 318.308 167.377 320.055 167.377C321.196 167.377 322.23 167.624 323.157 168.118C324.12 168.577 324.904 169.23 325.51 170.076C326.116 170.888 326.473 171.841 326.58 172.934V173.199H312.299ZM286.97 190.305V162.195H293.516L293.574 166.996C293.905 166.395 294.301 165.826 294.76 165.289C295.734 164.151 296.852 163.262 298.115 162.622C299.413 161.947 300.765 161.609 302.172 161.609C302.785 161.609 303.362 161.662 303.903 161.769C304.48 161.875 304.949 162 305.31 162.142L303.525 169.343C303.128 169.129 302.641 168.952 302.064 168.809C301.487 168.667 300.91 168.596 300.333 168.596C299.431 168.596 298.565 168.774 297.736 169.129C296.942 169.45 296.239 169.912 295.626 170.516C295.013 171.121 294.526 171.832 294.165 172.65C293.841 173.432 293.678 174.321 293.678 175.317V190.305H286.97ZM259.577 189.344C261.079 190.224 262.849 190.664 264.888 190.664C266.461 190.664 267.945 190.365 269.34 189.767C270.734 189.133 271.932 188.307 272.934 187.286C273.328 186.885 273.678 186.464 273.984 186.022L274.06 190.136H280.497V162.326H273.899V179.001C273.899 179.881 273.738 180.708 273.416 181.482C273.094 182.22 272.647 182.871 272.075 183.434C271.503 183.962 270.824 184.384 270.037 184.701C269.286 184.982 268.446 185.123 267.516 185.123C266.264 185.123 265.192 184.841 264.298 184.278C263.404 183.716 262.724 182.924 262.259 181.904C261.794 180.848 261.562 179.582 261.562 178.104V162.326H254.964V179.476C254.964 181.798 255.358 183.804 256.144 185.492C256.931 187.146 258.075 188.43 259.577 189.344Z" fill="white"/>
<g clip-path="url(#clip0_1_872)">
<path d="M221.429 66.0474C221.429 96.2395 196.871 120.715 166.576 120.715C136.282 120.715 111.723 96.2395 111.723 66.0474C111.723 35.8553 136.282 11.3798 166.576 11.3798C196.871 11.3798 221.429 35.8553 221.429 66.0474Z" fill="#D0E9FD"/>
<path d="M152.625 116.513C180.582 83.1976 168.055 32.4139 127.785 15.8152C99.8281 49.1307 112.356 99.9144 152.625 116.513Z" fill="#E4EA80"/>
<path d="M159.853 120.271C177.676 80.6383 151.775 35.1572 108.495 30.0872C90.6724 69.7195 116.573 115.201 159.853 120.271Z" fill="#E4EA80"/>
<path fill-rule="evenodd" clip-rule="evenodd" d="M177.326 119.705H174.712C156.052 119.705 140.925 104.734 140.925 86.2652C140.925 80.0353 143.314 73.5946 144.943 69.205C145.17 68.5942 145.381 68.0232 145.57 67.4979C146.265 65.5635 145.442 63.6359 143.78 62.42L138.007 58.1963L147.976 55.5307L153.082 53.1075C157.702 51.4113 160.277 50.9266 164.265 50.9266C170.643 50.9266 176.447 54.5695 179.167 60.2788L201.309 108.29C194.5 113.958 186.307 117.966 177.326 119.705Z" fill="#F7EEE0"/>
<path fill-rule="evenodd" clip-rule="evenodd" d="M160.937 116.636C165.177 118.534 169.885 119.59 174.841 119.59H177.455C181.351 118.835 185.099 117.654 188.65 116.095C184.183 94.1738 165.71 77.3228 142.946 75.2235C141.91 78.6179 141.054 82.4215 141.054 86.1496C141.054 99.7125 149.212 111.39 160.937 116.636Z" fill="#F5AD7A"/>
<path fill-rule="evenodd" clip-rule="evenodd" d="M218.382 66.3562C218.382 81.0253 212.244 94.2656 202.387 103.665L196.448 90.7873L218.358 64.7659C218.374 65.294 218.382 65.8242 218.382 66.3562ZM177.619 123.052H177.414C173.903 123.714 170.28 124.061 166.576 124.061C162.882 124.061 159.268 123.716 155.766 123.057C112.704 115.647 87.5679 69.5058 105.714 29.154L106.629 27.1195L108.851 27.3797C111.334 27.6707 113.763 28.0887 116.133 28.6258C118.537 23.5783 121.632 18.7217 125.447 14.1757L126.882 12.4655L128.949 13.3176C131.6 14.41 134.135 15.6438 136.553 17.0056C145.307 11.7043 155.584 8.6515 166.576 8.6515C198.554 8.6515 224.477 34.4868 224.477 66.3562C224.477 87.0059 213.593 105.122 197.231 115.319C195.583 116.361 193.879 117.319 192.124 118.189L192.126 118.197L191.982 118.259C187.578 120.427 182.857 122.037 177.907 122.996L177.619 123.052ZM194.082 110.116C192.992 110.799 191.874 111.442 190.73 112.043C185.08 91.8413 168.032 76.3792 146.92 72.9754C147.22 72.1363 147.518 71.3306 147.801 70.5673L147.804 70.5578L147.805 70.556L147.806 70.5538C148.029 69.9516 148.245 69.3694 148.439 68.8304C149.685 65.3618 148.081 62.1084 145.583 60.2809L144.926 59.7998L149.034 58.7012L154.265 56.2189C158.525 54.6631 160.733 54.2727 164.265 54.2727C169.468 54.2727 174.192 57.2413 176.406 61.8742L197.544 107.708C196.424 108.558 195.27 109.361 194.082 110.116ZM142.38 20.6912C151.844 27.3784 159.106 36.1917 163.91 46.0872V14.7929C156.162 15.1844 148.863 17.2722 142.38 20.6912ZM158.403 48.6945C152.999 37.5881 144.189 27.984 132.412 21.6673L136.099 36.6762C142.272 40.4194 147.723 45.0973 152.313 50.4627C154.66 49.6108 156.558 49.0466 158.403 48.6945ZM146.513 53.0863C138.319 44.0448 127.342 37.3298 114.46 34.4777L139.064 77.7833C139.939 74.2411 141.129 71.035 142.024 68.6241L142.084 68.4607C142.312 67.8463 142.518 67.2909 142.701 66.7834C142.798 66.5116 142.787 66.2836 142.702 66.0569C142.608 65.8042 142.389 65.4792 141.976 65.1772L131.088 57.2108L146.513 53.0863ZM153.524 116.416C145.238 110.636 139.463 101.557 138.157 91.0974H116.495C124.875 103.44 137.757 112.826 153.524 116.416ZM181.92 59.2852C179.537 54.284 175.165 50.6261 170.004 49.0528V14.8369C180.738 15.5358 190.579 19.4922 198.543 25.7239L184.356 64.5676L181.928 59.3023L181.92 59.2852ZM193.633 84.6819L187.976 72.4162L203.438 30.0785C210.458 37.1629 215.437 46.2609 217.424 56.4249L193.633 84.6819ZM126.443 22.9112L128.894 32.8888C126.703 31.9029 124.44 31.0271 122.111 30.27C123.362 27.7561 124.805 25.2971 126.443 22.9112ZM122.8 61.4858L136.173 85.0232H112.859C109.065 77.7758 106.703 69.7736 106.041 61.4858H122.8ZM119.349 55.4116L109.054 37.2912C107.022 43.3047 105.991 49.4021 105.863 55.4116H119.349ZM145.177 78.854C144.536 81.379 144.102 83.9694 144.102 86.4584C144.102 98.7729 151.507 109.396 162.185 114.174C166.04 115.899 170.323 116.862 174.841 116.862H177.157C179.89 116.316 182.544 115.547 185.102 114.574C180.28 95.9458 164.589 81.6667 145.177 78.854ZM160.1 69.0785C162.204 69.0785 163.91 67.3788 163.91 65.2821C163.91 63.1855 162.204 61.4858 160.1 61.4858C157.997 61.4858 156.291 63.1855 156.291 65.2821C156.291 67.3788 157.997 69.0785 160.1 69.0785Z" fill="#243B4A"/>
</g>
<defs>
<clipPath id="clip0_1_872">
<rect width="133.314" height="132.863" fill="white" transform="translate(99.843)"/>
</clipPath>
</defs>
</svg>
