<svg width="1280" height="720" viewBox="0 0 1280 720" fill="none" xmlns="http://www.w3.org/2000/svg">
<g clip-path="url(#clip0_84_5650)">
<rect width="1280" height="720" fill="#F8BA88"/>
<path d="M1142.01 184.682C507.888 11.8066 380.24 -420.383 380.24 -655H-328V1366H2294.96C2294.96 1366 2685.27 605.408 1142.01 184.682Z" fill="#EDCF8D"/>
<path d="M119.198 -232.66C-231.726 -583.474 -536.486 -687.726 -645 -696V1378L2867 1339.39C2660.09 476.141 1840.71 316.178 1355.16 255.503C722.787 176.481 557.853 205.859 119.198 -232.66Z" fill="#E1E692"/>
<path d="M-395 -81.4039C-847 -873.404 -1349.65 -1291.94 -2131 -1121.22V698.596L1393 790.596C565 734.596 -123.344 394.596 -395 -81.4039Z" fill="#D7DFB1"/>
<path d="M-418.401 -11.5084C-1145.17 -1112 -2826.38 -1086.85 -3519.03 -934.71L-3380.66 2348.32L2035.31 1402.43C2602.16 1101.9 308.366 1088.98 -418.401 -11.5084Z" fill="#C7D5E0"/>
</g>
<defs>
<clipPath id="clip0_84_5650">
<rect width="1280" height="720" fill="white"/>
</clipPath>
</defs>
</svg>
