<svg width="320" height="568" viewBox="0 0 320 568" fill="none" xmlns="http://www.w3.org/2000/svg">
<g clip-path="url(#clip0_84_5636)">
<rect width="320" height="568" fill="#F8BA88"/>
<path d="M526.928 219.549C284.097 153.348 235.215 -12.1553 235.215 -102H-36V671.925H968.441C968.441 671.925 1117.91 380.663 526.928 219.549Z" fill="#EDCF8D"/>
<path d="M151.329 -57.0181C105.239 -176.919 44.1301 -233.631 19.3367 -247L-198.84 243.681L548.12 751.328C589.995 525.337 541.204 316.633 392.283 188.446C267.27 80.8375 208.942 92.8578 151.329 -57.0181Z" fill="#E1E692"/>
<path d="M-50.213 200.657C-223.303 -102.633 -415.788 -262.907 -715 -197.533V499.351L634.487 534.582C317.411 513.137 53.8156 382.937 -50.213 200.657Z" fill="#D7DFB1"/>
<path d="M-397.885 93.8672C-676.195 -327.557 -1320 -317.926 -1585.24 -259.665L-1532.26 997.544L541.744 635.322C758.814 520.239 -119.576 515.292 -397.885 93.8672Z" fill="#C7D5E0"/>
</g>
<defs>
<clipPath id="clip0_84_5636">
<rect width="320" height="568" fill="white"/>
</clipPath>
</defs>
</svg>
