<svg width="72" height="48" viewBox="0 0 72 48" fill="none" xmlns="http://www.w3.org/2000/svg">
<g clip-path="url(#clip0_5_600)">
<g filter="url(#filter0_dd_5_600)">
<path d="M0.5 47.5V0.5H71.5V47.5H0.5Z" stroke="white"/>
</g>
<path d="M36.0195 5.3335L35.1955 7.86965L36.4636 8.28167L36.0195 5.3335Z" fill="white"/>
<path d="M36.0195 5.3335L36.8436 7.86965L35.5755 8.28167L36.0195 5.3335Z" fill="white"/>
<path d="M38.5352 7.17627H35.8685V8.5096L38.5352 7.17627Z" fill="white"/>
<path d="M38.5352 7.17627L36.3778 8.7437L35.5941 7.66501L38.5352 7.17627Z" fill="white"/>
<path d="M37.5664 10.1548L36.7424 7.61863L35.4743 8.03066L37.5664 10.1548Z" fill="white"/>
<path d="M37.5664 10.1548L35.409 8.58736L36.1927 7.50867L37.5664 10.1548Z" fill="white"/>
<path d="M33.4844 7.17627H36.151V8.5096L33.4844 7.17627Z" fill="white"/>
<path d="M33.4844 7.17627L35.6418 8.7437L36.4255 7.66501L33.4844 7.17627Z" fill="white"/>
<path d="M34.4531 10.1548L35.2772 7.61863L36.5452 8.03066L34.4531 10.1548Z" fill="white"/>
<path d="M34.4531 10.1548L36.6105 8.58736L35.8268 7.50867L34.4531 10.1548Z" fill="white"/>
<path d="M36.0195 37.3335L35.1955 39.8696L36.4636 40.2817L36.0195 37.3335Z" fill="white"/>
<path d="M36.0195 37.3335L36.8436 39.8696L35.5755 40.2817L36.0195 37.3335Z" fill="white"/>
<path d="M38.5352 39.1763H35.8685V40.5096L38.5352 39.1763Z" fill="white"/>
<path d="M38.5352 39.1763L36.3778 40.7437L35.5941 39.665L38.5352 39.1763Z" fill="white"/>
<path d="M37.5664 42.1548L36.7424 39.6186L35.4743 40.0307L37.5664 42.1548Z" fill="white"/>
<path d="M37.5664 42.1548L35.409 40.5874L36.1927 39.5087L37.5664 42.1548Z" fill="white"/>
<path d="M33.4844 39.1763H36.151V40.5096L33.4844 39.1763Z" fill="white"/>
<path d="M33.4844 39.1763L35.6418 40.7437L36.4255 39.665L33.4844 39.1763Z" fill="white"/>
<path d="M34.4531 42.1548L35.2772 39.6186L36.5452 40.0307L34.4531 42.1548Z" fill="white"/>
<path d="M34.4531 42.1548L36.6105 40.5874L35.8268 39.5087L34.4531 42.1548Z" fill="white"/>
<path d="M20.0195 21.3335L19.1955 23.8696L20.4636 24.2817L20.0195 21.3335Z" fill="white"/>
<path d="M20.0195 21.3335L20.8436 23.8696L19.5755 24.2817L20.0195 21.3335Z" fill="white"/>
<path d="M22.5352 23.1763H19.8685V24.5096L22.5352 23.1763Z" fill="white"/>
<path d="M22.5352 23.1763L20.3778 24.7437L19.5941 23.665L22.5352 23.1763Z" fill="white"/>
<path d="M21.5664 26.1548L20.7424 23.6186L19.4743 24.0307L21.5664 26.1548Z" fill="white"/>
<path d="M21.5664 26.1548L19.409 24.5874L20.1927 23.5087L21.5664 26.1548Z" fill="white"/>
<path d="M17.4844 23.1763H20.151V24.5096L17.4844 23.1763Z" fill="white"/>
<path d="M17.4844 23.1763L19.6418 24.7437L20.4255 23.665L17.4844 23.1763Z" fill="white"/>
<path d="M18.4531 26.1548L19.2772 23.6186L20.5452 24.0307L18.4531 26.1548Z" fill="white"/>
<path d="M18.4531 26.1548L20.6105 24.5874L19.8268 23.5087L18.4531 26.1548Z" fill="white"/>
<path d="M26.4297 12.3022L28.5871 10.7348L27.8034 9.65613L26.4297 12.3022Z" fill="white"/>
<path d="M26.4297 12.3022L27.2537 9.7661L28.5218 10.1781L26.4297 12.3022Z" fill="white"/>
<path d="M25.4688 9.31982L27.6261 10.8873L28.4098 9.80856L25.4688 9.31982Z" fill="white"/>
<path d="M25.4688 9.31982H28.1354V10.6532L25.4688 9.31982Z" fill="white"/>
<path d="M28.0078 7.47705L27.1838 10.0132L28.4518 10.4252L28.0078 7.47705Z" fill="white"/>
<path d="M28.0078 7.47705L28.8319 10.0132L27.5638 10.4252L28.0078 7.47705Z" fill="white"/>
<path d="M29.5898 12.3008L27.4325 10.7334L28.2162 9.65466L29.5898 12.3008Z" fill="white"/>
<path d="M29.5898 12.3008L28.7658 9.76463L27.4977 10.1767L29.5898 12.3008Z" fill="white"/>
<path d="M30.5586 9.31934L28.4012 10.8868L27.6175 9.80807L30.5586 9.31934Z" fill="white"/>
<path d="M30.5586 9.31934H27.8919V10.6527L30.5586 9.31934Z" fill="white"/>
<path d="M23.707 18.1572L22.883 15.6211L21.6149 16.0331L23.707 18.1572Z" fill="white"/>
<path d="M23.707 18.1572L21.5497 16.5898L22.3334 15.5111L23.707 18.1572Z" fill="white"/>
<path d="M20.5547 18.1577L22.7121 16.5903L21.9284 15.5116L20.5547 18.1577Z" fill="white"/>
<path d="M20.5547 18.1577L21.3787 15.6215L22.6468 16.0336L20.5547 18.1577Z" fill="white"/>
<path d="M19.5859 15.1762L21.7433 16.7437L22.527 15.665L19.5859 15.1762Z" fill="white"/>
<path d="M19.5859 15.1762H22.2526V16.5096L19.5859 15.1762Z" fill="white"/>
<path d="M24.6797 15.1764L22.5223 16.7438L21.7386 15.6651L24.6797 15.1764Z" fill="white"/>
<path d="M24.6797 15.1764H22.013V16.5097L24.6797 15.1764Z" fill="white"/>
<path d="M22.1406 13.3336L22.9647 15.8698L21.6966 16.2818L22.1406 13.3336Z" fill="white"/>
<path d="M22.1406 13.3336L21.3166 15.8698L22.5847 16.2818L22.1406 13.3336Z" fill="white"/>
<path d="M24.6758 31.1768H22.0091V32.5101L24.6758 31.1768Z" fill="white"/>
<path d="M24.6758 31.1768L22.5184 32.7442L21.7347 31.6655L24.6758 31.1768Z" fill="white"/>
<path d="M23.715 34.1557L22.8909 31.6196L21.6228 32.0316L23.715 34.1557Z" fill="white"/>
<path d="M23.715 34.1557L21.5576 32.5883L22.3413 31.5096L23.715 34.1557Z" fill="white"/>
<path d="M20.5782 34.1587L22.7356 32.5912L21.9519 31.5125L20.5782 34.1587Z" fill="white"/>
<path d="M20.5782 34.1587L21.4023 31.6225L22.6704 32.0345L20.5782 34.1587Z" fill="white"/>
<path d="M22.1406 29.3335L22.9647 31.8696L21.6966 32.2816L22.1406 29.3335Z" fill="white"/>
<path d="M22.1406 29.3335L21.3166 31.8696L22.5847 32.2816L22.1406 29.3335Z" fill="white"/>
<path d="M19.6172 31.1762H22.2839V32.5096L19.6172 31.1762Z" fill="white"/>
<path d="M19.6172 31.1762L21.7746 32.7437L22.5583 31.665L19.6172 31.1762Z" fill="white"/>
<path d="M30.5312 37.0332H27.8646V38.3665L30.5312 37.0332Z" fill="white"/>
<path d="M30.5312 37.0332L28.3739 38.6006L27.5902 37.5219L30.5312 37.0332Z" fill="white"/>
<path d="M29.5704 40.0122L28.7464 37.476L27.4783 37.888L29.5704 40.0122Z" fill="white"/>
<path d="M29.5704 40.0122L27.4131 38.4447L28.1968 37.3661L29.5704 40.0122Z" fill="white"/>
<path d="M26.4337 40.0151L28.5911 38.4477L27.8074 37.369L26.4337 40.0151Z" fill="white"/>
<path d="M26.4337 40.0151L27.2578 37.479L28.5258 37.891L26.4337 40.0151Z" fill="white"/>
<path d="M27.9961 35.1899L28.8201 37.7261L27.5521 38.1381L27.9961 35.1899Z" fill="white"/>
<path d="M27.9961 35.1899L27.172 37.7261L28.4401 38.1381L27.9961 35.1899Z" fill="white"/>
<path d="M25.4727 37.0327H28.1393V38.366L25.4727 37.0327Z" fill="white"/>
<path d="M25.4727 37.0327L27.63 38.6001L28.4137 37.5214L25.4727 37.0327Z" fill="white"/>
<path d="M51.9961 21.3335L52.8201 23.8696L51.5521 24.2817L51.9961 21.3335Z" fill="white"/>
<path d="M51.9961 21.3335L51.172 23.8696L52.4401 24.2817L51.9961 21.3335Z" fill="white"/>
<path d="M49.4805 23.1763H52.1471V24.5096L49.4805 23.1763Z" fill="white"/>
<path d="M49.4805 23.1763L51.6378 24.7437L52.4216 23.665L49.4805 23.1763Z" fill="white"/>
<path d="M50.4492 26.1548L51.2733 23.6186L52.5413 24.0307L50.4492 26.1548Z" fill="white"/>
<path d="M50.4492 26.1548L52.6066 24.5874L51.8229 23.5087L50.4492 26.1548Z" fill="white"/>
<path d="M54.5312 23.1763H51.8646V24.5096L54.5312 23.1763Z" fill="white"/>
<path d="M54.5312 23.1763L52.3739 24.7437L51.5902 23.665L54.5312 23.1763Z" fill="white"/>
<path d="M53.5625 26.1548L52.7385 23.6186L51.4704 24.0307L53.5625 26.1548Z" fill="white"/>
<path d="M53.5625 26.1548L51.4051 24.5874L52.1888 23.5087L53.5625 26.1548Z" fill="white"/>
<path d="M45.5859 12.3022L43.4286 10.7348L44.2123 9.65613L45.5859 12.3022Z" fill="white"/>
<path d="M45.5859 12.3022L44.7619 9.7661L43.4938 10.1781L45.5859 12.3022Z" fill="white"/>
<path d="M46.5469 9.31982L44.3895 10.8873L43.6058 9.80856L46.5469 9.31982Z" fill="white"/>
<path d="M46.5469 9.31982H43.8802V10.6532L46.5469 9.31982Z" fill="white"/>
<path d="M44.0078 7.47705L44.8319 10.0132L43.5638 10.4252L44.0078 7.47705Z" fill="white"/>
<path d="M44.0078 7.47705L43.1838 10.0132L44.4518 10.4252L44.0078 7.47705Z" fill="white"/>
<path d="M42.4258 12.3008L44.5832 10.7334L43.7994 9.65466L42.4258 12.3008Z" fill="white"/>
<path d="M42.4258 12.3008L43.2498 9.76463L44.5179 10.1767L42.4258 12.3008Z" fill="white"/>
<path d="M41.457 9.31934L43.6144 10.8868L44.3981 9.80807L41.457 9.31934Z" fill="white"/>
<path d="M41.457 9.31934H44.1237V10.6527L41.457 9.31934Z" fill="white"/>
<path d="M48.3086 18.1572L49.1326 15.6211L50.4007 16.0331L48.3086 18.1572Z" fill="white"/>
<path d="M48.3086 18.1572L50.466 16.5898L49.6823 15.5111L48.3086 18.1572Z" fill="white"/>
<path d="M51.4609 18.1577L49.3036 16.5903L50.0873 15.5116L51.4609 18.1577Z" fill="white"/>
<path d="M51.4609 18.1577L50.6369 15.6215L49.3688 16.0336L51.4609 18.1577Z" fill="white"/>
<path d="M52.4297 15.1762L50.2723 16.7437L49.4886 15.665L52.4297 15.1762Z" fill="white"/>
<path d="M52.4297 15.1762H49.763V16.5096L52.4297 15.1762Z" fill="white"/>
<path d="M47.3359 15.1764L49.4933 16.7438L50.277 15.6651L47.3359 15.1764Z" fill="white"/>
<path d="M47.3359 15.1764H50.0026V16.5097L47.3359 15.1764Z" fill="white"/>
<path d="M49.875 13.3336L49.051 15.8698L50.319 16.2818L49.875 13.3336Z" fill="white"/>
<path d="M49.875 13.3336L50.699 15.8698L49.431 16.2818L49.875 13.3336Z" fill="white"/>
<path d="M47.3398 31.1768H50.0065V32.5101L47.3398 31.1768Z" fill="white"/>
<path d="M47.3398 31.1768L49.4972 32.7442L50.2809 31.6655L47.3398 31.1768Z" fill="white"/>
<path d="M48.3007 34.1557L49.1247 31.6196L50.3928 32.0316L48.3007 34.1557Z" fill="white"/>
<path d="M48.3007 34.1557L50.458 32.5883L49.6743 31.5096L48.3007 34.1557Z" fill="white"/>
<path d="M51.4374 34.1587L49.28 32.5912L50.0637 31.5125L51.4374 34.1587Z" fill="white"/>
<path d="M51.4374 34.1587L50.6133 31.6225L49.3453 32.0345L51.4374 34.1587Z" fill="white"/>
<path d="M49.875 29.3335L49.051 31.8696L50.319 32.2816L49.875 29.3335Z" fill="white"/>
<path d="M49.875 29.3335L50.699 31.8696L49.431 32.2816L49.875 29.3335Z" fill="white"/>
<path d="M52.3984 31.1762H49.7318V32.5096L52.3984 31.1762Z" fill="white"/>
<path d="M52.3984 31.1762L50.2411 32.7437L49.4573 31.665L52.3984 31.1762Z" fill="white"/>
<path d="M41.4844 37.0332H44.151V38.3665L41.4844 37.0332Z" fill="white"/>
<path d="M41.4844 37.0332L43.6418 38.6006L44.4255 37.5219L41.4844 37.0332Z" fill="white"/>
<path d="M42.4452 40.0122L43.2692 37.476L44.5373 37.888L42.4452 40.0122Z" fill="white"/>
<path d="M42.4452 40.0122L44.6026 38.4447L43.8189 37.3661L42.4452 40.0122Z" fill="white"/>
<path d="M45.5819 40.0151L43.4245 38.4477L44.2082 37.369L45.5819 40.0151Z" fill="white"/>
<path d="M45.5819 40.0151L44.7579 37.479L43.4898 37.891L45.5819 40.0151Z" fill="white"/>
<path d="M44.0195 35.1899L43.1955 37.7261L44.4636 38.1381L44.0195 35.1899Z" fill="white"/>
<path d="M44.0195 35.1899L44.8436 37.7261L43.5755 38.1381L44.0195 35.1899Z" fill="white"/>
<path d="M46.543 37.0327H43.8763V38.366L46.543 37.0327Z" fill="white"/>
<path d="M46.543 37.0327L44.3856 38.6001L43.6019 37.5214L46.543 37.0327Z" fill="white"/>
</g>
<defs>
<filter id="filter0_dd_5_600" x="-20" y="0" width="112" height="88" filterUnits="userSpaceOnUse" color-interpolation-filters="sRGB">
<feFlood flood-opacity="0" result="BackgroundImageFix"/>
<feColorMatrix in="SourceAlpha" type="matrix" values="0 0 0 0 0 0 0 0 0 0 0 0 0 0 0 0 0 0 127 0" result="hardAlpha"/>
<feMorphology radius="5" operator="erode" in="SourceAlpha" result="effect1_dropShadow_5_600"/>
<feOffset dy="10"/>
<feGaussianBlur stdDeviation="5"/>
<feColorMatrix type="matrix" values="0 0 0 0 0 0 0 0 0 0 0 0 0 0 0 0 0 0 0.04 0"/>
<feBlend mode="normal" in2="BackgroundImageFix" result="effect1_dropShadow_5_600"/>
<feColorMatrix in="SourceAlpha" type="matrix" values="0 0 0 0 0 0 0 0 0 0 0 0 0 0 0 0 0 0 127 0" result="hardAlpha"/>
<feMorphology radius="5" operator="erode" in="SourceAlpha" result="effect2_dropShadow_5_600"/>
<feOffset dy="20"/>
<feGaussianBlur stdDeviation="12.5"/>
<feColorMatrix type="matrix" values="0 0 0 0 0 0 0 0 0 0 0 0 0 0 0 0 0 0 0.1 0"/>
<feBlend mode="normal" in2="effect1_dropShadow_5_600" result="effect2_dropShadow_5_600"/>
<feBlend mode="normal" in="SourceGraphic" in2="effect2_dropShadow_5_600" result="shape"/>
</filter>
<clipPath id="clip0_5_600">
<rect width="72" height="48" fill="white"/>
</clipPath>
</defs>
</svg>
