<svg width="60" height="40" viewBox="0 0 60 40" fill="none" xmlns="http://www.w3.org/2000/svg">
<g clip-path="url(#clip0_84_2829)">
<g filter="url(#filter0_dd_84_2829)">
<path d="M0.5 0.5H59.5V39.5H0.5V0.5Z" stroke="#243B4A"/>
</g>
<path d="M30.0161 4.44458L29.3294 6.55804L30.3861 6.90139L30.0161 4.44458Z" fill="#243B4A"/>
<path d="M30.0161 4.44458L30.7028 6.55804L29.6461 6.90139L30.0161 4.44458Z" fill="#243B4A"/>
<path d="M32.1125 5.98022H29.8903V7.09134L32.1125 5.98022Z" fill="#243B4A"/>
<path d="M32.1125 5.98022L30.3147 7.28641L29.6616 6.38751L32.1125 5.98022Z" fill="#243B4A"/>
<path d="M31.3049 8.46234L30.6182 6.34888L29.5615 6.69223L31.3049 8.46234Z" fill="#243B4A"/>
<path d="M31.3049 8.46234L29.5071 7.15615L30.1602 6.25724L31.3049 8.46234Z" fill="#243B4A"/>
<path d="M27.9033 5.98022H30.1255V7.09134L27.9033 5.98022Z" fill="#243B4A"/>
<path d="M27.9033 5.98022L29.7011 7.28641L30.3542 6.38751L27.9033 5.98022Z" fill="#243B4A"/>
<path d="M28.7109 8.46234L29.3976 6.34888L30.4544 6.69223L28.7109 8.46234Z" fill="#243B4A"/>
<path d="M28.7109 8.46234L30.5088 7.15615L29.8557 6.25724L28.7109 8.46234Z" fill="#243B4A"/>
<path d="M30.0161 31.1113L29.3294 33.2247L30.3861 33.5681L30.0161 31.1113Z" fill="#243B4A"/>
<path d="M30.0161 31.1113L30.7028 33.2247L29.6461 33.5681L30.0161 31.1113Z" fill="#243B4A"/>
<path d="M32.1125 32.6469H29.8903V33.758L32.1125 32.6469Z" fill="#243B4A"/>
<path d="M32.1125 32.6469L30.3147 33.9531L29.6616 33.0542L32.1125 32.6469Z" fill="#243B4A"/>
<path d="M31.3049 35.129L30.6182 33.0156L29.5615 33.3589L31.3049 35.129Z" fill="#243B4A"/>
<path d="M31.3049 35.129L29.5071 33.8228L30.1602 32.9239L31.3049 35.129Z" fill="#243B4A"/>
<path d="M27.9033 32.6469H30.1255V33.758L27.9033 32.6469Z" fill="#243B4A"/>
<path d="M27.9033 32.6469L29.7011 33.9531L30.3542 33.0542L27.9033 32.6469Z" fill="#243B4A"/>
<path d="M28.7109 35.129L29.3976 33.0156L30.4544 33.3589L28.7109 35.129Z" fill="#243B4A"/>
<path d="M28.7109 35.129L30.5088 33.8228L29.8557 32.9239L28.7109 35.129Z" fill="#243B4A"/>
<path d="M16.6829 17.778L15.9962 19.8914L17.0529 20.2348L16.6829 17.778Z" fill="#243B4A"/>
<path d="M16.6829 17.778L17.3696 19.8914L16.3128 20.2348L16.6829 17.778Z" fill="#243B4A"/>
<path d="M18.7793 19.3136H16.5571V20.4247L18.7793 19.3136Z" fill="#243B4A"/>
<path d="M18.7793 19.3136L16.9815 20.6198L16.3284 19.7209L18.7793 19.3136Z" fill="#243B4A"/>
<path d="M17.9717 21.7957L17.285 19.6823L16.2282 20.0256L17.9717 21.7957Z" fill="#243B4A"/>
<path d="M17.9717 21.7957L16.1739 20.4895L16.827 19.5906L17.9717 21.7957Z" fill="#243B4A"/>
<path d="M14.5701 19.3136H16.7923V20.4247L14.5701 19.3136Z" fill="#243B4A"/>
<path d="M14.5701 19.3136L16.3679 20.6198L17.021 19.7209L14.5701 19.3136Z" fill="#243B4A"/>
<path d="M15.3777 21.7957L16.0644 19.6823L17.1211 20.0256L15.3777 21.7957Z" fill="#243B4A"/>
<path d="M15.3777 21.7957L17.1755 20.4895L16.5224 19.5906L15.3777 21.7957Z" fill="#243B4A"/>
<path d="M22.0247 10.2518L23.8225 8.94564L23.1694 8.04673L22.0247 10.2518Z" fill="#243B4A"/>
<path d="M22.0247 10.2518L22.7114 8.13837L23.7681 8.48172L22.0247 10.2518Z" fill="#243B4A"/>
<path d="M21.2239 7.76654L23.0217 9.07273L23.6748 8.17382L21.2239 7.76654Z" fill="#243B4A"/>
<path d="M21.2239 7.76654H23.4461V8.87765L21.2239 7.76654Z" fill="#243B4A"/>
<path d="M23.3396 6.2309L22.6529 8.34435L23.7096 8.68771L23.3396 6.2309Z" fill="#243B4A"/>
<path d="M23.3396 6.2309L24.0263 8.34435L22.9696 8.68771L23.3396 6.2309Z" fill="#243B4A"/>
<path d="M24.6582 10.2506L22.8604 8.94442L23.5135 8.04551L24.6582 10.2506Z" fill="#243B4A"/>
<path d="M24.6582 10.2506L23.9715 8.13715L22.9148 8.4805L24.6582 10.2506Z" fill="#243B4A"/>
<path d="M25.4653 7.76611L23.6675 9.0723L23.0144 8.1734L25.4653 7.76611Z" fill="#243B4A"/>
<path d="M25.4653 7.76611H23.2431V8.87722L25.4653 7.76611Z" fill="#243B4A"/>
<path d="M19.7556 15.131L19.0689 13.0176L18.0122 13.3609L19.7556 15.131Z" fill="#243B4A"/>
<path d="M19.7556 15.131L17.9578 13.8249L18.6109 12.9259L19.7556 15.131Z" fill="#243B4A"/>
<path d="M17.1289 15.1314L18.9267 13.8252L18.2736 12.9263L17.1289 15.1314Z" fill="#243B4A"/>
<path d="M17.1289 15.1314L17.8156 13.0179L18.8723 13.3613L17.1289 15.1314Z" fill="#243B4A"/>
<path d="M16.3218 12.6469L18.1196 13.9531L18.7727 13.0542L16.3218 12.6469Z" fill="#243B4A"/>
<path d="M16.3218 12.6469H18.544V13.758L16.3218 12.6469Z" fill="#243B4A"/>
<path d="M20.5662 12.647L18.7683 13.9532L18.1153 13.0543L20.5662 12.647Z" fill="#243B4A"/>
<path d="M20.5662 12.647H18.3439V13.7581L20.5662 12.647Z" fill="#243B4A"/>
<path d="M18.4504 11.1114L19.1371 13.2248L18.0804 13.5682L18.4504 11.1114Z" fill="#243B4A"/>
<path d="M18.4504 11.1114L17.7637 13.2248L18.8205 13.5682L18.4504 11.1114Z" fill="#243B4A"/>
<path d="M20.563 25.9806H18.3408V27.0917L20.563 25.9806Z" fill="#243B4A"/>
<path d="M20.563 25.9806L18.7652 27.2868L18.1121 26.3879L20.563 25.9806Z" fill="#243B4A"/>
<path d="M19.762 28.4631L19.0753 26.3497L18.0185 26.693L19.762 28.4631Z" fill="#243B4A"/>
<path d="M19.762 28.4631L17.9641 27.1569L18.6172 26.258L19.762 28.4631Z" fill="#243B4A"/>
<path d="M17.1479 28.4655L18.9458 27.1593L18.2927 26.2604L17.1479 28.4655Z" fill="#243B4A"/>
<path d="M17.1479 28.4655L17.8347 26.3521L18.8914 26.6954L17.1479 28.4655Z" fill="#243B4A"/>
<path d="M18.4502 24.4445L19.1369 26.558L18.0802 26.9013L18.4502 24.4445Z" fill="#243B4A"/>
<path d="M18.4502 24.4445L17.7635 26.558L18.8202 26.9013L18.4502 24.4445Z" fill="#243B4A"/>
<path d="M16.3472 25.9802H18.5694V27.0913L16.3472 25.9802Z" fill="#243B4A"/>
<path d="M16.3472 25.9802L18.145 27.2864L18.7981 26.3874L16.3472 25.9802Z" fill="#243B4A"/>
<path d="M25.4426 30.861H23.2204V31.9721L25.4426 30.861Z" fill="#243B4A"/>
<path d="M25.4426 30.861L23.6448 32.1672L22.9917 31.2682L25.4426 30.861Z" fill="#243B4A"/>
<path d="M24.6416 33.3435L23.9549 31.23L22.8982 31.5734L24.6416 33.3435Z" fill="#243B4A"/>
<path d="M24.6416 33.3435L22.8438 32.0373L23.4969 31.1384L24.6416 33.3435Z" fill="#243B4A"/>
<path d="M22.0276 33.3459L23.8254 32.0397L23.1723 31.1408L22.0276 33.3459Z" fill="#243B4A"/>
<path d="M22.0276 33.3459L22.7143 31.2324L23.771 31.5758L22.0276 33.3459Z" fill="#243B4A"/>
<path d="M23.3298 29.3249L24.0165 31.4383L22.9598 31.7817L23.3298 29.3249Z" fill="#243B4A"/>
<path d="M23.3298 29.3249L22.6431 31.4383L23.6999 31.7817L23.3298 29.3249Z" fill="#243B4A"/>
<path d="M21.2268 30.8605H23.449V31.9716L21.2268 30.8605Z" fill="#243B4A"/>
<path d="M21.2268 30.8605L23.0246 32.1667L23.6777 31.2678L21.2268 30.8605Z" fill="#243B4A"/>
<path d="M43.3298 17.778L44.0165 19.8914L42.9598 20.2348L43.3298 17.778Z" fill="#243B4A"/>
<path d="M43.3298 17.778L42.6431 19.8914L43.6999 20.2348L43.3298 17.778Z" fill="#243B4A"/>
<path d="M41.2334 19.3136H43.4556V20.4247L41.2334 19.3136Z" fill="#243B4A"/>
<path d="M41.2334 19.3136L43.0312 20.6198L43.6843 19.7209L41.2334 19.3136Z" fill="#243B4A"/>
<path d="M42.041 21.7957L42.7277 19.6823L43.7844 20.0256L42.041 21.7957Z" fill="#243B4A"/>
<path d="M42.041 21.7957L43.8388 20.4895L43.1857 19.5906L42.041 21.7957Z" fill="#243B4A"/>
<path d="M45.4426 19.3136H43.2204V20.4247L45.4426 19.3136Z" fill="#243B4A"/>
<path d="M45.4426 19.3136L43.6448 20.6198L42.9917 19.7209L45.4426 19.3136Z" fill="#243B4A"/>
<path d="M44.635 21.7957L43.9483 19.6823L42.8916 20.0256L44.635 21.7957Z" fill="#243B4A"/>
<path d="M44.635 21.7957L42.8372 20.4895L43.4903 19.5906L44.635 21.7957Z" fill="#243B4A"/>
<path d="M37.988 10.2518L36.1902 8.94564L36.8433 8.04673L37.988 10.2518Z" fill="#243B4A"/>
<path d="M37.988 10.2518L37.3013 8.13837L36.2446 8.48172L37.988 10.2518Z" fill="#243B4A"/>
<path d="M38.7888 7.76654L36.991 9.07273L36.3379 8.17382L38.7888 7.76654Z" fill="#243B4A"/>
<path d="M38.7888 7.76654H36.5666V8.87765L38.7888 7.76654Z" fill="#243B4A"/>
<path d="M36.6731 6.2309L37.3598 8.34435L36.3031 8.68771L36.6731 6.2309Z" fill="#243B4A"/>
<path d="M36.6731 6.2309L35.9864 8.34435L37.0431 8.68771L36.6731 6.2309Z" fill="#243B4A"/>
<path d="M35.3545 10.2506L37.1523 8.94442L36.4992 8.04551L35.3545 10.2506Z" fill="#243B4A"/>
<path d="M35.3545 10.2506L36.0412 8.13715L37.0979 8.4805L35.3545 10.2506Z" fill="#243B4A"/>
<path d="M34.5474 7.76611L36.3452 9.0723L36.9983 8.1734L34.5474 7.76611Z" fill="#243B4A"/>
<path d="M34.5474 7.76611H36.7696V8.87722L34.5474 7.76611Z" fill="#243B4A"/>
<path d="M40.2571 15.131L40.9438 13.0176L42.0005 13.3609L40.2571 15.131Z" fill="#243B4A"/>
<path d="M40.2571 15.131L42.0549 13.8249L41.4018 12.9259L40.2571 15.131Z" fill="#243B4A"/>
<path d="M42.8838 15.1314L41.086 13.8252L41.7391 12.9263L42.8838 15.1314Z" fill="#243B4A"/>
<path d="M42.8838 15.1314L42.1971 13.0179L41.1404 13.3613L42.8838 15.1314Z" fill="#243B4A"/>
<path d="M43.6909 12.6469L41.8931 13.9531L41.24 13.0542L43.6909 12.6469Z" fill="#243B4A"/>
<path d="M43.6909 12.6469H41.4687V13.758L43.6909 12.6469Z" fill="#243B4A"/>
<path d="M39.4465 12.647L41.2443 13.9532L41.8974 13.0543L39.4465 12.647Z" fill="#243B4A"/>
<path d="M39.4465 12.647H41.6688V13.7581L39.4465 12.647Z" fill="#243B4A"/>
<path d="M41.5623 11.1114L40.8756 13.2248L41.9323 13.5682L41.5623 11.1114Z" fill="#243B4A"/>
<path d="M41.5623 11.1114L42.249 13.2248L41.1922 13.5682L41.5623 11.1114Z" fill="#243B4A"/>
<path d="M39.4497 25.9806H41.6719V27.0917L39.4497 25.9806Z" fill="#243B4A"/>
<path d="M39.4497 25.9806L41.2475 27.2868L41.9006 26.3879L39.4497 25.9806Z" fill="#243B4A"/>
<path d="M40.2507 28.4631L40.9374 26.3497L41.9942 26.693L40.2507 28.4631Z" fill="#243B4A"/>
<path d="M40.2507 28.4631L42.0485 27.1569L41.3955 26.258L40.2507 28.4631Z" fill="#243B4A"/>
<path d="M42.8647 28.4655L41.0669 27.1593L41.72 26.2604L42.8647 28.4655Z" fill="#243B4A"/>
<path d="M42.8647 28.4655L42.178 26.3521L41.1213 26.6954L42.8647 28.4655Z" fill="#243B4A"/>
<path d="M41.5625 24.4445L40.8758 26.558L41.9325 26.9013L41.5625 24.4445Z" fill="#243B4A"/>
<path d="M41.5625 24.4445L42.2492 26.558L41.1925 26.9013L41.5625 24.4445Z" fill="#243B4A"/>
<path d="M43.6655 25.9802H41.4433V27.0913L43.6655 25.9802Z" fill="#243B4A"/>
<path d="M43.6655 25.9802L41.8677 27.2864L41.2146 26.3874L43.6655 25.9802Z" fill="#243B4A"/>
<path d="M34.5701 30.861H36.7923V31.9721L34.5701 30.861Z" fill="#243B4A"/>
<path d="M34.5701 30.861L36.3679 32.1672L37.021 31.2682L34.5701 30.861Z" fill="#243B4A"/>
<path d="M35.3711 33.3435L36.0578 31.23L37.1145 31.5734L35.3711 33.3435Z" fill="#243B4A"/>
<path d="M35.3711 33.3435L37.1689 32.0373L36.5158 31.1384L35.3711 33.3435Z" fill="#243B4A"/>
<path d="M37.9851 33.3459L36.1873 32.0397L36.8404 31.1408L37.9851 33.3459Z" fill="#243B4A"/>
<path d="M37.9851 33.3459L37.2984 31.2324L36.2417 31.5758L37.9851 33.3459Z" fill="#243B4A"/>
<path d="M36.6829 29.3249L35.9962 31.4383L37.0529 31.7817L36.6829 29.3249Z" fill="#243B4A"/>
<path d="M36.6829 29.3249L37.3696 31.4383L36.3128 31.7817L36.6829 29.3249Z" fill="#243B4A"/>
<path d="M38.7859 30.8605H36.5637V31.9716L38.7859 30.8605Z" fill="#243B4A"/>
<path d="M38.7859 30.8605L36.9881 32.1667L36.335 31.2678L38.7859 30.8605Z" fill="#243B4A"/>
</g>
<defs>
<filter id="filter0_dd_84_2829" x="-20" y="0" width="100" height="80" filterUnits="userSpaceOnUse" color-interpolation-filters="sRGB">
<feFlood flood-opacity="0" result="BackgroundImageFix"/>
<feColorMatrix in="SourceAlpha" type="matrix" values="0 0 0 0 0 0 0 0 0 0 0 0 0 0 0 0 0 0 127 0" result="hardAlpha"/>
<feMorphology radius="5" operator="erode" in="SourceAlpha" result="effect1_dropShadow_84_2829"/>
<feOffset dy="10"/>
<feGaussianBlur stdDeviation="5"/>
<feColorMatrix type="matrix" values="0 0 0 0 0 0 0 0 0 0 0 0 0 0 0 0 0 0 0.04 0"/>
<feBlend mode="normal" in2="BackgroundImageFix" result="effect1_dropShadow_84_2829"/>
<feColorMatrix in="SourceAlpha" type="matrix" values="0 0 0 0 0 0 0 0 0 0 0 0 0 0 0 0 0 0 127 0" result="hardAlpha"/>
<feMorphology radius="5" operator="erode" in="SourceAlpha" result="effect2_dropShadow_84_2829"/>
<feOffset dy="20"/>
<feGaussianBlur stdDeviation="12.5"/>
<feColorMatrix type="matrix" values="0 0 0 0 0 0 0 0 0 0 0 0 0 0 0 0 0 0 0.1 0"/>
<feBlend mode="normal" in2="effect1_dropShadow_84_2829" result="effect2_dropShadow_84_2829"/>
<feBlend mode="normal" in="SourceGraphic" in2="effect2_dropShadow_84_2829" result="shape"/>
</filter>
<clipPath id="clip0_84_2829">
<rect width="60" height="40" fill="white"/>
</clipPath>
</defs>
</svg>
