<svg width="189" height="40" viewBox="0 0 189 40" fill="none" xmlns="http://www.w3.org/2000/svg">
<path fill-rule="evenodd" clip-rule="evenodd" d="M114.568 23.2348V27.2H116.755V23.2348H119.321V21.1687H116.755V12.5913H115.01L107.797 21.3565L108.765 23.2348H114.568ZM114.568 21.1687V16.1922L110.464 21.1687H114.568ZM150.162 27.2V18.3304H147.87V16.2435H150.162V13.447H152.328V16.2435H154.894V18.3304H152.328V27.2H150.162ZM184.021 27.4087C182.885 27.4087 181.876 27.1722 180.993 26.6991C180.123 26.2122 179.436 25.5513 178.932 24.7165C178.441 23.8817 178.196 22.9217 178.196 21.8365C178.196 20.9739 178.336 20.1878 178.616 19.4783C178.897 18.7687 179.282 18.1565 179.773 17.6417C180.278 17.113 180.873 16.7096 181.56 16.4313C182.261 16.1391 183.018 15.993 183.831 15.993C184.546 15.993 185.212 16.1322 185.829 16.4104C186.446 16.6748 186.979 17.0435 187.427 17.5165C187.89 17.9896 188.24 18.553 188.479 19.207C188.731 19.847 188.85 20.5496 188.836 21.3148L188.815 22.233H180.369C180.429 22.7757 180.581 23.2626 180.824 23.6939C181.147 24.2504 181.602 24.6817 182.191 24.9878C182.78 25.2939 183.46 25.447 184.231 25.447C184.778 25.447 185.282 25.3565 185.745 25.1757C186.222 24.9948 186.733 24.6678 187.28 24.1948L188.374 25.7183C188.037 26.0522 187.624 26.3443 187.133 26.5948C186.656 26.8452 186.145 27.047 185.598 27.2C185.065 27.3391 184.539 27.4087 184.021 27.4087ZM180.74 19.6661C180.615 19.9219 180.519 20.2071 180.452 20.5217H186.628V20.3756C186.586 19.9165 186.432 19.5061 186.166 19.1443C185.899 18.7826 185.563 18.4974 185.156 18.2887C184.75 18.08 184.308 17.9756 183.831 17.9756C183.074 17.9756 182.437 18.1217 181.918 18.4139C181.399 18.6922 181.007 19.1096 180.74 19.6661ZM170.439 27.2V16.2435H172.626V18.294C172.773 17.9803 172.962 17.6864 173.194 17.4122C173.572 16.9809 174 16.64 174.477 16.3895C174.967 16.1391 175.472 16.0139 175.991 16.0139C176.229 16.0139 176.453 16.0348 176.664 16.0765C176.888 16.1182 177.063 16.1669 177.189 16.2226L176.622 18.56C176.453 18.4904 176.264 18.4348 176.054 18.393C175.857 18.3374 175.661 18.3095 175.465 18.3095C175.086 18.3095 174.722 18.3861 174.371 18.5391C174.035 18.6782 173.734 18.88 173.467 19.1443C173.215 19.3948 173.012 19.6939 172.857 20.0417C172.703 20.3756 172.626 20.7443 172.626 21.1478V27.2H170.439ZM159.095 26.8661C159.684 27.2278 160.371 27.4087 161.156 27.4087C161.787 27.4087 162.375 27.2905 162.922 27.0539C163.469 26.8035 163.939 26.4696 164.331 26.0522C164.517 25.861 164.678 25.6596 164.815 25.448V27.2H166.981V16.2435H164.815V22.8383C164.815 23.2278 164.745 23.5896 164.604 23.9235C164.464 24.2574 164.268 24.5426 164.016 24.7792C163.777 25.0157 163.49 25.2035 163.153 25.3426C162.817 25.4678 162.446 25.5305 162.039 25.5305C161.492 25.5305 161.023 25.4052 160.63 25.1548C160.252 24.9044 159.957 24.5496 159.747 24.0905C159.551 23.6174 159.452 23.0609 159.452 22.4209V16.2435H157.287V23.0052C157.287 23.9096 157.441 24.6887 157.749 25.3426C158.072 25.9965 158.52 26.5044 159.095 26.8661ZM136.813 26.6574C137.57 27.1582 138.404 27.4087 139.316 27.4087C139.848 27.4087 140.353 27.3252 140.83 27.1582C141.32 26.9913 141.762 26.7687 142.155 26.4904C142.561 26.2122 142.891 25.8991 143.143 25.5513L143.164 25.5225V27.2H145.351V16.2435H143.164V17.9254C142.945 17.5653 142.665 17.2482 142.323 16.9739C141.972 16.6678 141.559 16.4313 141.082 16.2643C140.605 16.0974 140.08 16.0139 139.505 16.0139C138.538 16.0139 137.661 16.2574 136.876 16.7443C136.105 17.2313 135.489 17.9061 135.026 18.7687C134.577 19.6174 134.353 20.5913 134.353 21.6904C134.353 22.7756 134.577 23.7496 135.026 24.6122C135.475 25.4748 136.07 26.1565 136.813 26.6574ZM141.629 24.9461C141.124 25.2661 140.542 25.4261 139.883 25.4261C139.239 25.4261 138.664 25.2661 138.159 24.9461C137.668 24.6261 137.276 24.1878 136.982 23.6313C136.701 23.0609 136.561 22.4139 136.561 21.6904C136.561 20.9809 136.701 20.3478 136.982 19.7913C137.276 19.2348 137.668 18.7965 138.159 18.4765C138.664 18.1565 139.239 17.9965 139.883 17.9965C140.542 17.9965 141.124 18.1565 141.629 18.4765C142.134 18.7965 142.526 19.2348 142.806 19.7913C143.101 20.3478 143.248 20.9809 143.248 21.6904C143.248 22.4139 143.101 23.0609 142.806 23.6313C142.526 24.1878 142.134 24.6261 141.629 24.9461ZM122.141 27.2V16.2435H124.307V17.9424C124.431 17.7583 124.578 17.5815 124.749 17.4122C125.155 16.9948 125.639 16.6609 126.2 16.4104C126.76 16.1461 127.335 16.0139 127.924 16.0139C128.765 16.0139 129.466 16.1809 130.027 16.5148C130.588 16.8348 131.008 17.3287 131.289 17.9965C131.569 18.6643 131.709 19.5061 131.709 20.5217V27.2H129.543V20.6678C129.543 20.0417 129.459 19.5269 129.291 19.1235C129.123 18.7061 128.863 18.4069 128.513 18.2261C128.162 18.0313 127.728 17.9478 127.209 17.9756C126.788 17.9756 126.403 18.0452 126.052 18.1843C125.702 18.3095 125.394 18.4904 125.127 18.7269C124.875 18.9635 124.672 19.2417 124.517 19.5617C124.377 19.8678 124.307 20.2017 124.307 20.5635V27.2H123.235H122.688H122.141ZM101.091 27.4087C99.955 27.4087 98.9456 27.1722 98.0624 26.6991C97.1933 26.2122 96.5063 25.5513 96.0017 24.7165C95.511 23.8817 95.2657 22.9217 95.2657 21.8365C95.2657 20.9739 95.4058 20.1878 95.6862 19.4783C95.9666 18.7687 96.3521 18.1565 96.8428 17.6417C97.3475 17.113 97.9433 16.7096 98.6302 16.4313C99.3312 16.1391 100.088 15.993 100.901 15.993C101.616 15.993 102.282 16.1322 102.899 16.4104C103.516 16.6748 104.049 17.0435 104.497 17.5165C104.96 17.9896 105.31 18.553 105.549 19.207C105.801 19.847 105.92 20.5496 105.906 21.3148L105.885 22.233H97.4393C97.4988 22.7757 97.6504 23.2626 97.8942 23.6939C98.2166 24.2504 98.6723 24.6817 99.2611 24.9878C99.8499 25.2939 100.53 25.447 101.301 25.447C101.848 25.447 102.352 25.3565 102.815 25.1757C103.292 24.9948 103.803 24.6678 104.35 24.1948L105.443 25.7183C105.107 26.0522 104.693 26.3443 104.203 26.5948C103.726 26.8452 103.214 27.047 102.668 27.2C102.135 27.3391 101.609 27.4087 101.091 27.4087ZM97.5222 20.5217H103.698V20.3756C103.656 19.9165 103.502 19.5061 103.235 19.1443C102.969 18.7826 102.633 18.4974 102.226 18.2887C101.82 18.08 101.378 17.9756 100.901 17.9756C100.144 17.9756 99.5064 18.1217 98.9877 18.4139C98.469 18.6922 98.0765 19.1096 97.8101 19.6661C97.6845 19.9219 97.5885 20.2071 97.5222 20.5217ZM87.5092 16.2435V27.2H89.6962V21.1478C89.6962 20.7443 89.7733 20.3756 89.9275 20.0417C90.0817 19.6939 90.285 19.3948 90.5373 19.1443C90.8037 18.88 91.1051 18.6782 91.4415 18.5391C91.792 18.3861 92.1565 18.3095 92.535 18.3095C92.7313 18.3095 92.9275 18.3374 93.1238 18.393C93.3341 18.4348 93.5233 18.4904 93.6916 18.56L94.2593 16.2226C94.1332 16.1669 93.9579 16.1182 93.7336 16.0765C93.5233 16.0348 93.299 16.0139 93.0607 16.0139C92.542 16.0139 92.0373 16.1391 91.5467 16.3895C91.07 16.64 90.6424 16.9809 90.2639 17.4122C90.0322 17.6864 89.8429 17.9803 89.6962 18.294V16.2435H87.5092ZM79.1139 27.4087C78.0344 27.4087 77.0671 27.1652 76.212 26.6782C75.3708 26.1774 74.7049 25.5026 74.2143 24.6539C73.7236 23.7913 73.4783 22.8104 73.4783 21.7113C73.4783 20.6122 73.7236 19.6382 74.2143 18.7895C74.7049 17.9269 75.3708 17.2522 76.212 16.7652C77.0671 16.2643 78.0344 16.0139 79.1139 16.0139C80.1793 16.0139 81.1326 16.2643 81.9738 16.7652C82.8289 17.2522 83.5018 17.9269 83.9925 18.7895C84.4831 19.6382 84.7285 20.6122 84.7285 21.7113C84.7285 22.8104 84.4831 23.7913 83.9925 24.6539C83.5018 25.5026 82.8289 26.1774 81.9738 26.6782C81.1326 27.1652 80.1793 27.4087 79.1139 27.4087ZM79.1139 25.4469C79.7728 25.4469 80.3616 25.2869 80.8803 24.9669C81.399 24.633 81.8055 24.1878 82.0999 23.6313C82.3943 23.0609 82.5345 22.4209 82.5205 21.7113C82.5345 20.9878 82.3943 20.3478 82.0999 19.7913C81.8055 19.2209 81.399 18.7756 80.8803 18.4556C80.3616 18.1356 79.7728 17.9756 79.1139 17.9756C78.455 17.9756 77.8592 18.1426 77.3265 18.4765C76.8078 18.7965 76.4012 19.2417 76.1068 19.8122C75.8124 20.3687 75.6722 21.0017 75.6862 21.7113C75.6722 22.4209 75.8124 23.0609 76.1068 23.6313C76.4012 24.1878 76.8078 24.633 77.3265 24.9669C77.8592 25.2869 78.455 25.4469 79.1139 25.4469ZM54.3235 16.2435V27.2H56.5104V20.6052C56.5104 20.2435 56.5805 19.9096 56.7207 19.6035C56.8609 19.2835 57.0572 19.0122 57.3095 18.7896C57.5619 18.5531 57.8563 18.3722 58.1927 18.247C58.5292 18.1078 58.8937 18.0383 59.2862 18.0383C59.7488 18.0383 60.1414 18.1426 60.4638 18.3513C60.7862 18.56 61.0316 18.8661 61.1998 19.2696C61.368 19.6591 61.4521 20.1391 61.4521 20.7096V27.2H63.6391V20.647C63.6391 20.2713 63.7092 19.9305 63.8494 19.6244C63.9896 19.3044 64.1858 19.0261 64.4382 18.7896C64.6905 18.5531 64.9849 18.3722 65.3214 18.247C65.6718 18.1078 66.0433 18.0383 66.4359 18.0383C66.9405 18.0383 67.3541 18.1357 67.6765 18.3304C67.999 18.5252 68.2373 18.8244 68.3915 19.2278C68.5597 19.6174 68.6439 20.1252 68.6439 20.7513V27.2H70.8308V20.6261C70.8308 19.6105 70.6906 18.7618 70.4102 18.08C70.1439 17.3983 69.7373 16.8904 69.1906 16.5565C68.6579 16.2226 67.9779 16.0557 67.1508 16.0557C66.7723 16.0557 66.3868 16.1183 65.9943 16.2435C65.6017 16.3687 65.2302 16.5426 64.8798 16.7652C64.5293 16.9878 64.2139 17.2452 63.9335 17.5374C63.6915 17.7902 63.4957 18.0603 63.3463 18.3476C63.2124 17.949 63.0367 17.6024 62.819 17.3078C62.5106 16.8904 62.118 16.5774 61.6414 16.3687C61.1647 16.16 60.611 16.0557 59.9801 16.0557C59.5455 16.0557 59.118 16.1322 58.6974 16.2852C58.2909 16.4383 57.9053 16.647 57.5408 16.9113C57.1904 17.1618 56.889 17.4539 56.6366 17.7878C56.5924 17.8498 56.5503 17.9123 56.5104 17.9752V16.2435H54.3235Z" fill="white"/>
<path d="M19.9484 0C19.2986 0 18.6487 0.0348739 18.0221 0.0929969L13.1134 2.29005L6.54534 5.20783C6.06956 5.63794 5.61699 6.10292 5.17603 6.57953L13.3803 2.91778L19.9484 0Z" fill="url(#paint0_radial_5_886)"/>
<path d="M25.7507 18.5413C25.7739 18.5529 25.8088 18.5762 25.832 18.5878C25.7855 18.5529 25.7507 18.5413 25.7507 18.5413Z" fill="url(#paint1_radial_5_886)"/>
<path d="M16.4436 26.1322C16.1535 26.0159 15.8982 25.8416 15.7126 25.5974C15.4921 25.3068 15.3644 24.9348 15.3644 24.5512V15.5654C15.3644 15.5654 13.7862 12.4849 16.3856 6.99805C18.0334 3.53392 21.8629 0.104657 21.8745 0.104657C22.0602 0.127906 22.2458 0.139531 22.4431 0.16278C21.8513 0.0930326 21.2479 0.0465341 20.6328 0.0232849L2.36753 10.5784C2.17026 10.9504 1.98459 11.3224 1.81052 11.706L20.2615 1.03463L2.2979 14.1007C1.31153 14.8214 0.615269 15.7863 0.243928 16.8906C0.11628 17.7392 0.0350496 18.5994 0.0118408 19.4829C0.0350496 19.6224 0.0582583 19.7619 0.0814671 19.9014L1.11426 20.8313C0.882169 20.3315 0.731312 19.7968 0.67329 19.2271C0.48762 17.4253 1.2419 15.7165 2.70406 14.6587L18.0334 3.51067L3.67882 16.4605C2.2979 17.716 1.69448 19.5526 2.08902 21.3777C2.12384 21.5172 2.15865 21.6683 2.20507 21.8078L3.30748 22.6099C3.06379 22.1914 2.87812 21.7264 2.77368 21.2382C2.43716 19.6573 2.95935 18.0647 4.1546 16.9836L16.3276 5.99834L5.12937 18.4483C4.00375 19.7038 3.63241 21.4242 4.1546 23.0284C4.18942 23.1214 4.22423 23.2144 4.25904 23.3074L5.41948 23.9816C5.16419 23.6329 4.95531 23.2493 4.81605 22.8192C4.37509 21.4475 4.6768 19.9944 5.63997 18.9249L11.9527 11.9036L15.0627 8.43951L6.61473 20.0874C5.70959 21.3312 5.54713 22.9122 6.17377 24.3187C6.19698 24.3652 6.22018 24.4117 6.24339 24.4582L7.45025 25.0046C7.19495 24.7256 6.97447 24.4001 6.81201 24.0281C6.28981 22.854 6.42906 21.5288 7.18335 20.4942L14.2388 10.7644L8.10009 21.4126C7.40383 22.6215 7.40383 24.063 8.10009 25.2719C8.10009 25.2836 8.1117 25.2836 8.1117 25.2952L9.35337 25.7253C9.09807 25.5044 8.87759 25.2371 8.70352 24.9348C8.13491 23.9467 8.13491 22.761 8.70352 21.7729L13.7746 12.9731L9.55064 22.482C9.05165 23.598 9.1677 24.8767 9.87556 25.8881L11.1288 26.1903C10.8851 26.0159 10.6763 25.8067 10.4906 25.5509C9.89877 24.7256 9.78273 23.6794 10.2005 22.7494L12.9971 16.4605L13.647 15.0074L10.9664 23.2841C10.6298 24.3304 10.8387 25.4347 11.5118 26.2717L12.7651 26.446C12.533 26.3182 12.3241 26.1438 12.15 25.9462C11.5466 25.2719 11.3493 24.3652 11.6278 23.505L13.7746 16.879L12.2893 23.8886C12.092 24.8302 12.3589 25.7834 13.0087 26.4693L14.2388 26.5158C14.0299 26.4228 13.8327 26.2949 13.6586 26.1322C13.0668 25.5974 12.8115 24.807 12.9739 24.0281L14.1344 18.5413L13.5309 24.2955C13.4381 25.1441 13.7514 25.9462 14.3549 26.5158L15.5617 26.4344C15.376 26.3763 15.1904 26.2833 15.0163 26.1554C14.4477 25.7369 14.146 25.0743 14.2272 24.3652L14.6798 20.006V24.5396C14.6798 25.2836 15.0047 25.9694 15.5733 26.4228L17.2443 26.2484C16.9658 26.2717 16.6989 26.2252 16.4436 26.1322Z" fill="url(#paint2_radial_5_886)"/>
<path d="M39.1413 14.2284L33.3391 32.1303L37.83 10.9503C37.6675 10.6364 37.4935 10.3226 37.3194 10.0087L33.2811 29.0382L35.5439 7.43965C35.3467 7.19554 35.1378 6.93979 34.9173 6.7073L32.8633 26.2715V4.69624C32.6312 4.49862 32.3991 4.31263 32.1671 4.13826V23.8304L30.1363 4.41725C30.0667 3.70815 29.8578 3.04555 29.5561 2.42944C29.1499 2.20858 28.7438 2.01096 28.326 1.81334C28.941 2.55731 29.3356 3.47566 29.44 4.487L31.2503 21.7147L27.7458 5.18448C27.3628 3.35941 26.0632 1.91796 24.2993 1.34835C23.1737 0.987991 22.0132 1.01124 20.9572 1.39485L21.549 0.964742C22.0016 0.639252 22.5006 0.383511 23.0112 0.232391C22.6399 0.174268 22.2685 0.127769 21.8856 0.0928955C21.874 0.10452 18.0445 3.52216 16.3967 6.98629C13.7857 12.4731 15.3755 15.5536 15.3755 15.5536C15.3755 14.9375 15.6772 14.3563 16.211 14.0308C16.4895 13.8681 16.7913 13.7751 17.1046 13.7751C17.3947 13.7751 17.6964 13.8564 17.9633 14.0076L25.773 18.5295C25.773 18.5295 28.9526 19.6571 31.1111 24.0629C33.5016 28.9568 32.3643 35.7572 32.3527 35.7921C32.608 35.5945 32.8517 35.3852 33.0954 35.176L39.4778 15.4606C39.3734 15.0421 39.2689 14.6353 39.1413 14.2284ZM18.2882 13.4147C17.5339 12.973 16.6288 12.973 15.8745 13.4147C15.712 13.5077 15.5612 13.6123 15.4335 13.7402C15.6308 13.3217 15.9673 12.9962 16.4083 12.7986C17.0582 12.508 17.7776 12.5894 18.3462 13.0078L21.3054 15.1584L18.2882 13.4147ZM18.7524 12.4382C17.9749 11.8803 16.9885 11.7756 16.1182 12.1592C15.8745 12.2755 15.6424 12.415 15.4451 12.5894C15.7004 12.0662 16.1646 11.6594 16.7448 11.4734C16.9769 11.4036 17.209 11.3571 17.4411 11.3571C17.9749 11.3571 18.4971 11.5548 18.9149 11.9268L22.489 15.1468L18.7524 12.4382ZM19.3674 11.4153C18.5899 10.7062 17.5223 10.4853 16.5244 10.8108C16.1762 10.927 15.8629 11.0898 15.596 11.3106C15.9325 10.6597 16.536 10.2063 17.2786 10.0436C17.4527 10.0087 17.6384 9.98544 17.8124 9.98544C18.5087 9.98544 19.1701 10.2761 19.6575 10.8108L23.7307 15.3328L19.3674 11.4153ZM20.1681 10.3458C19.4022 9.48558 18.265 9.1136 17.1394 9.35771C16.6868 9.45071 16.2807 9.6367 15.9209 9.90407C16.3735 9.12522 17.1394 8.62536 18.0561 8.52074C19.0657 8.41612 20.0289 8.84623 20.6207 9.65995L25.0188 15.728L20.1681 10.3458ZM21.1777 9.25309C20.435 8.23013 19.2398 7.69539 17.9749 7.82326C17.4063 7.88139 16.8841 8.07901 16.4315 8.36962C17.0117 7.4629 17.9981 6.92817 19.0773 6.92817C20.2145 6.92817 21.2357 7.52102 21.8159 8.50912L26.3417 16.3674L21.1777 9.25309ZM22.4078 8.16038C21.7115 6.95142 20.4582 6.23069 19.0657 6.23069C18.3694 6.23069 17.7196 6.40506 17.151 6.73055C17.824 5.80058 18.88 5.26585 20.0057 5.26585C20.1333 5.26585 20.261 5.27747 20.3886 5.2891C21.6651 5.42859 22.7327 6.20744 23.2549 7.38153L27.653 17.2741L22.4078 8.16038ZM23.9047 7.10254C23.2781 5.69596 21.99 4.76599 20.4698 4.60325C19.6459 4.52187 18.8452 4.67299 18.1374 5.02173L18.265 4.88224C19.2282 3.81277 20.6439 3.34779 22.048 3.65003C23.4522 3.95227 24.5662 4.95198 25.0072 6.31206L28.941 18.4598L23.9047 7.10254ZM25.6686 6.0912C25.1464 4.47538 23.8467 3.31291 22.1989 2.95255C21.2357 2.74331 20.261 2.84793 19.3906 3.21992L19.7156 2.9293C20.5511 2.1737 21.6071 1.77846 22.6863 1.77846C23.1505 1.77846 23.6262 1.84821 24.0788 1.99933C25.6106 2.49919 26.7246 3.74302 27.0611 5.32397L30.1595 19.9245L25.6686 6.0912ZM39.9884 19.7152L33.1418 35.1295C33.606 34.7226 34.047 34.3041 34.4647 33.8624L39.942 21.5519C39.9768 21.0521 40 20.5406 40 20.0407C40 19.9245 39.9884 19.8199 39.9884 19.7152Z" fill="url(#paint3_radial_5_886)"/>
<path d="M0 20.0292C0 20.6105 0.0232088 21.1917 0.0696263 21.7613L12.1962 38.4891C12.5908 38.6519 12.9853 38.803 13.3915 38.9541L1.74066 22.8773C1.79868 22.9238 1.8451 22.9703 1.90312 23.0168L17.0236 39.8376C17.3718 39.8841 17.7199 39.9306 18.0796 39.9655L4.35164 24.7023L20.122 38.9192C20.5978 39.3493 21.1084 39.7097 21.6422 40.0003C22.1063 39.9655 22.5589 39.9073 23.0115 39.8376C22.1296 39.5353 21.3056 39.0587 20.5862 38.3961L7.05546 26.1903L21.9671 37.0477C23.1856 37.9311 24.6013 38.3845 26.0286 38.3845C26.9802 38.3845 27.955 38.1869 28.8717 37.7684C30.2062 37.1755 31.2854 36.2107 32.0049 35.0134C31.8656 35.5249 31.68 36.0015 31.4479 36.4548C31.7496 36.2456 32.0513 36.0247 32.3414 35.7922C32.3414 35.7573 33.4786 28.9453 31.0997 24.063C28.9529 19.6573 25.7617 18.5297 25.7617 18.5297C25.7617 18.5297 25.7965 18.5413 25.843 18.5762C26.1795 18.797 26.4232 19.1225 26.5392 19.4945C26.5508 19.541 26.5624 19.5875 26.574 19.634C26.574 19.6456 26.574 19.6456 26.574 19.6573C26.5856 19.7038 26.5972 19.7619 26.5972 19.8084C26.5972 19.82 26.5972 19.8316 26.5972 19.8432C26.5972 19.9014 26.6088 19.9479 26.6088 20.006C26.6088 20.0641 26.6088 20.1106 26.5972 20.1687C26.516 21.1452 25.7385 21.5056 25.7385 21.5056C25.7385 21.5056 18.3349 25.795 17.9868 25.9927C17.9288 26.0275 17.8707 26.0624 17.8127 26.0857C17.8127 26.0857 17.8127 26.0857 17.8011 26.0857C17.5458 26.2019 17.3369 26.2135 17.3369 26.2135L17.2441 26.2252C17.2325 26.2252 17.2209 26.2252 17.2209 26.2252L15.5499 26.3995H15.5383L14.3314 26.4809H14.2154L12.9853 26.4344L12.7416 26.4112L11.4999 26.2717L11.1286 26.1903L9.87533 25.888L9.35313 25.7137L8.11146 25.2836L7.43841 24.9813L6.23155 24.435L5.40764 23.9584L4.2472 23.2841L3.28404 22.5867L2.18162 21.7846L2.08879 21.7148L1.10242 20.8197L0.0696263 19.8897L0 19.8316C0 19.9014 0 19.9711 0 20.0292ZM26.0983 22.1333C26.7017 21.7846 27.1078 21.2149 27.2471 20.564C27.2471 20.6105 27.2471 20.657 27.2355 20.6918C27.1659 21.3893 26.7365 21.9822 26.0866 22.2728L25.0306 22.7494L26.0983 22.1333ZM26.3768 22.9121C27.1891 22.5518 27.7577 21.8194 27.9085 20.9476C27.9201 21.122 27.8969 21.3079 27.8621 21.4939C27.6997 22.2728 27.1426 22.8889 26.3884 23.133L24.462 23.7607L26.3768 22.9121ZM26.5972 23.8072C27.5952 23.4818 28.3263 22.6797 28.5352 21.6451C28.5468 21.5986 28.5584 21.5521 28.5584 21.5056C28.5816 21.8194 28.5468 22.1565 28.4423 22.4704C28.1638 23.3306 27.4676 23.9584 26.5856 24.1444L23.6613 24.7721L26.5972 23.8072ZM26.7365 24.8186C27.8621 24.5745 28.7441 23.784 29.1038 22.6797C29.1502 22.5285 29.185 22.3774 29.2198 22.2263C29.2546 22.6913 29.185 23.1563 28.9877 23.6096C28.57 24.5396 27.7229 25.1557 26.7133 25.2603L22.675 25.6904L26.7365 24.8186ZM26.7829 25.9462C28.0478 25.8183 29.1038 25.0394 29.6144 23.8886C29.7304 23.6329 29.8117 23.3771 29.8581 23.1098C29.9045 23.7259 29.7652 24.3536 29.4403 24.9232C28.8717 25.9113 27.8505 26.5041 26.7017 26.5041H21.4681L26.7829 25.9462ZM26.7133 27.2016C28.1058 27.2016 29.3591 26.4809 30.0553 25.2719C30.2526 24.9232 30.3919 24.5628 30.4847 24.1792C30.5311 24.9697 30.299 25.7718 29.8117 26.4344C29.0574 27.469 27.8505 28.0154 26.574 27.8759L20.0408 27.19H26.7133V27.2016ZM26.4812 28.585C26.6321 28.5966 26.7829 28.6082 26.9454 28.6082C28.3031 28.6082 29.5564 27.9689 30.3687 26.8529C30.682 26.4228 30.9025 25.9462 31.0417 25.4463C31.0533 26.4344 30.7052 27.3992 30.0205 28.1665C29.0574 29.2359 27.6416 29.7009 26.2375 29.3987L18.3813 27.7247L26.4812 28.585ZM26.075 30.0845C26.4116 30.1543 26.7365 30.1892 27.073 30.1892C28.3843 30.1892 29.626 29.6428 30.5311 28.6315C30.9953 28.12 31.3202 27.5387 31.5175 26.911C31.4827 28.12 30.9721 29.2592 30.0437 30.0962C28.8485 31.1772 27.2123 31.526 25.6805 31.0261L16.4898 28.0386L26.075 30.0845ZM25.46 31.7004C25.9938 31.8747 26.5392 31.9561 27.073 31.9561C28.3263 31.9561 29.5331 31.5027 30.5079 30.6193C31.1462 30.0497 31.6103 29.3522 31.8888 28.5966C31.7844 30.0497 31.0533 31.3632 29.8465 32.2467C28.3843 33.3045 26.5276 33.5022 24.8798 32.7698L14.3894 28.0967L25.46 31.7004ZM24.5897 33.4092C25.344 33.7463 26.1331 33.909 26.9222 33.909C28.0942 33.909 29.2546 33.537 30.2526 32.8163C31.0881 32.2118 31.7264 31.4097 32.1209 30.5146C31.8888 32.2235 30.9025 33.723 29.3823 34.6065C27.63 35.6178 25.5412 35.6178 23.789 34.6065L12.1034 27.8526L24.5897 33.4092ZM23.4408 35.1994C24.4272 35.769 25.5064 36.048 26.5856 36.048C27.6648 36.048 28.7441 35.769 29.7304 35.1994C30.798 34.5833 31.6335 33.6882 32.1789 32.6419C31.7844 34.6414 30.4731 36.2921 28.5932 37.129C26.5276 38.0474 24.2067 37.8033 22.3732 36.4781L9.65484 27.2249L23.4408 35.1994ZM8.11146 36.141L0.127648 22.2844C0.197274 22.9354 0.301714 23.5864 0.440966 24.2257L6.59129 34.8855C7.07867 35.3389 7.57766 35.7457 8.11146 36.141Z" fill="url(#paint4_radial_5_886)"/>
<defs>
<radialGradient id="paint0_radial_5_886" cx="0" cy="0" r="1" gradientUnits="userSpaceOnUse" gradientTransform="translate(14.8216 5.80893) rotate(-148.009) scale(7.93988 7.55634)">
<stop offset="0.1875" stop-color="#EBFECC"/>
<stop offset="0.880208" stop-color="#00CBF7"/>
</radialGradient>
<radialGradient id="paint1_radial_5_886" cx="0" cy="0" r="1" gradientUnits="userSpaceOnUse" gradientTransform="translate(25.8038 18.5823) rotate(-141.292) scale(0.0475364 0.0491326)">
<stop offset="0.1875" stop-color="#EBFECC"/>
<stop offset="0.880208" stop-color="#00CBF7"/>
</radialGradient>
<radialGradient id="paint2_radial_5_886" cx="0" cy="0" r="1" gradientUnits="userSpaceOnUse" gradientTransform="translate(14.6582 23.4129) rotate(-121.12) scale(19.7846 18.5408)">
<stop offset="0.1875" stop-color="#EBFECC"/>
<stop offset="0.880208" stop-color="#00CBF7"/>
</radialGradient>
<radialGradient id="paint3_radial_5_886" cx="0" cy="0" r="1" gradientUnits="userSpaceOnUse" gradientTransform="translate(27.4481 17.9425) rotate(90) scale(17.8496 12.5519)">
<stop offset="0.302083" stop-color="#F4AE43"/>
<stop offset="0.911458" stop-color="#E8554F"/>
</radialGradient>
<radialGradient id="paint4_radial_5_886" cx="0" cy="0" r="1" gradientUnits="userSpaceOnUse" gradientTransform="translate(16.3065 29.265) rotate(90) scale(10.7353 16.3065)">
<stop offset="0.604167" stop-color="#F4F153"/>
<stop offset="1" stop-color="#73D205"/>
</radialGradient>
</defs>
</svg>
