<svg width="263" height="68" viewBox="0 0 263 68" fill="none" xmlns="http://www.w3.org/2000/svg">
<g clip-path="url(#clip0_84_3051)">
<path d="M61.467 33.8034C61.467 49.2558 49.0516 61.7825 33.7365 61.7825C18.4214 61.7825 6.00598 49.2558 6.00598 33.8034C6.00598 18.3509 18.4214 5.82422 33.7365 5.82422C49.0516 5.82422 61.467 18.3509 61.467 33.8034Z" fill="#C7D5E0"/>
<path d="M26.6838 59.6319C40.8171 42.5809 34.4838 16.5895 14.1258 8.09425C-0.00749887 25.1453 6.32571 51.1366 26.6838 59.6319Z" fill="#E1E692"/>
<path d="M30.3378 61.5552C39.3478 41.2711 26.2538 17.9936 4.3739 15.3988C-4.63615 35.6828 8.45788 58.9603 30.3378 61.5552Z" fill="#E1E692"/>
<path fill-rule="evenodd" clip-rule="evenodd" d="M39.1706 61.266H37.8494C28.4159 61.266 20.7685 53.6033 20.7685 44.151C20.7685 40.9626 21.9765 37.6662 22.7998 35.4195C22.9144 35.1069 23.0215 34.8147 23.1168 34.5458C23.4681 33.5558 23.052 32.5693 22.2118 31.9469L19.2935 29.7852L24.3331 28.421L26.9145 27.1808C29.2499 26.3126 30.552 26.0646 32.568 26.0646C35.7922 26.0646 38.7267 27.929 40.1017 30.8511L51.2952 55.4234C47.8528 58.3245 43.711 60.3755 39.1706 61.266Z" fill="#F7EEE0"/>
<path fill-rule="evenodd" clip-rule="evenodd" d="M30.8854 59.6949C33.0293 60.6661 35.4091 61.2067 37.9148 61.2068H39.2361C41.2059 60.8204 43.1007 60.2157 44.8959 59.4178C42.6374 48.1986 33.2985 39.5742 21.7905 38.4998C21.2666 40.237 20.834 42.1837 20.834 44.0918C20.834 51.0334 24.9583 57.0097 30.8854 59.6949Z" fill="#F8BA88"/>
<path fill-rule="evenodd" clip-rule="evenodd" d="M59.9264 33.9614C59.9264 41.4692 56.8232 48.2456 51.8404 53.0563L48.838 46.4654L59.9142 33.1475C59.9223 33.4178 59.9264 33.6891 59.9264 33.9614ZM39.3189 62.9784H39.2156C37.4407 63.3176 35.6091 63.495 33.7364 63.495C31.8688 63.495 30.0421 63.3185 28.2717 62.9812C6.50157 59.1889 -6.20554 35.5734 2.96809 14.9211L3.4306 13.8799L4.55378 14.0131C5.8093 14.162 7.0372 14.3759 8.23518 14.6508C9.45085 12.0675 11.0155 9.58185 12.944 7.25519L13.6695 6.37989L14.7146 6.81599C16.0544 7.37509 17.3362 8.00655 18.5583 8.7035C22.984 5.99029 28.1794 4.42786 33.7364 4.42786C49.9024 4.42786 63.0075 17.6505 63.0075 33.9614C63.0075 44.5301 57.5055 53.8021 49.2339 59.0207C48.4008 59.5539 47.5392 60.0446 46.652 60.4899L46.6527 60.4936L46.5804 60.5257C44.3539 61.6353 41.967 62.4591 39.4645 62.9499L39.3189 62.9784ZM47.6419 56.358C47.0905 56.7073 46.5253 57.0364 45.9473 57.3443C43.0908 47.0049 34.4722 39.0912 23.7996 37.3492C23.951 36.9197 24.1016 36.5073 24.2447 36.1167L24.2465 36.1118L24.2469 36.1109L24.2473 36.1098C24.3602 35.8015 24.4694 35.5036 24.5673 35.2277C25.1971 33.4525 24.3862 31.7874 23.1235 30.852L22.7911 30.6058L24.8683 30.0435L27.5125 28.7731C29.6661 27.9768 30.7827 27.777 32.568 27.777C35.1985 27.777 37.5864 29.2964 38.7061 31.6675L49.3919 55.1254C48.8259 55.5603 48.2421 55.9716 47.6419 56.358ZM21.5044 10.5898C26.2885 14.0124 29.9599 18.5231 32.3884 23.5876V7.57105C28.4716 7.77142 24.7819 8.83999 21.5044 10.5898ZM29.6045 24.9221C26.8725 19.2377 22.4185 14.3223 16.4652 11.0894L18.3288 18.771C21.4495 20.6868 24.2056 23.081 26.5259 25.827C27.7122 25.391 28.6716 25.1023 29.6045 24.9221ZM23.5938 27.1698C19.4511 22.5423 13.9021 19.1056 7.38928 17.6458L19.8277 39.8099C20.2704 37.9969 20.8719 36.3561 21.3242 35.1221L21.3548 35.0385C21.47 34.7241 21.5742 34.4398 21.6663 34.1801C21.7157 34.041 21.7098 33.9243 21.667 33.8082C21.6194 33.6789 21.5088 33.5126 21.3001 33.358L15.7957 29.2807L23.5938 27.1698ZM27.138 59.5823C22.9489 56.6242 20.0296 51.9773 19.3695 46.6241H8.41812C12.6549 52.9411 19.1674 57.745 27.138 59.5823ZM41.4934 30.3425C40.2889 27.7828 38.0785 25.9107 35.4696 25.1055V7.59359C40.8956 7.95126 45.8708 9.9762 49.8968 13.1656L42.7251 33.046L41.4975 30.3512L41.4934 30.3425ZM47.4146 43.3406L44.5549 37.0629L52.3717 15.3943C55.9207 19.0201 58.4377 23.6765 59.4423 28.8785L47.4146 43.3406ZM13.4475 11.726L14.6864 16.8327C13.5787 16.3281 12.4348 15.8798 11.2572 15.4923C11.8901 14.2057 12.6194 12.9472 13.4475 11.726ZM11.6058 31.4687L18.3664 43.5153L6.57997 43.5153C4.66187 39.806 3.46797 35.7105 3.13336 31.4687H11.6058ZM9.86118 28.3599L4.65655 19.0858C3.62917 22.1635 3.10796 25.2842 3.04346 28.3599H9.86118ZM22.9185 40.3579C22.5941 41.6501 22.3746 42.976 22.3746 44.2498C22.3746 50.5525 26.1182 55.9893 31.5165 58.4349C33.4656 59.3179 35.6306 59.8104 37.9148 59.8104H39.0856C40.467 59.531 41.8089 59.1375 43.1018 58.6396C40.6645 49.1055 32.7318 41.7974 22.9185 40.3579ZM30.4627 35.3547C31.5262 35.3547 32.3884 34.4848 32.3884 33.4117C32.3884 32.3386 31.5262 31.4687 30.4627 31.4687C29.3991 31.4687 28.5369 32.3386 28.5369 33.4117C28.5369 34.4848 29.3991 35.3547 30.4627 35.3547Z" fill="#243B4A"/>
</g>
<path d="M209.685 36.1781V16.0947H213.41V36.1781H209.685ZM206.535 23.6298V20.1661H216.894V23.6298H206.535Z" fill="#243B4A"/>
<path d="M195.189 36.383C193.873 36.383 192.679 36.0195 191.605 35.2925C190.532 34.5655 189.672 33.576 189.024 32.324C188.376 31.0719 188.052 29.6482 188.052 28.0529C188.052 26.4576 188.376 25.0339 189.024 23.7819C189.672 22.5298 190.552 21.5504 191.666 20.8436C192.78 20.1368 194.035 19.7834 195.432 19.7834C196.242 19.7834 196.981 19.9046 197.649 20.1469C198.318 20.3691 198.905 20.6922 199.411 21.1163C199.917 21.5403 200.332 22.025 200.656 22.5702C201 23.1155 201.233 23.7011 201.355 24.3271L200.535 24.1151V20.1166H204.301V36.08H200.504V32.2634L201.385 32.1119C201.243 32.6572 200.98 33.1923 200.595 33.7173C200.231 34.2222 199.765 34.6766 199.198 35.0804C198.652 35.4641 198.034 35.7771 197.346 36.0195C196.677 36.2618 195.959 36.383 195.189 36.383ZM196.222 33.0812C197.093 33.0812 197.862 32.8692 198.53 32.4451C199.198 32.021 199.715 31.4354 200.079 30.6882C200.464 29.9209 200.656 29.0424 200.656 28.0529C200.656 27.0836 200.464 26.2253 200.079 25.4782C199.715 24.731 199.198 24.1454 198.53 23.7213C197.862 23.2972 197.093 23.0852 196.222 23.0852C195.351 23.0852 194.582 23.2972 193.914 23.7213C193.266 24.1454 192.759 24.731 192.395 25.4782C192.031 26.2253 191.848 27.0836 191.848 28.0529C191.848 29.0424 192.031 29.9209 192.395 30.6882C192.759 31.4354 193.266 32.021 193.914 32.4451C194.582 32.8692 195.351 33.0812 196.222 33.0812Z" fill="#243B4A"/>
<path d="M171.397 36.178V20.1187H175.019L175.08 23.4098L174.385 23.7754C174.587 23.0441 174.979 22.3838 175.563 21.7947C176.146 21.1852 176.84 20.6976 177.645 20.332C178.45 19.9663 179.275 19.7834 180.121 19.7834C181.328 19.7834 182.334 20.0272 183.139 20.5148C183.964 21.0024 184.578 21.7337 184.981 22.7089C185.403 23.684 185.615 24.9029 185.615 26.3657V36.178H181.902V26.6399C181.902 25.8273 181.791 25.1569 181.57 24.6287C181.348 24.0802 181.006 23.684 180.543 23.4402C180.08 23.1761 179.517 23.0542 178.853 23.0746C178.31 23.0746 177.806 23.166 177.344 23.3488C176.901 23.5113 176.508 23.7551 176.166 24.0802C175.844 24.3849 175.583 24.7404 175.381 25.1467C175.2 25.553 175.11 26 175.11 26.4875V36.178H173.268C172.906 36.178 172.564 36.178 172.242 36.178C171.94 36.178 171.658 36.178 171.397 36.178Z" fill="#243B4A"/>
<path d="M161.944 36.1781V16.4788L162.517 16.6919L152.081 29.5711L151.749 28.8708H167.132V30.3931H151.96L151.086 28.5967L162.215 14.8651H163.452V36.1781H161.944Z" fill="#243B4A"/>
<path d="M139.669 36.383C137.997 36.383 136.517 36.0302 135.228 35.3247C133.96 34.6192 132.963 33.6617 132.238 32.4523C131.533 31.2227 131.181 29.8218 131.181 28.2495C131.181 26.9997 131.382 25.8609 131.785 24.8328C132.188 23.8048 132.742 22.9179 133.446 22.1721C134.171 21.4061 135.027 20.8215 136.014 20.4184C137.021 19.9951 138.118 19.7834 139.306 19.7834C140.353 19.7834 141.33 19.985 142.236 20.3882C143.142 20.7913 143.928 21.3456 144.592 22.0511C145.257 22.7365 145.76 23.5629 146.102 24.5305C146.465 25.4779 146.636 26.516 146.616 27.6448L146.586 28.9449H133.688L132.993 26.4051H143.474L142.991 26.9191V26.2539C142.931 25.6291 142.729 25.0848 142.387 24.6212C142.045 24.1374 141.602 23.7645 141.058 23.5025C140.534 23.2203 139.95 23.0792 139.306 23.0792C138.319 23.0792 137.484 23.2707 136.799 23.6536C136.135 24.0366 135.631 24.591 135.289 25.3166C134.946 26.0221 134.775 26.909 134.775 27.9774C134.775 29.0054 134.987 29.9024 135.41 30.6684C135.853 31.4343 136.467 32.029 137.252 32.4523C138.058 32.8554 138.994 33.057 140.061 33.057C140.806 33.057 141.491 32.9361 142.115 32.6942C142.739 32.4523 143.414 32.0189 144.139 31.394L145.981 33.9641C145.438 34.468 144.814 34.9014 144.109 35.2642C143.424 35.6069 142.699 35.879 141.934 36.0806C141.169 36.2822 140.414 36.383 139.669 36.383Z" fill="#243B4A"/>
<path d="M120.822 36.178V20.1187H124.519L124.581 25.2381L124.061 24.0802C124.285 23.2675 124.672 22.5362 125.222 21.8861C125.772 21.236 126.404 20.7281 127.117 20.3624C127.85 19.9764 128.614 19.7834 129.409 19.7834C129.755 19.7834 130.081 19.8139 130.386 19.8749C130.712 19.9358 130.977 20.0069 131.181 20.0882L130.172 24.2021C129.948 24.0802 129.673 23.9786 129.347 23.8973C129.021 23.8161 128.696 23.7754 128.37 23.7754C127.86 23.7754 127.371 23.877 126.903 24.0802C126.455 24.263 126.058 24.5271 125.711 24.8725C125.365 25.2178 125.09 25.6241 124.886 26.0914C124.703 26.5383 124.611 27.0462 124.611 27.6151V36.178H120.822Z" fill="#243B4A"/>
<path d="M109.986 36.383C108.405 36.383 106.994 36.0296 105.753 35.3228C104.512 34.5958 103.531 33.6063 102.811 32.3542C102.09 31.1022 101.73 29.6785 101.73 28.0832C101.73 26.4879 102.09 25.0642 102.811 23.8122C103.531 22.5601 104.512 21.5807 105.753 20.8739C106.994 20.1469 108.405 19.7834 109.986 19.7834C111.547 19.7834 112.948 20.1469 114.189 20.8739C115.43 21.5807 116.401 22.5601 117.101 23.8122C117.822 25.0642 118.182 26.4879 118.182 28.0832C118.182 29.6785 117.822 31.1022 117.101 32.3542C116.401 33.6063 115.43 34.5958 114.189 35.3228C112.948 36.0296 111.547 36.383 109.986 36.383ZM109.986 33.0812C110.847 33.0812 111.607 32.8591 112.268 32.4148C112.948 31.9706 113.478 31.3748 113.859 30.6277C114.259 29.8805 114.449 29.0323 114.429 28.0832C114.449 27.1139 114.259 26.2556 113.859 25.5085C113.478 24.7613 112.948 24.1757 112.268 23.7516C111.607 23.3073 110.847 23.0852 109.986 23.0852C109.125 23.0852 108.345 23.3073 107.644 23.7516C106.964 24.1757 106.433 24.7714 106.053 25.5388C105.673 26.2859 105.483 27.1341 105.483 28.0832C105.483 29.0323 105.673 29.8805 106.053 30.6277C106.433 31.3748 106.964 31.9706 107.644 32.4148C108.345 32.8591 109.125 33.0812 109.986 33.0812Z" fill="#243B4A"/>
<path d="M74.9189 36.178V20.0587H78.5701L78.6305 23.3009L78.027 23.5456C78.208 23.0155 78.4796 22.5261 78.8417 22.0775C79.2038 21.6085 79.6363 21.2108 80.1392 20.8846C80.6422 20.5379 81.1752 20.2728 81.7385 20.0893C82.3018 19.8854 82.8751 19.7834 83.4585 19.7834C84.3235 19.7834 85.0879 19.9262 85.7518 20.2117C86.4358 20.4768 86.999 20.905 87.4416 21.4963C87.9043 22.0877 88.2463 22.8421 88.4676 23.7597L87.8942 23.6374L88.1356 23.148C88.3569 22.6586 88.6687 22.2202 89.0711 21.8328C89.4734 21.4249 89.926 21.0681 90.4289 20.7622C90.9319 20.436 91.4549 20.1913 91.998 20.0281C92.5613 19.865 93.1145 19.7834 93.6577 19.7834C94.8647 19.7834 95.8705 20.0281 96.6752 20.5175C97.4798 21.0069 98.0833 21.7512 98.4857 22.7504C98.888 23.7495 99.0892 24.9832 99.0892 26.4514V36.178H95.3475V26.6961C95.3475 25.8804 95.2368 25.2075 95.0155 24.6773C94.8144 24.1472 94.4925 23.7597 94.0499 23.515C93.6275 23.25 93.0944 23.1174 92.4507 23.1174C91.9477 23.1174 91.4649 23.2092 91.0023 23.3927C90.5597 23.5558 90.1775 23.8005 89.8556 24.1268C89.5337 24.4327 89.2823 24.7895 89.1012 25.1973C88.9202 25.6052 88.8297 26.0538 88.8297 26.5432V36.178H85.0879V26.6655C85.0879 25.8906 84.9773 25.2483 84.756 24.7385C84.5347 24.2084 84.2129 23.8107 83.7904 23.5456C83.368 23.2602 82.855 23.1174 82.2515 23.1174C81.7486 23.1174 81.2758 23.2092 80.8333 23.3927C80.3907 23.5558 80.0085 23.7903 79.6866 24.0962C79.3647 24.4021 79.1133 24.7589 78.9322 25.1667C78.7512 25.5746 78.6607 26.0232 78.6607 26.5126V36.178H74.9189Z" fill="#243B4A"/>
<path d="M256.051 36.383C254.38 36.383 252.9 36.0302 251.611 35.3247C250.342 34.6192 249.346 33.6617 248.621 32.4523C247.916 31.2227 247.563 29.8218 247.563 28.2495C247.563 26.9997 247.765 25.8609 248.168 24.8328C248.57 23.8048 249.124 22.9179 249.829 22.1721C250.554 21.4061 251.41 20.8215 252.396 20.4184C253.403 19.9951 254.501 19.7834 255.689 19.7834C256.736 19.7834 257.712 19.985 258.619 20.3882C259.525 20.7913 260.31 21.3456 260.975 22.0511C261.639 22.7365 262.143 23.5629 262.485 24.5305C262.847 25.4779 263.018 26.516 262.998 27.6448L262.968 28.9449H250.071L249.376 26.4051H259.857L259.374 26.9191V26.2539C259.313 25.6291 259.112 25.0848 258.77 24.6212C258.427 24.1374 257.984 23.7645 257.441 23.5025C256.917 23.2203 256.333 23.0792 255.689 23.0792C254.702 23.0792 253.866 23.2707 253.182 23.6536C252.517 24.0366 252.014 24.591 251.671 25.3166C251.329 26.0221 251.158 26.909 251.158 27.9774C251.158 29.0054 251.369 29.9024 251.792 30.6684C252.235 31.4343 252.849 32.029 253.635 32.4523C254.44 32.8554 255.377 33.057 256.444 33.057C257.189 33.057 257.874 32.9361 258.498 32.6942C259.122 32.4523 259.797 32.0189 260.522 31.394L262.364 33.9641C261.82 34.468 261.196 34.9014 260.491 35.2642C259.807 35.6069 259.082 35.879 258.317 36.0806C257.551 36.2822 256.796 36.383 256.051 36.383Z" fill="#243B4A"/>
<path d="M237.002 36.178V20.1187H240.699L240.76 25.2381L240.241 24.0802C240.465 23.2675 240.852 22.5362 241.402 21.8861C241.952 21.236 242.583 20.7281 243.296 20.3624C244.03 19.9764 244.794 19.7834 245.588 19.7834C245.934 19.7834 246.26 19.8139 246.566 19.8749C246.892 19.9358 247.157 20.0069 247.36 20.0882L246.352 24.2021C246.128 24.0802 245.853 23.9786 245.527 23.8973C245.201 23.8161 244.875 23.7754 244.549 23.7754C244.04 23.7754 243.551 23.877 243.082 24.0802C242.634 24.263 242.237 24.5271 241.891 24.8725C241.544 25.2178 241.269 25.6241 241.066 26.0914C240.882 26.5383 240.791 27.0462 240.791 27.6151V36.178H237.002Z" fill="#243B4A"/>
<path d="M224.53 36.383C223.378 36.383 222.379 36.1318 221.53 35.6293C220.682 35.1067 220.036 34.3731 219.591 33.4285C219.147 32.4637 218.925 31.3181 218.925 29.9916V20.1934H222.651V29.2077C222.651 30.0519 222.782 30.7754 223.045 31.3784C223.308 31.9613 223.691 32.4135 224.196 32.7351C224.701 33.0566 225.307 33.2174 226.014 33.2174C226.539 33.2174 227.014 33.137 227.438 32.9762C227.882 32.7954 228.266 32.5542 228.589 32.2527C228.912 31.9311 229.165 31.5593 229.347 31.1372C229.528 30.695 229.619 30.2227 229.619 29.7202V20.1934H233.346V36.0815H229.71L229.65 32.7652L230.316 32.4034C230.074 33.1672 229.66 33.8506 229.074 34.4535C228.508 35.0364 227.832 35.5087 227.044 35.8705C226.256 36.2122 225.418 36.383 224.53 36.383Z" fill="#243B4A"/>
<path d="M186.489 51.6908C186.272 52.0198 185.921 52.3276 185.436 52.6144C184.96 52.9011 184.425 53.0445 183.831 53.0445C183.263 53.0445 182.79 52.918 182.414 52.665C182.038 52.4035 181.762 52.0661 181.587 51.6529C181.411 51.2312 181.323 50.7799 181.323 50.2992C181.323 49.4811 181.486 48.722 181.812 48.022C182.138 47.3135 182.586 46.7527 183.154 46.3394C183.722 45.9261 184.349 45.7195 185.035 45.7195C185.637 45.7195 186.088 45.8629 186.389 46.1496C186.698 46.4364 186.853 46.8159 186.853 47.2882C186.853 47.8955 186.619 48.4057 186.151 48.819C185.683 49.2239 185.127 49.5275 184.483 49.7299C183.839 49.9323 183.259 50.0377 182.74 50.0462C182.707 50.645 182.803 51.1553 183.029 51.577C183.263 51.9987 183.63 52.2095 184.132 52.2095C184.508 52.2095 184.872 52.121 185.223 51.9439C185.582 51.7583 185.908 51.5095 186.201 51.1974L186.489 51.6908ZM184.734 46.4026C184.358 46.4026 184.023 46.5587 183.731 46.8707C183.447 47.1828 183.221 47.575 183.054 48.0473C182.887 48.5112 182.786 48.9708 182.753 49.4263C183.154 49.4094 183.572 49.3208 184.007 49.1606C184.45 48.9919 184.817 48.7558 185.11 48.4521C185.403 48.1401 185.549 47.7858 185.549 47.3894C185.549 47.0689 185.478 46.8244 185.336 46.6557C185.194 46.487 184.993 46.4026 184.734 46.4026Z" fill="#243B4A"/>
<path d="M180.179 47.2629C179.703 46.7822 179.326 46.5418 179.051 46.5418C178.666 46.5418 178.319 46.6894 178.01 46.9846C177.701 47.2798 177.458 47.6888 177.283 48.2118C177.107 48.7347 177.019 49.3335 177.019 50.0082C177.019 51.442 177.462 52.1589 178.348 52.1589C178.699 52.1589 179 52.0957 179.251 51.9692C179.502 51.8426 179.769 51.6487 180.054 51.3872L180.317 51.8679C180.108 52.1547 179.795 52.4204 179.377 52.665C178.959 52.9096 178.47 53.0319 177.91 53.0319C177.199 53.0319 176.643 52.783 176.242 52.2854C175.841 51.7794 175.64 51.0751 175.64 50.1727C175.64 49.4811 175.782 48.7937 176.066 48.1106C176.359 47.419 176.785 46.8497 177.345 46.4026C177.914 45.9472 178.582 45.7195 179.351 45.7195C179.594 45.7195 179.849 45.7448 180.116 45.7954C180.384 45.846 180.605 45.9135 180.781 45.9978L180.43 47.3262L180.179 47.2629Z" fill="#243B4A"/>
<path d="M170.16 47.3515C170.502 46.8707 170.899 46.4786 171.351 46.1749C171.802 45.8713 172.266 45.7195 172.743 45.7195C173.219 45.7195 173.583 45.8629 173.833 46.1496C174.093 46.4364 174.222 46.9045 174.222 47.5539C174.222 47.866 174.143 48.4564 173.984 49.3251L173.909 49.7805L173.846 50.1474C173.696 50.8812 173.616 51.4378 173.608 51.8173V51.8933C173.608 52.1125 173.662 52.2222 173.771 52.2222C173.938 52.2222 174.134 52.121 174.36 51.9186L174.523 52.2601C174.423 52.4035 174.239 52.568 173.971 52.7535C173.704 52.9391 173.399 53.0319 173.056 53.0319C172.496 53.0319 172.216 52.7662 172.216 52.2348C172.216 51.9734 172.295 51.4252 172.454 50.5902L172.542 50.1221L172.592 49.8185C172.776 48.8317 172.868 48.119 172.868 47.6804C172.86 47.2924 172.801 47.0268 172.692 46.8834C172.584 46.74 172.396 46.6683 172.128 46.6683C171.811 46.6683 171.451 46.8328 171.05 47.1617C170.657 47.4822 170.318 47.8786 170.034 48.3509L169.432 52.9053H168.141L168.943 46.8075L168.316 46.4912L168.417 46.0105L170.047 45.7195L170.31 45.8586L170.16 47.3515Z" fill="#243B4A"/>
<path d="M166.591 51.6908C166.374 52.0198 166.023 52.3276 165.538 52.6144C165.062 52.9011 164.527 53.0445 163.933 53.0445C163.365 53.0445 162.893 52.918 162.516 52.665C162.14 52.4035 161.864 52.0661 161.689 51.6529C161.513 51.2312 161.426 50.7799 161.426 50.2992C161.426 49.4811 161.589 48.722 161.915 48.022C162.241 47.3135 162.688 46.7527 163.256 46.3394C163.825 45.9261 164.452 45.7195 165.137 45.7195C165.739 45.7195 166.19 45.8629 166.491 46.1496C166.8 46.4364 166.955 46.8159 166.955 47.2882C166.955 47.8955 166.721 48.4057 166.253 48.819C165.785 49.2239 165.229 49.5275 164.585 49.7299C163.942 49.9323 163.361 50.0377 162.842 50.0462C162.809 50.645 162.905 51.1553 163.131 51.577C163.365 51.9987 163.733 52.2095 164.234 52.2095C164.61 52.2095 164.974 52.121 165.325 51.9439C165.685 51.7583 166.011 51.5095 166.303 51.1974L166.591 51.6908ZM164.836 46.4026C164.46 46.4026 164.126 46.5587 163.833 46.8707C163.549 47.1828 163.323 47.575 163.156 48.0473C162.989 48.5112 162.888 48.9708 162.855 49.4263C163.256 49.4094 163.674 49.3208 164.109 49.1606C164.552 48.9919 164.92 48.7558 165.212 48.4521C165.505 48.1401 165.651 47.7858 165.651 47.3894C165.651 47.0689 165.58 46.8244 165.438 46.6557C165.296 46.487 165.095 46.4026 164.836 46.4026Z" fill="#243B4A"/>
<path d="M159.226 51.906C159.226 52.0072 159.243 52.0873 159.276 52.1464C159.318 52.197 159.368 52.2223 159.427 52.2223C159.519 52.2223 159.611 52.197 159.703 52.1464C159.803 52.0873 159.924 51.9904 160.066 51.8554L160.229 52.1843C160.104 52.3615 159.912 52.547 159.652 52.741C159.393 52.935 159.088 53.032 158.737 53.032C158.444 53.032 158.219 52.9645 158.06 52.8295C157.909 52.6946 157.847 52.4964 157.872 52.2349C157.914 51.8638 158.022 51.0668 158.198 49.8439C158.432 48.2077 158.574 47.1829 158.624 46.7696L157.847 46.466L157.935 46.0232L159.79 45.7322L160.079 45.8714L159.239 51.7795L159.226 51.906ZM159.577 44.3912C159.385 44.3912 159.218 44.3195 159.076 44.1762C158.942 44.0328 158.875 43.8599 158.875 43.6575C158.875 43.396 158.963 43.1725 159.138 42.9869C159.322 42.8014 159.535 42.7086 159.778 42.7086C160.003 42.7086 160.179 42.7803 160.304 42.9237C160.43 43.0586 160.492 43.2273 160.492 43.4297C160.484 43.6996 160.396 43.9273 160.229 44.1129C160.062 44.2984 159.845 44.3912 159.577 44.3912Z" fill="#243B4A"/>
<path d="M156.314 47.2629C155.837 46.7822 155.461 46.5418 155.185 46.5418C154.801 46.5418 154.454 46.6894 154.145 46.9846C153.835 47.2798 153.593 47.6888 153.417 48.2118C153.242 48.7347 153.154 49.3335 153.154 50.0082C153.154 51.442 153.597 52.1589 154.483 52.1589C154.834 52.1589 155.135 52.0957 155.386 51.9692C155.637 51.8426 155.904 51.6487 156.188 51.3872L156.452 51.8679C156.243 52.1547 155.929 52.4204 155.511 52.665C155.093 52.9096 154.604 53.0319 154.044 53.0319C153.334 53.0319 152.778 52.783 152.377 52.2854C151.975 51.7794 151.775 51.0751 151.775 50.1727C151.775 49.4811 151.917 48.7937 152.201 48.1106C152.494 47.419 152.92 46.8497 153.48 46.4026C154.048 45.9472 154.717 45.7195 155.486 45.7195C155.729 45.7195 155.984 45.7448 156.251 45.7954C156.519 45.846 156.74 45.9135 156.916 45.9978L156.565 47.3262L156.314 47.2629Z" fill="#243B4A"/>
<path d="M150.762 46.9593C150.687 46.8581 150.519 46.7484 150.26 46.6304C150.009 46.5123 149.721 46.4532 149.395 46.4532C149.019 46.4532 148.718 46.5376 148.492 46.7063C148.267 46.8665 148.154 47.1027 148.154 47.4147C148.154 47.6846 148.246 47.9334 148.43 48.1612C148.613 48.3804 148.885 48.6208 149.245 48.8823C149.537 49.1016 149.775 49.2998 149.959 49.4769C150.143 49.6456 150.302 49.8606 150.436 50.1221C150.57 50.3751 150.636 50.6619 150.636 50.9824C150.636 51.4209 150.519 51.7963 150.285 52.1083C150.051 52.4119 149.734 52.6439 149.332 52.8041C148.939 52.9559 148.509 53.0319 148.041 53.0319C147.665 53.0319 147.289 52.9897 146.912 52.9053C146.536 52.821 146.29 52.7282 146.173 52.627L146.386 51.7035C146.553 51.8384 146.791 51.9649 147.1 52.083C147.41 52.2011 147.732 52.2601 148.066 52.2601C148.417 52.2601 148.718 52.1842 148.969 52.0324C149.22 51.8806 149.345 51.6318 149.345 51.286C149.345 50.9908 149.245 50.7378 149.044 50.5269C148.843 50.3161 148.547 50.0715 148.154 49.7932C147.301 49.1943 146.875 48.5027 146.875 47.7184C146.875 47.322 146.983 46.9719 147.201 46.6683C147.426 46.3647 147.732 46.1328 148.116 45.9725C148.501 45.8038 148.927 45.7195 149.395 45.7195C149.696 45.7195 150.001 45.749 150.31 45.808C150.628 45.8586 150.85 45.9093 150.975 45.9599L150.762 46.9593Z" fill="#243B4A"/>
<path d="M137.98 47.3515C138.323 46.8707 138.72 46.4786 139.171 46.1749C139.623 45.8713 140.087 45.7195 140.563 45.7195C141.04 45.7195 141.403 45.8629 141.654 46.1496C141.913 46.4364 142.043 46.9045 142.043 47.5539C142.043 47.866 141.963 48.4564 141.804 49.3251L141.729 49.7805L141.667 50.1474C141.516 50.8812 141.437 51.4378 141.428 51.8173V51.8933C141.428 52.1125 141.483 52.2222 141.591 52.2222C141.758 52.2222 141.955 52.121 142.181 51.9186L142.344 52.2601C142.243 52.4035 142.059 52.568 141.792 52.7535C141.524 52.9391 141.219 53.0319 140.877 53.0319C140.317 53.0319 140.037 52.7662 140.037 52.2348C140.037 51.9734 140.116 51.4252 140.275 50.5902L140.363 50.1221L140.413 49.8185C140.597 48.8317 140.689 48.119 140.689 47.6804C140.68 47.2924 140.622 47.0268 140.513 46.8834C140.404 46.74 140.216 46.6683 139.949 46.6683C139.631 46.6683 139.272 46.8328 138.87 47.1617C138.478 47.4822 138.139 47.8786 137.855 48.3509L137.253 52.9053H135.961L136.764 46.8075L136.137 46.4912L136.237 46.0105L137.867 45.7195L138.131 45.8586L137.98 47.3515Z" fill="#243B4A"/>
<path d="M134.412 51.6908C134.195 52.0198 133.844 52.3276 133.359 52.6144C132.882 52.9011 132.347 53.0445 131.754 53.0445C131.185 53.0445 130.713 52.918 130.337 52.665C129.961 52.4035 129.685 52.0661 129.509 51.6529C129.334 51.2312 129.246 50.7799 129.246 50.2992C129.246 49.4811 129.409 48.722 129.735 48.022C130.061 47.3135 130.508 46.7527 131.077 46.3394C131.645 45.9261 132.272 45.7195 132.957 45.7195C133.559 45.7195 134.011 45.8629 134.312 46.1496C134.621 46.4364 134.776 46.8159 134.776 47.2882C134.776 47.8955 134.541 48.4057 134.073 48.819C133.605 49.2239 133.049 49.5275 132.406 49.7299C131.762 49.9323 131.181 50.0377 130.663 50.0462C130.629 50.645 130.726 51.1553 130.951 51.577C131.185 51.9987 131.553 52.2095 132.055 52.2095C132.431 52.2095 132.794 52.121 133.146 51.9439C133.505 51.7583 133.831 51.5095 134.124 51.1974L134.412 51.6908ZM132.657 46.4026C132.28 46.4026 131.946 46.5587 131.653 46.8707C131.369 47.1828 131.143 47.575 130.976 48.0473C130.809 48.5112 130.709 48.9708 130.675 49.4263C131.077 49.4094 131.495 49.3208 131.929 49.1606C132.372 48.9919 132.74 48.7558 133.033 48.4521C133.325 48.1401 133.472 47.7858 133.472 47.3894C133.472 47.0689 133.4 46.8244 133.258 46.6557C133.116 46.487 132.916 46.4026 132.657 46.4026Z" fill="#243B4A"/>
<path d="M126.312 46.934C125.326 46.9172 124.77 46.913 124.645 46.9214C124.402 46.9298 124.202 47.0479 124.043 47.2756C123.892 47.4949 123.809 47.7564 123.792 48.06H123.341L123.328 47.7564C123.328 47.3431 123.361 46.9467 123.428 46.5672C123.504 46.1876 123.625 45.9557 123.792 45.8713C123.917 45.7786 124.11 45.7322 124.369 45.7322C124.803 45.7322 125.443 45.7701 126.287 45.846C126.471 45.8545 126.743 45.8713 127.102 45.8966C127.47 45.9219 127.737 45.9346 127.905 45.9346C128.155 45.9346 128.36 45.8713 128.519 45.7448L128.807 46.0611L125.497 50.3499L124.08 51.83L126.588 51.868C127.223 51.868 127.587 51.4885 127.679 50.7294H128.13C128.122 51.2186 128.08 51.674 128.005 52.0957C127.938 52.5174 127.813 52.7915 127.629 52.918C127.478 53.0024 127.269 53.0445 127.002 53.0445C126.768 53.0445 126.103 53.0066 125.008 52.9307C124.139 52.8632 123.6 52.8295 123.391 52.8295C123.148 52.8295 122.943 52.9012 122.776 53.0445L122.438 52.703L126.488 47.7184L127.265 46.9467L126.312 46.934Z" fill="#243B4A"/>
<path d="M120.765 51.906C120.765 52.0072 120.782 52.0873 120.815 52.1464C120.857 52.197 120.907 52.2223 120.966 52.2223C121.058 52.2223 121.15 52.197 121.241 52.1464C121.342 52.0873 121.463 51.9904 121.605 51.8554L121.768 52.1843C121.643 52.3615 121.45 52.547 121.191 52.741C120.932 52.935 120.627 53.032 120.276 53.032C119.983 53.032 119.758 52.9645 119.599 52.8295C119.448 52.6946 119.386 52.4964 119.411 52.2349C119.453 51.8638 119.561 51.0668 119.737 49.8439C119.971 48.2077 120.113 47.1829 120.163 46.7696L119.386 46.466L119.474 46.0232L121.329 45.7322L121.618 45.8714L120.778 51.7795L120.765 51.906ZM121.116 44.3912C120.924 44.3912 120.757 44.3195 120.615 44.1762C120.481 44.0328 120.414 43.8599 120.414 43.6575C120.414 43.396 120.502 43.1725 120.677 42.9869C120.861 42.8014 121.074 42.7086 121.317 42.7086C121.542 42.7086 121.718 42.7803 121.843 42.9237C121.969 43.0586 122.031 43.2273 122.031 43.4297C122.023 43.6996 121.935 43.9273 121.768 44.1129C121.601 44.2984 121.384 44.3912 121.116 44.3912Z" fill="#243B4A"/>
<path d="M116.321 50.6788C116.262 51.0668 116.233 51.3746 116.233 51.6023C116.233 51.8048 116.271 51.9481 116.346 52.0325C116.429 52.1168 116.572 52.159 116.772 52.159C116.948 52.159 117.152 52.1084 117.387 52.0072C117.629 51.906 117.817 51.8005 117.951 51.6909L118.076 52.121C117.892 52.3319 117.604 52.5385 117.211 52.7409C116.818 52.9349 116.413 53.0319 115.995 53.0319C115.652 53.0319 115.38 52.9476 115.18 52.7789C114.987 52.6018 114.891 52.3319 114.891 51.9692C114.891 51.809 114.921 51.4716 114.979 50.9571L115.543 46.681H114.791L114.904 46.1623L115.681 45.8967C115.865 45.6942 116.128 45.1165 116.471 44.1635H117.173L116.96 45.884H118.565L118.465 46.681H116.86L116.321 50.6788Z" fill="#243B4A"/>
<path d="M112.328 51.906C112.328 52.0072 112.345 52.0873 112.378 52.1464C112.42 52.197 112.47 52.2223 112.529 52.2223C112.621 52.2223 112.713 52.197 112.805 52.1464C112.905 52.0873 113.026 51.9904 113.168 51.8554L113.331 52.1843C113.206 52.3615 113.014 52.547 112.755 52.741C112.495 52.935 112.19 53.032 111.839 53.032C111.547 53.032 111.321 52.9645 111.162 52.8295C111.012 52.6946 110.949 52.4964 110.974 52.2349C111.016 51.8638 111.125 51.0668 111.3 49.8439C111.534 48.2077 111.676 47.1829 111.726 46.7696L110.949 46.466L111.037 46.0232L112.892 45.7322L113.181 45.8714L112.341 51.7795L112.328 51.906ZM112.679 44.3912C112.487 44.3912 112.32 44.3195 112.178 44.1762C112.044 44.0328 111.977 43.8599 111.977 43.6575C111.977 43.396 112.065 43.1725 112.24 42.9869C112.424 42.8014 112.638 42.7086 112.88 42.7086C113.106 42.7086 113.281 42.7803 113.407 42.9237C113.532 43.0586 113.595 43.2273 113.595 43.4297C113.586 43.6996 113.499 43.9273 113.331 44.1129C113.164 44.2984 112.947 44.3912 112.679 44.3912Z" fill="#243B4A"/>
<path d="M109.416 47.2629C108.94 46.7822 108.563 46.5418 108.287 46.5418C107.903 46.5418 107.556 46.6894 107.247 46.9846C106.937 47.2798 106.695 47.6888 106.52 48.2118C106.344 48.7347 106.256 49.3335 106.256 50.0082C106.256 51.442 106.699 52.1589 107.585 52.1589C107.936 52.1589 108.237 52.0957 108.488 51.9692C108.739 51.8426 109.006 51.6487 109.291 51.3872L109.554 51.8679C109.345 52.1547 109.031 52.4204 108.613 52.665C108.196 52.9096 107.707 53.0319 107.146 53.0319C106.436 53.0319 105.88 52.783 105.479 52.2854C105.078 51.7794 104.877 51.0751 104.877 50.1727C104.877 49.4811 105.019 48.7937 105.303 48.1106C105.596 47.419 106.022 46.8497 106.582 46.4026C107.151 45.9472 107.819 45.7195 108.588 45.7195C108.831 45.7195 109.086 45.7448 109.353 45.7954C109.621 45.846 109.842 45.9135 110.018 45.9978L109.667 47.3262L109.416 47.2629Z" fill="#243B4A"/>
<path d="M96.4066 47.4275C96.741 46.9299 97.138 46.5208 97.5978 46.2003C98.0659 45.8798 98.5424 45.7196 99.0272 45.7196C99.5037 45.7196 99.8673 45.863 100.118 46.1497C100.377 46.4365 100.507 46.9088 100.507 47.5667C100.507 47.8703 100.457 48.2962 100.356 48.8444C100.256 49.3842 100.197 49.6963 100.181 49.7806C100.164 49.9156 100.143 50.0379 100.118 50.1475C100.101 50.2487 100.085 50.3373 100.068 50.4132C100.026 50.6746 99.9843 50.9403 99.9425 51.2102C99.9007 51.4801 99.8798 51.6994 99.8798 51.8681C99.8798 52.1127 99.9425 52.2349 100.068 52.2349C100.16 52.2349 100.248 52.2096 100.331 52.159C100.423 52.1084 100.544 52.0157 100.695 51.8807L100.858 52.2223C100.741 52.391 100.549 52.5681 100.281 52.7536C100.022 52.9392 99.7168 53.032 99.3657 53.032C99.0481 53.032 98.8224 52.9645 98.6886 52.8295C98.5549 52.6946 98.488 52.4964 98.488 52.2349C98.488 51.9904 98.5549 51.5138 98.6886 50.8054L98.814 50.1222L98.8642 49.8186C99.0481 48.8318 99.14 48.1191 99.14 47.6805C99.1317 47.2926 99.0732 47.0269 98.9645 46.8835C98.8558 46.7401 98.6761 46.6684 98.4253 46.6684C98.091 46.6684 97.719 46.8371 97.3094 47.1745C96.9081 47.5118 96.5654 47.9209 96.2812 48.4016L95.7044 52.9055H94.4004L95.579 43.6195L94.8518 43.3918L94.9396 42.9363L96.7201 42.7086L96.9959 42.8731L96.4066 47.4275Z" fill="#243B4A"/>
<path d="M91.5861 50.6788C91.5276 51.0668 91.4984 51.3746 91.4984 51.6023C91.4984 51.8048 91.536 51.9481 91.6112 52.0325C91.6948 52.1168 91.8369 52.159 92.0375 52.159C92.2131 52.159 92.4179 52.1084 92.6519 52.0072C92.8943 51.906 93.0824 51.8005 93.2162 51.6909L93.3415 52.121C93.1576 52.3319 92.8693 52.5385 92.4764 52.7409C92.0835 52.9349 91.6781 53.0319 91.2601 53.0319C90.9174 53.0319 90.6457 52.9476 90.4451 52.7789C90.2528 52.6018 90.1567 52.3319 90.1567 51.9692C90.1567 51.809 90.186 51.4716 90.2445 50.9571L90.8087 46.681H90.0564L90.1692 46.1623L90.9466 45.8967C91.1305 45.6942 91.3939 45.1165 91.7366 44.1635H92.4388L92.2256 45.884H93.8306L93.7302 46.681H92.1253L91.5861 50.6788Z" fill="#243B4A"/>
<path d="M87.5936 51.906C87.5936 52.0072 87.6103 52.0873 87.6438 52.1464C87.6856 52.197 87.7357 52.2223 87.7942 52.2223C87.8862 52.2223 87.9781 52.197 88.0701 52.1464C88.1704 52.0873 88.2916 51.9904 88.4337 51.8554L88.5967 52.1843C88.4713 52.3615 88.2791 52.547 88.0199 52.741C87.7608 52.935 87.4557 53.032 87.1046 53.032C86.812 53.032 86.5863 52.9645 86.4275 52.8295C86.277 52.6946 86.2144 52.4964 86.2394 52.2349C86.2812 51.8638 86.3899 51.0668 86.5654 49.8439C86.7995 48.2077 86.9416 47.1829 86.9918 46.7696L86.2144 46.466L86.3021 46.0232L88.1579 45.7322L88.4463 45.8714L87.6062 51.7795L87.5936 51.906ZM87.9447 44.3912C87.7524 44.3912 87.5853 44.3195 87.4432 44.1762C87.3094 44.0328 87.2425 43.8599 87.2425 43.6575C87.2425 43.396 87.3303 43.1725 87.5058 42.9869C87.6897 42.8014 87.9029 42.7086 88.1453 42.7086C88.371 42.7086 88.5466 42.7803 88.6719 42.9237C88.7973 43.0586 88.86 43.2273 88.86 43.4297C88.8517 43.6996 88.7639 43.9273 88.5967 44.1129C88.4295 44.2984 88.2122 44.3912 87.9447 44.3912Z" fill="#243B4A"/>
<path d="M75.7841 46.9846C75.7507 46.8413 75.7131 46.7401 75.6713 46.681C75.6295 46.6135 75.571 46.5798 75.4957 46.5798C75.4205 46.5798 75.3536 46.5967 75.2951 46.6304C75.245 46.6641 75.1739 46.7148 75.0819 46.7822L74.9189 46.4027C74.9942 46.2846 75.1572 46.1454 75.408 45.9852C75.6587 45.8165 75.9262 45.7322 76.2104 45.7322C76.5114 45.7322 76.7245 45.8039 76.8499 45.9472C76.9837 46.0822 77.0714 46.293 77.1132 46.5798L77.6022 50.7041L77.7276 51.9186L78.2166 50.6155L80.0974 45.7828H81.2886L81.8027 50.78L81.903 51.9059L82.5425 50.9571C82.8601 50.4764 83.1527 49.9155 83.4202 49.2745C83.6877 48.6335 83.8298 48.0305 83.8465 47.4654C83.8465 47.322 83.8089 47.1196 83.7337 46.8581C83.6752 46.6641 83.6459 46.5081 83.6459 46.39C83.6459 46.1961 83.7044 46.04 83.8214 45.9219C83.9468 45.7954 84.1057 45.7322 84.2979 45.7322C84.8162 45.7322 85.0837 46.1497 85.1004 46.9846C85.1004 47.516 84.8831 48.1992 84.4484 49.0341C84.0221 49.8607 83.5456 50.6366 83.019 51.3619L81.9532 52.956L80.8999 53.0192L80.6241 50.8432L80.3608 48.3383L80.2981 47.478L80.0348 48.351L78.9063 50.8432L77.9784 52.9433L76.875 53.0319L76.4737 50.8432L75.7841 46.9846Z" fill="#243B4A"/>
<defs>
<clipPath id="clip0_84_3051">
<rect width="67.3957" height="68" fill="white"/>
</clipPath>
</defs>
</svg>
