<svg width="155" height="40" viewBox="0 0 155 40" fill="none" xmlns="http://www.w3.org/2000/svg">
<g clip-path="url(#clip0_84_5098)">
<path d="M36.2258 19.8844C36.2258 28.974 28.9088 36.3427 19.8827 36.3427C10.8567 36.3427 3.53964 28.974 3.53964 19.8844C3.53964 10.7947 10.8567 3.42603 19.8827 3.42603C28.9088 3.42603 36.2258 10.7947 36.2258 19.8844Z" fill="#C7D5E0"/>
<path d="M15.7262 35.0776C24.0557 25.0476 20.3232 9.75855 8.32509 4.76133C-0.00441091 14.7913 3.72809 30.0804 15.7262 35.0776Z" fill="#E1E692"/>
<path d="M17.8797 36.2089C23.1898 24.2771 15.4728 10.5845 2.57782 9.05807C-2.73229 20.9899 4.98472 34.6825 17.8797 36.2089Z" fill="#E1E692"/>
<path fill-rule="evenodd" clip-rule="evenodd" d="M23.0853 36.0388H22.3066C16.747 36.0388 12.24 31.5314 12.24 25.9712C12.24 24.0956 12.9519 22.1566 13.4371 20.835C13.5047 20.6511 13.5678 20.4792 13.624 20.3211C13.831 19.7387 13.5858 19.1584 13.0906 18.7923L11.3707 17.5207L14.3408 16.7182L15.8621 15.9887C17.2385 15.478 18.0059 15.3321 19.1941 15.3321C21.0942 15.3321 22.8237 16.4288 23.6341 18.1477L30.231 32.602C28.2022 34.3085 25.7612 35.515 23.0853 36.0388Z" fill="#F7EEE0"/>
<path fill-rule="evenodd" clip-rule="evenodd" d="M18.2025 35.1146C19.466 35.6859 20.8685 36.004 22.3452 36.004H23.124C24.2849 35.7767 25.4016 35.421 26.4596 34.9517C25.1285 28.3521 19.6246 23.2789 12.8423 22.6469C12.5336 23.6688 12.2786 24.814 12.2786 25.9363C12.2786 30.0196 14.7093 33.5351 18.2025 35.1146Z" fill="#F8BA88"/>
<path fill-rule="evenodd" clip-rule="evenodd" d="M35.3178 19.9774C35.3178 24.3937 33.489 28.3798 30.5523 31.2096L28.7829 27.3326L35.3107 19.4986C35.3154 19.6576 35.3178 19.8172 35.3178 19.9774ZM23.1728 37.0462H23.1119C22.0658 37.2457 20.9864 37.35 19.8827 37.35C18.782 37.35 17.7054 37.2462 16.662 37.0478C3.83174 34.817 -3.65724 20.9256 1.74927 8.77718L2.02186 8.16468L2.68381 8.24304C3.42375 8.33062 4.14742 8.45647 4.85345 8.61816C5.56991 7.09856 6.49203 5.63644 7.62861 4.26781L8.0562 3.75293L8.6721 4.00946C9.46173 4.33834 10.2172 4.70979 10.9374 5.11976C13.5457 3.52375 16.6076 2.60468 19.8827 2.60468C29.4102 2.60468 37.1337 10.3827 37.1337 19.9774C37.1337 26.1942 33.8911 31.6484 29.0162 34.7181C28.5252 35.0318 28.0174 35.3204 27.4945 35.5824L27.495 35.5845L27.4523 35.6034C26.1402 36.2561 24.7334 36.7407 23.2586 37.0294L23.1728 37.0462ZM28.078 33.1518C27.753 33.3573 27.4199 33.5509 27.0792 33.732C25.3958 27.65 20.3163 22.9949 14.0264 21.9702C14.1156 21.7175 14.2044 21.475 14.2887 21.2452L14.2898 21.2423L14.29 21.2418L14.2902 21.2411C14.3568 21.0598 14.4212 20.8845 14.4788 20.7223C14.85 19.678 14.3721 18.6985 13.6279 18.1483L13.4321 18.0035L14.6563 17.6727L16.2146 16.9254C17.4838 16.457 18.1419 16.3395 19.1941 16.3395C20.7444 16.3395 22.1517 17.2332 22.8116 18.628L29.1093 32.4268C28.7757 32.6826 28.4317 32.9245 28.078 33.1518ZM12.6737 6.22937C15.4933 8.24264 17.657 10.896 19.0882 13.8751V4.45361C16.7799 4.57148 14.6053 5.20005 12.6737 6.22937ZM17.4476 14.6601C15.8374 11.3164 13.2125 8.42494 9.70383 6.52324L10.8022 11.0418C12.6414 12.1688 14.2657 13.5771 15.6331 15.1924C16.3323 14.936 16.8977 14.7661 17.4476 14.6601ZM13.9051 15.9823C11.4636 13.2602 8.19329 11.2386 4.35492 10.38L11.6856 23.4176C11.9464 22.3512 12.3009 21.386 12.5675 20.6601L12.5855 20.611C12.6535 20.426 12.7148 20.2588 12.7692 20.106C12.7982 20.0241 12.7948 19.9555 12.7696 19.8872C12.7415 19.8112 12.6763 19.7133 12.5533 19.6224L9.30928 17.224L13.9051 15.9823ZM15.9939 35.0485C13.525 33.3084 11.8045 30.5749 11.4155 27.426H4.96127C7.45821 31.1419 11.2964 33.9677 15.9939 35.0485ZM24.4543 17.8486C23.7444 16.3429 22.4417 15.2416 20.9041 14.768V4.46687C24.102 4.67727 27.0341 5.86841 29.4069 7.74453L25.1802 19.4389L24.4567 17.8537L24.4543 17.8486ZM27.944 25.4945L26.2586 21.8018L30.8655 9.05553C32.9571 11.1884 34.4405 13.9274 35.0326 16.9874L27.944 25.4945ZM7.92535 6.89772L8.6555 9.90162C8.0027 9.60479 7.32854 9.34111 6.63449 9.11319C7.00748 8.35635 7.43733 7.61604 7.92535 6.89772ZM6.83996 18.5111L10.8243 25.5973L3.87795 25.5973C2.74751 23.4154 2.04388 21.0062 1.84667 18.5111H6.83996ZM5.81174 16.6824L2.74438 11.227C2.13888 13.0374 1.83171 14.8731 1.79369 16.6824H5.81174ZM13.5071 23.74C13.316 24.5001 13.1866 25.28 13.1866 26.0294C13.1866 29.7368 15.3929 32.9349 18.5744 34.3735C19.7231 34.8929 20.999 35.1826 22.3453 35.1826H23.0352C23.8494 35.0183 24.6402 34.7868 25.4022 34.4939C23.9658 28.8857 19.2906 24.5868 13.5071 23.74ZM17.9533 20.7969C18.5801 20.7969 19.0882 20.2852 19.0882 19.654C19.0882 19.0228 18.5801 18.5111 17.9533 18.5111C17.3265 18.5111 16.8184 19.0228 16.8184 19.654C16.8184 20.2852 17.3265 20.7969 17.9533 20.7969Z" fill="#243B4A"/>
</g>
<path d="M123.579 21.2812V9.46747H125.774V21.2812H123.579ZM121.722 13.8999V11.8624H127.827V13.8999H121.722Z" fill="#243B4A"/>
<path d="M115.036 21.4017C114.26 21.4017 113.556 21.1879 112.923 20.7603C112.291 20.3326 111.784 19.7506 111.402 19.0141C111.02 18.2776 110.829 17.4401 110.829 16.5017C110.829 15.5633 111.02 14.7258 111.402 13.9893C111.784 13.2529 112.303 12.6767 112.959 12.261C113.615 11.8452 114.355 11.6373 115.179 11.6373C115.656 11.6373 116.092 11.7086 116.485 11.8511C116.879 11.9818 117.225 12.1719 117.524 12.4213C117.822 12.6708 118.067 12.9559 118.257 13.2766C118.46 13.5973 118.598 13.9418 118.669 14.3101L118.186 14.1853V11.8333H120.405V21.2236H118.168V18.9785L118.687 18.8894C118.604 19.2101 118.448 19.5249 118.222 19.8337C118.007 20.1307 117.732 20.398 117.398 20.6356C117.076 20.8613 116.712 21.0454 116.306 21.1879C115.913 21.3305 115.489 21.4017 115.036 21.4017ZM115.644 19.4596C116.157 19.4596 116.611 19.3348 117.004 19.0854C117.398 18.8359 117.703 18.4914 117.917 18.0519C118.144 17.6005 118.257 17.0838 118.257 16.5017C118.257 15.9315 118.144 15.4267 117.917 14.9872C117.703 14.5476 117.398 14.2032 117.004 13.9537C116.611 13.7042 116.157 13.5795 115.644 13.5795C115.131 13.5795 114.678 13.7042 114.284 13.9537C113.902 14.2032 113.604 14.5476 113.389 14.9872C113.174 15.4267 113.067 15.9315 113.067 16.5017C113.067 17.0838 113.174 17.6005 113.389 18.0519C113.604 18.4914 113.902 18.8359 114.284 19.0854C114.678 19.3348 115.131 19.4596 115.644 19.4596Z" fill="#243B4A"/>
<path d="M101.013 21.2812V11.8345H103.148L103.184 13.7705L102.775 13.9856C102.893 13.5553 103.124 13.167 103.468 12.8204C103.812 12.4619 104.222 12.1751 104.696 11.96C105.17 11.7449 105.657 11.6373 106.155 11.6373C106.866 11.6373 107.459 11.7807 107.934 12.0675C108.42 12.3543 108.782 12.7846 109.019 13.3582C109.268 13.9318 109.393 14.6488 109.393 15.5092V21.2812H107.204V15.6705C107.204 15.1925 107.139 14.7982 107.009 14.4875C106.878 14.1648 106.677 13.9318 106.404 13.7884C106.131 13.633 105.799 13.5613 105.408 13.5733C105.087 13.5733 104.791 13.627 104.518 13.7346C104.257 13.8302 104.026 13.9736 103.824 14.1648C103.634 14.3441 103.48 14.5532 103.362 14.7922C103.255 15.0312 103.202 15.2941 103.202 15.5809V21.2812H102.116C101.903 21.2812 101.701 21.2812 101.511 21.2812C101.334 21.2812 101.168 21.2812 101.013 21.2812Z" fill="#243B4A"/>
<path d="M95.4422 21.2812V9.69343L95.7799 9.8188L89.6296 17.3948L89.434 16.9828H98.4996V17.8783H89.5585L89.043 16.8216L95.6022 8.7442H96.331V21.2812H95.4422Z" fill="#243B4A"/>
<path d="M82.3142 21.4017C81.3292 21.4017 80.4569 21.1942 79.6974 20.7792C78.9497 20.3642 78.3622 19.801 77.935 19.0896C77.5196 18.3663 77.312 17.5422 77.312 16.6174C77.312 15.8822 77.4306 15.2123 77.668 14.6076C77.9053 14.0028 78.2317 13.4811 78.6471 13.0424C79.0743 12.5918 79.5787 12.248 80.1602 12.0108C80.7536 11.7618 81.4004 11.6373 82.1006 11.6373C82.7177 11.6373 83.2933 11.7559 83.8273 11.993C84.3614 12.2302 84.8242 12.5563 85.2158 12.9713C85.6075 13.3744 85.9042 13.8606 86.1059 14.4297C86.3195 14.987 86.4204 15.5976 86.4085 16.2616L86.3907 17.0264H78.7895L78.38 15.5324H84.5572L84.2724 15.8348V15.4435C84.2368 15.0759 84.1181 14.7558 83.9163 14.4831C83.7146 14.1985 83.4535 13.9791 83.1331 13.825C82.8245 13.659 82.4803 13.576 82.1006 13.576C81.5191 13.576 81.0265 13.6886 80.623 13.9139C80.2314 14.1392 79.9347 14.4653 79.733 14.8921C79.5312 15.3071 79.4303 15.8289 79.4303 16.4573C79.4303 17.062 79.5549 17.5897 79.8042 18.0402C80.0653 18.4908 80.4272 18.8406 80.8901 19.0896C81.3648 19.3267 81.9166 19.4453 82.5456 19.4453C82.9847 19.4453 83.3882 19.3742 83.7561 19.2319C84.124 19.0896 84.5216 18.8347 84.9488 18.4671L86.0347 19.9789C85.7143 20.2753 85.3464 20.5302 84.931 20.7437C84.5275 20.9452 84.1003 21.1053 83.6493 21.2239C83.1983 21.3425 82.7533 21.4017 82.3142 21.4017Z" fill="#243B4A"/>
<path d="M71.207 21.2812V11.8345H73.386L73.422 14.846L73.1159 14.1648C73.2479 13.6868 73.4761 13.2566 73.8002 12.8742C74.1244 12.4918 74.4965 12.193 74.9167 11.9779C75.349 11.7509 75.7992 11.6373 76.2674 11.6373C76.4715 11.6373 76.6636 11.6553 76.8437 11.6911C77.0358 11.727 77.1918 11.7688 77.3119 11.8166L76.7176 14.2365C76.5855 14.1648 76.4235 14.1051 76.2314 14.0573C76.0393 14.0095 75.8472 13.9856 75.6551 13.9856C75.355 13.9856 75.0668 14.0453 74.7907 14.1648C74.5266 14.2724 74.2924 14.4277 74.0883 14.6309C73.8843 14.834 73.7222 15.073 73.6021 15.3479C73.4941 15.6108 73.44 15.9096 73.44 16.2442V21.2812H71.207Z" fill="#243B4A"/>
<path d="M64.8206 21.4017C63.8887 21.4017 63.0571 21.1939 62.3258 20.7781C61.5945 20.3505 61.0165 19.7684 60.5918 19.0319C60.1672 18.2954 59.9549 17.458 59.9549 16.5195C59.9549 15.5811 60.1672 14.7436 60.5918 14.0072C61.0165 13.2707 61.5945 12.6945 62.3258 12.2788C63.0571 11.8511 63.8887 11.6373 64.8206 11.6373C65.7406 11.6373 66.5663 11.8511 67.2977 12.2788C68.029 12.6945 68.6011 13.2707 69.0139 14.0072C69.4386 14.7436 69.6509 15.5811 69.6509 16.5195C69.6509 17.458 69.4386 18.2954 69.0139 19.0319C68.6011 19.7684 68.029 20.3505 67.2977 20.7781C66.5663 21.1939 65.7406 21.4017 64.8206 21.4017ZM64.8206 19.4596C65.3278 19.4596 65.776 19.3289 66.1653 19.0676C66.5663 18.8062 66.8789 18.4558 67.103 18.0163C67.339 17.5768 67.451 17.0778 67.4392 16.5195C67.451 15.9494 67.339 15.4445 67.103 15.005C66.8789 14.5655 66.5663 14.221 66.1653 13.9715C65.776 13.7102 65.3278 13.5795 64.8206 13.5795C64.3134 13.5795 63.8533 13.7102 63.4405 13.9715C63.0394 14.221 62.7268 14.5714 62.5027 15.0228C62.2786 15.4623 62.1666 15.9612 62.1666 16.5195C62.1666 17.0778 62.2786 17.5768 62.5027 18.0163C62.7268 18.4558 63.0394 18.8062 63.4405 19.0676C63.8533 19.3289 64.3134 19.4596 64.8206 19.4596Z" fill="#243B4A"/>
<path d="M44.1537 21.2812V11.7993H46.3056L46.3412 13.7064L45.9855 13.8504C46.0922 13.5385 46.2522 13.2506 46.4656 12.9868C46.679 12.7109 46.9339 12.477 47.2303 12.2851C47.5267 12.0811 47.8409 11.9252 48.1729 11.8173C48.5048 11.6973 48.8427 11.6373 49.1866 11.6373C49.6964 11.6373 50.1469 11.7213 50.5381 11.8892C50.9412 12.0452 51.2732 12.297 51.534 12.6449C51.8067 12.9927 52.0083 13.4366 52.1387 13.9763L51.8008 13.9044L51.943 13.6165C52.0735 13.3286 52.2572 13.0707 52.4943 12.8428C52.7315 12.6029 52.9982 12.393 53.2946 12.2131C53.591 12.0212 53.8993 11.8772 54.2194 11.7813C54.5513 11.6853 54.8774 11.6373 55.1975 11.6373C55.9088 11.6373 56.5016 11.7813 56.9759 12.0691C57.4501 12.357 57.8058 12.7948 58.0429 13.3826C58.28 13.9703 58.3986 14.696 58.3986 15.5596V21.2812H56.1934V15.7036C56.1934 15.2238 56.1282 14.828 55.9978 14.5161C55.8792 14.2042 55.6895 13.9763 55.4287 13.8324C55.1797 13.6765 54.8655 13.5985 54.4861 13.5985C54.1897 13.5985 53.9052 13.6525 53.6325 13.7604C53.3717 13.8564 53.1464 14.0003 52.9567 14.1922C52.767 14.3722 52.6188 14.5821 52.5121 14.822C52.4054 15.0619 52.3521 15.3257 52.3521 15.6136V21.2812H50.1469V15.6856C50.1469 15.2298 50.0817 14.852 49.9513 14.5521C49.8209 14.2402 49.6312 14.0063 49.3822 13.8504C49.1332 13.6825 48.8309 13.5985 48.4752 13.5985C48.1788 13.5985 47.9002 13.6525 47.6394 13.7604C47.3785 13.8564 47.1533 13.9943 46.9636 14.1742C46.7739 14.3542 46.6257 14.5641 46.519 14.804C46.4123 15.0439 46.3589 15.3078 46.3589 15.5956V21.2812H44.1537Z" fill="#243B4A"/>
<path d="M150.905 21.4017C149.92 21.4017 149.047 21.1942 148.288 20.7792C147.54 20.3642 146.953 19.801 146.526 19.0896C146.11 18.3663 145.902 17.5422 145.902 16.6174C145.902 15.8822 146.021 15.2123 146.258 14.6076C146.496 14.0028 146.822 13.4811 147.238 13.0424C147.665 12.5918 148.169 12.248 148.751 12.0108C149.344 11.7618 149.991 11.6373 150.691 11.6373C151.308 11.6373 151.884 11.7559 152.418 11.993C152.952 12.2302 153.415 12.5563 153.806 12.9713C154.198 13.3744 154.495 13.8606 154.696 14.4297C154.91 14.987 155.011 15.5976 154.999 16.2616L154.981 17.0264H147.38L146.971 15.5324H153.148L152.863 15.8348V15.4435C152.827 15.0759 152.709 14.7558 152.507 14.4831C152.305 14.1985 152.044 13.9791 151.724 13.825C151.415 13.659 151.071 13.576 150.691 13.576C150.11 13.576 149.617 13.6886 149.214 13.9139C148.822 14.1392 148.525 14.4653 148.323 14.8921C148.122 15.3071 148.021 15.8289 148.021 16.4573C148.021 17.062 148.145 17.5897 148.395 18.0402C148.656 18.4908 149.018 18.8406 149.481 19.0896C149.955 19.3267 150.507 19.4453 151.136 19.4453C151.575 19.4453 151.979 19.3742 152.347 19.2319C152.715 19.0896 153.112 18.8347 153.539 18.4671L154.625 19.9789C154.305 20.2753 153.937 20.5302 153.522 20.7437C153.118 20.9452 152.691 21.1053 152.24 21.2239C151.789 21.3425 151.344 21.4017 150.905 21.4017Z" fill="#243B4A"/>
<path d="M139.678 21.2812V11.8345H141.857L141.893 14.846L141.587 14.1648C141.719 13.6868 141.947 13.2566 142.271 12.8742C142.595 12.4918 142.967 12.193 143.388 11.9779C143.82 11.7509 144.27 11.6373 144.738 11.6373C144.942 11.6373 145.134 11.6553 145.315 11.6911C145.507 11.727 145.663 11.7688 145.783 11.8166L145.188 14.2365C145.056 14.1648 144.894 14.1051 144.702 14.0573C144.51 14.0095 144.318 13.9856 144.126 13.9856C143.826 13.9856 143.538 14.0453 143.262 14.1648C142.997 14.2724 142.763 14.4277 142.559 14.6309C142.355 14.834 142.193 15.073 142.073 15.3479C141.965 15.6108 141.911 15.9096 141.911 16.2442V21.2812H139.678Z" fill="#243B4A"/>
<path d="M132.327 21.4018C131.649 21.4018 131.06 21.254 130.56 20.9584C130.06 20.6511 129.679 20.2195 129.417 19.6638C129.155 19.0963 129.024 18.4224 129.024 17.6421V11.8785H131.22V17.181C131.22 17.6776 131.298 18.1032 131.452 18.4579C131.607 18.8008 131.833 19.0668 132.131 19.256C132.428 19.4451 132.786 19.5397 133.202 19.5397C133.512 19.5397 133.791 19.4924 134.041 19.3978C134.303 19.2914 134.529 19.1495 134.72 18.9722C134.91 18.783 135.059 18.5643 135.166 18.316C135.273 18.0559 135.327 17.7781 135.327 17.4825V11.8785H137.523V21.2245H135.381L135.345 19.2737L135.738 19.0609C135.595 19.5101 135.351 19.9121 135.006 20.2668C134.672 20.6097 134.273 20.8875 133.809 21.1003C133.345 21.3013 132.851 21.4018 132.327 21.4018Z" fill="#243B4A"/>
<path d="M109.908 30.4064C109.78 30.5999 109.573 30.781 109.287 30.9497C109.007 31.1184 108.691 31.2027 108.342 31.2027C108.007 31.2027 107.728 31.1283 107.506 30.9794C107.285 30.8256 107.122 30.6272 107.019 30.3841C106.915 30.136 106.864 29.8706 106.864 29.5878C106.864 29.1066 106.96 28.6601 107.152 28.2483C107.344 27.8315 107.607 27.5016 107.942 27.2585C108.277 27.0154 108.647 26.8939 109.051 26.8939C109.406 26.8939 109.672 26.9782 109.849 27.1469C110.031 27.3156 110.122 27.5388 110.122 27.8167C110.122 28.1739 109.985 28.474 109.709 28.7171C109.433 28.9553 109.105 29.1339 108.726 29.2529C108.346 29.372 108.004 29.434 107.699 29.439C107.679 29.7912 107.736 30.0914 107.869 30.3394C108.007 30.5875 108.223 30.7115 108.519 30.7115C108.741 30.7115 108.955 30.6594 109.162 30.5553C109.374 30.4461 109.566 30.2998 109.738 30.1162L109.908 30.4064ZM108.874 27.2957C108.652 27.2957 108.455 27.3875 108.282 27.5711C108.115 27.7546 107.982 27.9853 107.883 28.2632C107.785 28.536 107.726 28.8064 107.706 29.0743C107.942 29.0644 108.189 29.0123 108.445 28.918C108.706 28.8188 108.923 28.6799 109.095 28.5013C109.268 28.3177 109.354 28.1094 109.354 27.8762C109.354 27.6877 109.312 27.5438 109.228 27.4446C109.145 27.3453 109.026 27.2957 108.874 27.2957Z" fill="#243B4A"/>
<path d="M106.189 27.8018C105.908 27.519 105.687 27.3776 105.524 27.3776C105.297 27.3776 105.093 27.4644 104.911 27.638C104.728 27.8117 104.586 28.0523 104.482 28.3599C104.379 28.6675 104.327 29.0198 104.327 29.4167C104.327 30.2601 104.588 30.6818 105.11 30.6818C105.317 30.6818 105.494 30.6446 105.642 30.5701C105.79 30.4957 105.948 30.3816 106.115 30.2278L106.27 30.5106C106.147 30.6793 105.963 30.8356 105.716 30.9794C105.47 31.1233 105.182 31.1953 104.852 31.1953C104.433 31.1953 104.105 31.0489 103.869 30.7562C103.632 30.4585 103.514 30.0442 103.514 29.5134C103.514 29.1066 103.598 28.7022 103.765 28.3004C103.938 27.8935 104.189 27.5587 104.519 27.2957C104.854 27.0278 105.248 26.8939 105.701 26.8939C105.844 26.8939 105.995 26.9087 106.152 26.9385C106.31 26.9683 106.44 27.008 106.544 27.0576L106.337 27.839L106.189 27.8018Z" fill="#243B4A"/>
<path d="M100.284 27.8539C100.486 27.5711 100.72 27.3404 100.986 27.1618C101.252 26.9832 101.526 26.8939 101.807 26.8939C102.087 26.8939 102.302 26.9782 102.449 27.1469C102.602 27.3156 102.679 27.5909 102.679 27.9729C102.679 28.1565 102.632 28.5038 102.538 29.0148L102.494 29.2827L102.457 29.4985C102.368 29.9301 102.321 30.2576 102.316 30.4808V30.5255C102.316 30.6545 102.348 30.719 102.412 30.719C102.511 30.719 102.627 30.6594 102.76 30.5404L102.856 30.7413C102.797 30.8256 102.688 30.9224 102.531 31.0315C102.373 31.1407 102.193 31.1953 101.991 31.1953C101.661 31.1953 101.496 31.039 101.496 30.7264C101.496 30.5726 101.543 30.2501 101.637 29.759L101.688 29.4836L101.718 29.305C101.826 28.7246 101.88 28.3053 101.88 28.0473C101.875 27.8191 101.841 27.6629 101.777 27.5785C101.713 27.4942 101.602 27.452 101.444 27.452C101.257 27.452 101.045 27.5487 100.809 27.7422C100.577 27.9308 100.378 28.1639 100.21 28.4418L99.8556 31.1208H99.0945L99.5674 27.5339L99.1979 27.3478L99.2571 27.065L100.218 26.8939L100.373 26.9757L100.284 27.8539Z" fill="#243B4A"/>
<path d="M98.1813 30.4064C98.0532 30.5999 97.8463 30.781 97.5605 30.9497C97.2797 31.1184 96.9644 31.2027 96.6146 31.2027C96.2796 31.2027 96.0013 31.1283 95.7796 30.9794C95.5579 30.8256 95.3953 30.6272 95.2919 30.3841C95.1884 30.136 95.1367 29.8706 95.1367 29.5878C95.1367 29.1066 95.2328 28.6601 95.4249 28.2483C95.617 27.8315 95.8806 27.5016 96.2156 27.2585C96.5506 27.0154 96.9201 26.8939 97.3241 26.8939C97.6788 26.8939 97.9448 26.9782 98.1221 27.1469C98.3044 27.3156 98.3956 27.5388 98.3956 27.8167C98.3956 28.1739 98.2576 28.474 97.9817 28.7171C97.7059 28.9553 97.3782 29.1339 96.9989 29.2529C96.6196 29.372 96.2772 29.434 95.9717 29.439C95.952 29.7912 96.0087 30.0914 96.1417 30.3394C96.2796 30.5875 96.4964 30.7115 96.792 30.7115C97.0137 30.7115 97.228 30.6594 97.4349 30.5553C97.6467 30.4461 97.8389 30.2998 98.0113 30.1162L98.1813 30.4064ZM97.1467 27.2957C96.925 27.2957 96.7279 27.3875 96.5555 27.5711C96.388 27.7546 96.255 27.9853 96.1565 28.2632C96.0579 28.536 95.9988 28.8064 95.9791 29.0743C96.2156 29.0644 96.4619 29.0123 96.7181 28.918C96.9792 28.8188 97.196 28.6799 97.3684 28.5013C97.5408 28.3177 97.627 28.1094 97.627 27.8762C97.627 27.6877 97.5852 27.5438 97.5014 27.4446C97.4177 27.3453 97.2994 27.2957 97.1467 27.2957Z" fill="#243B4A"/>
<path d="M93.8405 30.5329C93.8405 30.5924 93.8503 30.6396 93.87 30.6743C93.8947 30.7041 93.9242 30.719 93.9587 30.719C94.0129 30.719 94.0671 30.7041 94.1213 30.6743C94.1804 30.6396 94.2518 30.5825 94.3356 30.5031L94.4316 30.6966C94.3577 30.8008 94.2444 30.91 94.0917 31.0241C93.939 31.1382 93.7592 31.1952 93.5523 31.1952C93.3798 31.1952 93.2468 31.1555 93.1532 31.0762C93.0645 30.9968 93.0276 30.8802 93.0424 30.7264C93.067 30.5081 93.131 30.0393 93.2345 29.3199C93.3724 28.3574 93.4562 27.7546 93.4858 27.5115L93.0276 27.3329L93.0793 27.0724L94.173 26.9013L94.343 26.9831L93.8479 30.4585L93.8405 30.5329ZM94.0474 26.1124C93.9341 26.1124 93.8355 26.0703 93.7518 25.9859C93.673 25.9016 93.6335 25.7999 93.6335 25.6808C93.6335 25.527 93.6853 25.3955 93.7887 25.2864C93.8971 25.1773 94.0227 25.1227 94.1656 25.1227C94.2986 25.1227 94.4021 25.1649 94.476 25.2492C94.5499 25.3286 94.5868 25.4278 94.5868 25.5469C94.5819 25.7056 94.5302 25.8396 94.4316 25.9487C94.3331 26.0579 94.205 26.1124 94.0474 26.1124Z" fill="#243B4A"/>
<path d="M92.1241 27.8018C91.8433 27.519 91.6216 27.3776 91.459 27.3776C91.2324 27.3776 91.0279 27.4644 90.8457 27.638C90.6634 27.8117 90.5205 28.0523 90.4171 28.3599C90.3136 28.6675 90.2619 29.0198 90.2619 29.4167C90.2619 30.2601 90.523 30.6818 91.0452 30.6818C91.2521 30.6818 91.4295 30.6446 91.5773 30.5701C91.725 30.4957 91.8827 30.3816 92.0502 30.2278L92.2054 30.5106C92.0822 30.6793 91.8975 30.8356 91.6512 30.9794C91.4048 31.1233 91.1166 31.1953 90.7866 31.1953C90.3678 31.1953 90.0402 31.0489 89.8037 30.7562C89.5672 30.4585 89.449 30.0442 89.449 29.5134C89.449 29.1066 89.5328 28.7022 89.7003 28.3004C89.8727 27.8935 90.1239 27.5587 90.454 27.2957C90.789 27.0278 91.1831 26.8939 91.6364 26.8939C91.7792 26.8939 91.9295 26.9087 92.0871 26.9385C92.2448 26.9683 92.3753 27.008 92.4788 27.0576L92.2719 27.839L92.1241 27.8018Z" fill="#243B4A"/>
<path d="M88.852 27.6232C88.8077 27.5636 88.7092 27.4991 88.5565 27.4297C88.4087 27.3602 88.2387 27.3255 88.0466 27.3255C87.8249 27.3255 87.6475 27.3751 87.5145 27.4743C87.3815 27.5686 87.315 27.7075 87.315 27.8911C87.315 28.0498 87.3692 28.1962 87.4776 28.3301C87.5859 28.4591 87.746 28.6005 87.9579 28.7543C88.1303 28.8833 88.2707 28.9999 88.3791 29.1041C88.4875 29.2033 88.5811 29.3298 88.6599 29.4836C88.7387 29.6325 88.7781 29.8011 88.7781 29.9897C88.7781 30.2477 88.7092 30.4684 88.5712 30.652C88.4333 30.8306 88.2461 30.967 88.0096 31.0613C87.7781 31.1506 87.5244 31.1953 87.2485 31.1953C87.0268 31.1953 86.8051 31.1704 86.5834 31.1208C86.3617 31.0712 86.2164 31.0167 86.1474 30.9571L86.273 30.4139C86.3716 30.4932 86.512 30.5677 86.6942 30.6371C86.8765 30.7066 87.0662 30.7413 87.2633 30.7413C87.4702 30.7413 87.6475 30.6967 87.7953 30.6073C87.9431 30.518 88.017 30.3717 88.017 30.1683C88.017 29.9946 87.9579 29.8458 87.8397 29.7218C87.7214 29.5977 87.5465 29.4539 87.315 29.2901C86.8125 28.9379 86.5612 28.5311 86.5612 28.0697C86.5612 27.8365 86.6253 27.6306 86.7534 27.452C86.8864 27.2734 87.0662 27.137 87.2928 27.0427C87.5194 26.9435 87.7707 26.8939 88.0466 26.8939C88.2239 26.8939 88.4037 26.9112 88.586 26.946C88.7732 26.9757 88.9038 27.0055 88.9777 27.0353L88.852 27.6232Z" fill="#243B4A"/>
<path d="M81.3191 27.8539C81.5211 27.5711 81.7551 27.3404 82.0212 27.1618C82.2872 26.9832 82.5606 26.8939 82.8414 26.8939C83.1222 26.8939 83.3365 26.9782 83.4843 27.1469C83.6371 27.3156 83.7134 27.5909 83.7134 27.9729C83.7134 28.1565 83.6666 28.5038 83.573 29.0148L83.5287 29.2827L83.4917 29.4985C83.4031 29.9301 83.3562 30.2576 83.3513 30.4808V30.5255C83.3513 30.6545 83.3833 30.719 83.4474 30.719C83.5459 30.719 83.6617 30.6594 83.7947 30.5404L83.8908 30.7413C83.8317 30.8256 83.7233 30.9224 83.5656 31.0315C83.408 31.1407 83.2282 31.1953 83.0262 31.1953C82.6961 31.1953 82.5311 31.039 82.5311 30.7264C82.5311 30.5726 82.5779 30.2501 82.6715 29.759L82.7232 29.4836L82.7528 29.305C82.8611 28.7246 82.9153 28.3053 82.9153 28.0473C82.9104 27.8191 82.8759 27.6629 82.8119 27.5785C82.7478 27.4942 82.637 27.452 82.4793 27.452C82.2921 27.452 82.0803 27.5487 81.8438 27.7422C81.6123 27.9308 81.4127 28.1639 81.2452 28.4418L80.8905 31.1208H80.1294L80.6023 27.5339L80.2329 27.3478L80.292 27.065L81.2526 26.8939L81.4078 26.9757L81.3191 27.8539Z" fill="#243B4A"/>
<path d="M79.2161 30.4064C79.0881 30.5999 78.8811 30.781 78.5954 30.9497C78.3146 31.1184 77.9993 31.2027 77.6495 31.2027C77.3145 31.2027 77.0362 31.1283 76.8145 30.9794C76.5928 30.8256 76.4302 30.6272 76.3268 30.3841C76.2233 30.136 76.1716 29.8706 76.1716 29.5878C76.1716 29.1066 76.2676 28.6601 76.4598 28.2483C76.6519 27.8315 76.9155 27.5016 77.2505 27.2585C77.5855 27.0154 77.955 26.8939 78.3589 26.8939C78.7136 26.8939 78.9797 26.9782 79.157 27.1469C79.3393 27.3156 79.4304 27.5388 79.4304 27.8167C79.4304 28.1739 79.2925 28.474 79.0166 28.7171C78.7407 28.9553 78.4131 29.1339 78.0338 29.2529C77.6544 29.372 77.3121 29.434 77.0066 29.439C76.9869 29.7912 77.0436 30.0914 77.1766 30.3394C77.3145 30.5875 77.5313 30.7115 77.8269 30.7115C78.0486 30.7115 78.2629 30.6594 78.4698 30.5553C78.6816 30.4461 78.8738 30.2998 79.0462 30.1162L79.2161 30.4064ZM78.1816 27.2957C77.9599 27.2957 77.7628 27.3875 77.5904 27.5711C77.4229 27.7546 77.2899 27.9853 77.1914 28.2632C77.0928 28.536 77.0337 28.8064 77.014 29.0743C77.2505 29.0644 77.4968 29.0123 77.753 28.918C78.0141 28.8188 78.2308 28.6799 78.4033 28.5013C78.5757 28.3177 78.6619 28.1094 78.6619 27.8762C78.6619 27.6877 78.62 27.5438 78.5363 27.4446C78.4525 27.3453 78.3343 27.2957 78.1816 27.2957Z" fill="#243B4A"/>
<path d="M74.4426 27.6083C73.8612 27.5984 73.5336 27.5959 73.4597 27.6008C73.3168 27.6058 73.1986 27.6753 73.105 27.8092C73.0163 27.9382 72.9671 28.092 72.9572 28.2706H72.6912L72.6838 28.092C72.6838 27.8489 72.7035 27.6157 72.7429 27.3925C72.7872 27.1692 72.8587 27.0328 72.9572 26.9832C73.0311 26.9286 73.1444 26.9013 73.2971 26.9013C73.5533 26.9013 73.9302 26.9236 74.4278 26.9683C74.5362 26.9732 74.6963 26.9832 74.9081 26.9981C75.1249 27.0129 75.2825 27.0204 75.381 27.0204C75.5288 27.0204 75.6495 26.9832 75.7431 26.9087L75.9131 27.0948L73.9622 29.6176L73.1272 30.4883L74.6051 30.5106C74.9795 30.5106 75.1938 30.2874 75.248 29.8408H75.5141C75.5091 30.1286 75.4845 30.3965 75.4402 30.6446C75.4008 30.8926 75.3269 31.0539 75.2185 31.1283C75.1298 31.1779 75.0066 31.2027 74.849 31.2027C74.711 31.2027 74.3194 31.1804 73.674 31.1357C73.1617 31.096 72.8439 31.0762 72.7207 31.0762C72.5779 31.0762 72.4572 31.1184 72.3586 31.2027L72.1591 31.0018L74.546 28.0697L75.0042 27.6157L74.4426 27.6083Z" fill="#243B4A"/>
<path d="M71.1733 30.5329C71.1733 30.5924 71.1831 30.6396 71.2028 30.6743C71.2275 30.7041 71.257 30.719 71.2915 30.719C71.3457 30.719 71.3999 30.7041 71.4541 30.6743C71.5132 30.6396 71.5846 30.5825 71.6684 30.5031L71.7645 30.6966C71.6906 30.8008 71.5773 30.91 71.4245 31.0241C71.2718 31.1382 71.092 31.1952 70.8851 31.1952C70.7127 31.1952 70.5796 31.1555 70.486 31.0762C70.3974 30.9968 70.3604 30.8802 70.3752 30.7264C70.3998 30.5081 70.4639 30.0393 70.5673 29.3199C70.7053 28.3574 70.789 27.7546 70.8186 27.5115L70.3604 27.3329L70.4121 27.0724L71.5058 26.9013L71.6758 26.9831L71.1807 30.4585L71.1733 30.5329ZM71.3802 26.1124C71.2669 26.1124 71.1684 26.0703 71.0846 25.9859C71.0058 25.9016 70.9664 25.7999 70.9664 25.6808C70.9664 25.527 71.0181 25.3955 71.1216 25.2864C71.2299 25.1773 71.3556 25.1227 71.4984 25.1227C71.6315 25.1227 71.7349 25.1649 71.8088 25.2492C71.8827 25.3286 71.9197 25.4278 71.9197 25.5469C71.9147 25.7056 71.863 25.8396 71.7645 25.9487C71.6659 26.0579 71.5378 26.1124 71.3802 26.1124Z" fill="#243B4A"/>
<path d="M68.554 29.8111C68.5195 30.0393 68.5023 30.2204 68.5023 30.3543C68.5023 30.4734 68.5245 30.5577 68.5688 30.6074C68.6181 30.657 68.7018 30.6818 68.82 30.6818C68.9235 30.6818 69.0442 30.652 69.1821 30.5925C69.325 30.5329 69.4359 30.4709 69.5147 30.4064L69.5886 30.6594C69.4802 30.7835 69.3102 30.905 69.0787 31.0241C68.8471 31.1382 68.6082 31.1953 68.3619 31.1953C68.1599 31.1953 67.9998 31.1456 67.8815 31.0464C67.7682 30.9422 67.7116 30.7835 67.7116 30.5701C67.7116 30.4759 67.7288 30.2774 67.7633 29.9748L68.0958 27.4594H67.6525L67.719 27.1543L68.1771 26.9981C68.2855 26.879 68.4407 26.5391 68.6427 25.9785H69.0565L68.9309 26.9906H69.8768L69.8177 27.4594H68.8718L68.554 29.8111Z" fill="#243B4A"/>
<path d="M66.2011 30.5329C66.2011 30.5924 66.2109 30.6396 66.2306 30.6743C66.2552 30.7041 66.2848 30.719 66.3193 30.719C66.3735 30.719 66.4277 30.7041 66.4819 30.6743C66.541 30.6396 66.6124 30.5825 66.6962 30.5031L66.7922 30.6966C66.7183 30.8008 66.605 30.91 66.4523 31.0241C66.2996 31.1382 66.1198 31.1952 65.9129 31.1952C65.7404 31.1952 65.6074 31.1555 65.5138 31.0762C65.4251 30.9968 65.3882 30.8802 65.403 30.7264C65.4276 30.5081 65.4916 30.0393 65.5951 29.3199C65.733 28.3574 65.8168 27.7546 65.8463 27.5115L65.3882 27.3329L65.4399 27.0724L66.5336 26.9013L66.7036 26.9831L66.2084 30.4585L66.2011 30.5329ZM66.408 26.1124C66.2947 26.1124 66.1961 26.0703 66.1124 25.9859C66.0336 25.9016 65.9941 25.7999 65.9941 25.6808C65.9941 25.527 66.0459 25.3955 66.1493 25.2864C66.2577 25.1773 66.3833 25.1227 66.5262 25.1227C66.6592 25.1227 66.7627 25.1649 66.8366 25.2492C66.9105 25.3286 66.9474 25.4278 66.9474 25.5469C66.9425 25.7056 66.8908 25.8396 66.7922 25.9487C66.6937 26.0579 66.5656 26.1124 66.408 26.1124Z" fill="#243B4A"/>
<path d="M64.4847 27.8018C64.2039 27.519 63.9822 27.3776 63.8196 27.3776C63.593 27.3776 63.3885 27.4644 63.2063 27.638C63.024 27.8117 62.8811 28.0523 62.7777 28.3599C62.6742 28.6675 62.6225 29.0198 62.6225 29.4167C62.6225 30.2601 62.8836 30.6818 63.4058 30.6818C63.6127 30.6818 63.7901 30.6446 63.9378 30.5701C64.0856 30.4957 64.2433 30.3816 64.4108 30.2278L64.566 30.5106C64.4428 30.6793 64.2581 30.8356 64.0117 30.9794C63.7654 31.1233 63.4772 31.1953 63.1471 31.1953C62.7284 31.1953 62.4008 31.0489 62.1643 30.7562C61.9278 30.4585 61.8096 30.0442 61.8096 29.5134C61.8096 29.1066 61.8934 28.7022 62.0609 28.3004C62.2333 27.8935 62.4845 27.5587 62.8146 27.2957C63.1496 27.0278 63.5437 26.8939 63.997 26.8939C64.1398 26.8939 64.2901 26.9087 64.4477 26.9385C64.6054 26.9683 64.7359 27.008 64.8394 27.0576L64.6325 27.839L64.4847 27.8018Z" fill="#243B4A"/>
<path d="M56.8176 27.8985C57.0146 27.6058 57.2486 27.3652 57.5196 27.1766C57.7955 26.9881 58.0763 26.8938 58.362 26.8938C58.6428 26.8938 58.8571 26.9782 59.0049 27.1469C59.1576 27.3155 59.234 27.5934 59.234 27.9804C59.234 28.159 59.2044 28.4095 59.1453 28.732C59.0862 29.0495 59.0517 29.2331 59.0419 29.2827C59.032 29.3621 59.0197 29.434 59.0049 29.4985C58.9951 29.558 58.9852 29.6101 58.9754 29.6548C58.9507 29.8086 58.9261 29.9649 58.9015 30.1236C58.8768 30.2824 58.8645 30.4114 58.8645 30.5106C58.8645 30.6545 58.9015 30.7264 58.9754 30.7264C59.0296 30.7264 59.0813 30.7115 59.1305 30.6818C59.1847 30.652 59.2562 30.5974 59.3448 30.518L59.4409 30.719C59.3719 30.8182 59.2586 30.9224 59.101 31.0315C58.9483 31.1407 58.7684 31.1952 58.5615 31.1952C58.3743 31.1952 58.2413 31.1555 58.1625 31.0762C58.0837 30.9968 58.0443 30.8802 58.0443 30.7264C58.0443 30.5825 58.0837 30.3022 58.1625 29.8855L58.2364 29.4836L58.2659 29.305C58.3743 28.7245 58.4285 28.3053 58.4285 28.0473C58.4236 27.8191 58.3891 27.6628 58.3251 27.5785C58.261 27.4942 58.1551 27.452 58.0073 27.452C57.8102 27.452 57.591 27.5512 57.3496 27.7497C57.1131 27.9481 56.9112 28.1887 56.7437 28.4715L56.4037 31.1208H55.6352L56.3298 25.6585L55.9012 25.5245L55.953 25.2566L57.0023 25.1227L57.1649 25.2194L56.8176 27.8985Z" fill="#243B4A"/>
<path d="M53.9766 29.8111C53.9421 30.0393 53.9249 30.2204 53.9249 30.3543C53.9249 30.4734 53.947 30.5577 53.9914 30.6074C54.0406 30.657 54.1244 30.6818 54.2426 30.6818C54.3461 30.6818 54.4668 30.652 54.6047 30.5925C54.7476 30.5329 54.8584 30.4709 54.9373 30.4064L55.0112 30.6594C54.9028 30.7835 54.7328 30.905 54.5013 31.0241C54.2697 31.1382 54.0308 31.1953 53.7845 31.1953C53.5825 31.1953 53.4224 31.1456 53.3041 31.0464C53.1908 30.9422 53.1342 30.7835 53.1342 30.5701C53.1342 30.4759 53.1514 30.2774 53.1859 29.9748L53.5184 27.4594H53.075L53.1416 27.1543L53.5997 26.9981C53.7081 26.879 53.8633 26.5391 54.0653 25.9785H54.4791L54.3535 26.9906H55.2994L55.2402 27.4594H54.2944L53.9766 29.8111Z" fill="#243B4A"/>
<path d="M51.6236 30.5329C51.6236 30.5924 51.6335 30.6396 51.6532 30.6743C51.6778 30.7041 51.7074 30.719 51.7419 30.719C51.7961 30.719 51.8503 30.7041 51.9044 30.6743C51.9636 30.6396 52.035 30.5825 52.1187 30.5031L52.2148 30.6966C52.1409 30.8008 52.0276 30.91 51.8749 31.0241C51.7222 31.1382 51.5423 31.1952 51.3354 31.1952C51.163 31.1952 51.03 31.1555 50.9364 31.0762C50.8477 30.9968 50.8108 30.8802 50.8255 30.7264C50.8502 30.5081 50.9142 30.0393 51.0177 29.3199C51.1556 28.3574 51.2394 27.7546 51.2689 27.5115L50.8108 27.3329L50.8625 27.0724L51.9562 26.9013L52.1261 26.9831L51.631 30.4585L51.6236 30.5329ZM51.8305 26.1124C51.7172 26.1124 51.6187 26.0703 51.535 25.9859C51.4561 25.9016 51.4167 25.7999 51.4167 25.6808C51.4167 25.527 51.4684 25.3955 51.5719 25.2864C51.6803 25.1773 51.8059 25.1227 51.9488 25.1227C52.0818 25.1227 52.1853 25.1649 52.2592 25.2492C52.333 25.3286 52.37 25.4278 52.37 25.5469C52.3651 25.7056 52.3133 25.8396 52.2148 25.9487C52.1163 26.0579 51.9882 26.1124 51.8305 26.1124Z" fill="#243B4A"/>
<path d="M44.6636 27.6381C44.6439 27.5537 44.6218 27.4942 44.5971 27.4594C44.5725 27.4198 44.538 27.3999 44.4937 27.3999C44.4493 27.3999 44.4099 27.4098 44.3754 27.4297C44.3459 27.4495 44.304 27.4793 44.2498 27.519L44.1537 27.2957C44.1981 27.2263 44.2942 27.1444 44.4419 27.0501C44.5897 26.9509 44.7474 26.9013 44.9149 26.9013C45.0922 26.9013 45.2179 26.9435 45.2918 27.0278C45.3706 27.1072 45.4223 27.2312 45.447 27.3999L45.7352 29.826L45.8091 30.5404L46.0973 29.7739L47.2057 26.9311H47.9077L48.2107 29.8706L48.2698 30.5329L48.6467 29.9748C48.8339 29.692 49.0064 29.3621 49.164 28.985C49.3216 28.608 49.4054 28.2532 49.4153 27.9208C49.4153 27.8365 49.3931 27.7174 49.3487 27.5636C49.3143 27.4495 49.297 27.3577 49.297 27.2883C49.297 27.1742 49.3315 27.0824 49.4005 27.0129C49.4744 26.9385 49.568 26.9013 49.6813 26.9013C49.9867 26.9013 50.1444 27.1469 50.1542 27.6381C50.1542 27.9506 50.0261 28.3525 49.77 28.8436C49.5187 29.3298 49.2379 29.7863 48.9275 30.2129L48.2994 31.1506L47.6787 31.1878L47.5161 29.9078L47.3609 28.4343L47.324 27.9283L47.1688 28.4418L46.5037 29.9078L45.9568 31.1432L45.3065 31.1953L45.0701 29.9078L44.6636 27.6381Z" fill="#243B4A"/>
<defs>
<clipPath id="clip0_84_5098">
<rect width="39.7199" height="40" fill="white"/>
</clipPath>
</defs>
</svg>
